<svg width="318" height="308" viewBox="0 0 318 308" fill="none" xmlns="http://www.w3.org/2000/svg">
<path d="M184.692 -36.524C224.769 -19.932 267.866 -1.388 292.296 29.844C316.727 60.832 322.216 104.264 315.079 145.988C307.943 187.712 288.178 227.484 257.435 258.472C226.416 289.46 184.692 311.908 145.164 306.296C105.636 300.684 68.304 267.256 30.972 250.42C-6.35998 233.34 -43.9665 232.852 -73.887 217.48C-103.533 202.352 -125.493 172.584 -127.689 142.084C-129.885 111.34 -112.042 79.62 -97.7685 44.484C-83.4945 9.104 -72.789 -29.692 -45.339 -51.164C-17.889 -72.636 26.3055 -76.784 66.9315 -71.66C107.558 -66.78 144.615 -52.872 184.692 -36.524Z" fill="#FF8927"/>
</svg>
