<svg width="500" height="500" viewBox="0 0 500 500" fill="none" xmlns="http://www.w3.org/2000/svg">
<path d="M93.9824 280.543L25.9436 293.276L36.1235 347.672L104.162 334.939L93.9824 280.543Z" fill="#F5F5F5"/>
<path d="M93.9999 280.56L93.6699 280.64L92.6699 280.83L88.9799 281.55L75.0499 284.22L25.9999 293.52L26.1899 293.24C29.1899 309.43 32.7099 327.99 36.3999 347.63L36.0899 347.41L104.09 334.73L103.92 334.99C100.92 318.61 98.3999 305.04 96.6499 295.53C95.7899 290.78 95.1099 287.05 94.6499 284.53C94.4199 283.26 94.2499 282.29 94.1299 281.61C94.0099 280.93 93.9599 280.61 93.9599 280.61C93.9599 280.61 94.0399 280.93 94.1599 281.61L94.7299 284.48C95.2199 287.03 95.9299 290.74 96.8399 295.48C98.6499 305.01 101.23 318.62 104.35 335.04L104.4 335.25L104.18 335.3L36.1399 348L35.8799 348.05L35.8299 347.78C32.1699 328.14 28.6999 309.58 25.6799 293.38V293.15L25.9199 293.1L75.1599 284L89.0499 281.46L92.7199 280.8L93.6499 280.64L93.9999 280.56Z" fill="#E0E0E0"/>
<path d="M92.1868 284.42L28.925 296.259L37.8228 343.803L101.084 331.964L92.1868 284.42Z" fill="#EBEBEB"/>
<path d="M37.8 343.82L54.37 310.13L71.51 326.06L78.95 314.44L101.06 331.99L37.8 343.82Z" fill="#E0E0E0"/>
<path d="M73.1899 302.87C73.3744 303.855 73.2625 304.874 72.8685 305.795C72.4744 306.717 71.8159 307.502 70.9761 308.049C70.1363 308.597 69.1531 308.884 68.1505 308.872C67.148 308.861 66.1713 308.553 65.3438 307.987C64.5163 307.421 63.8752 306.622 63.5016 305.692C63.128 304.762 63.0387 303.741 63.2448 302.76C63.451 301.779 63.9434 300.881 64.6598 300.18C65.3763 299.478 66.2846 299.005 67.2699 298.82C67.9246 298.697 68.5971 298.704 69.249 298.841C69.9009 298.978 70.5194 299.242 71.0692 299.618C71.619 299.994 72.0892 300.475 72.4531 301.033C72.817 301.591 73.0674 302.215 73.1899 302.87Z" fill="#E0E0E0"/>
<path d="M195.923 52.6472L161.089 245.09L303.573 270.881L338.407 78.4383L195.923 52.6472Z" fill="#FAFAFA"/>
<path d="M303.57 270.89C303.57 270.89 303.62 270.57 303.72 269.97L304.2 267.26C304.62 264.88 305.25 261.36 306.06 256.79C307.71 247.63 310.11 234.25 313.15 217.31L338.15 78.41L338.35 78.69L195.9 52.92L196.21 52.7C183.21 124.49 171.14 190.99 161.32 245.13L161.15 244.88L264.68 263.74L293.41 269L300.97 270.4C302.68 270.71 303.57 270.89 303.57 270.89L301.01 270.45L293.48 269.11L264.75 264L161.05 245.34H160.84V245.13C170.63 190.97 182.66 124.47 195.64 52.68V52.42H195.91L338.45 78.21L338.69 78.26V78.49C328.32 135.49 319.56 183.62 313.4 217.49L306.2 256.89C305.36 261.44 304.72 264.89 304.28 267.31C304.06 268.48 303.9 269.37 303.79 269.98L303.57 270.89Z" fill="#E0E0E0"/>
<path d="M268.456 83.9348L207.959 72.9843L198.419 125.688L258.916 136.638L268.456 83.9348Z" fill="#E0E0E0"/>
<path d="M316.707 92.6688L277.977 85.6582L276.732 92.5364L315.462 99.5471L316.707 92.6688Z" fill="#E0E0E0"/>
<path d="M307.777 156.576L197.233 136.566L195.988 143.444L306.532 163.454L307.777 156.576Z" fill="#E0E0E0"/>
<path d="M305.595 168.682L195.051 148.672L193.806 155.551L304.35 175.56L305.595 168.682Z" fill="#E0E0E0"/>
<path d="M303.404 180.788L192.861 160.779L191.616 167.657L302.159 187.666L303.404 180.788Z" fill="#E0E0E0"/>
<path d="M301.203 192.893L190.659 172.883L189.414 179.761L299.958 199.771L301.203 192.893Z" fill="#E0E0E0"/>
<path d="M299.013 204.989L188.469 184.98L187.224 191.858L297.768 211.867L299.013 204.989Z" fill="#E0E0E0"/>
<path d="M291.501 246.498L180.957 226.488L179.712 233.367L290.256 253.376L291.501 246.498Z" fill="#E0E0E0"/>
<path d="M246.969 208.076L186.285 197.091L185.04 203.97L245.724 214.954L246.969 208.076Z" fill="#E0E0E0"/>
<path d="M314.697 103.803L275.966 96.7922L274.721 103.67L313.452 110.681L314.697 103.803Z" fill="#E0E0E0"/>
<path d="M311.214 115.077L272.642 107.992L271.383 114.843L309.956 121.927L311.214 115.077Z" fill="#E0E0E0"/>
<path d="M295.816 123.364L271.934 119.041L270.689 125.92L294.571 130.243L295.816 123.364Z" fill="#E0E0E0"/>
<path d="M368 51.76L355.71 52.26L354.38 55.7C354 56.5961 353.797 57.5569 353.78 58.53C353.768 58.9603 353.875 59.3855 354.091 59.7581C354.306 60.1307 354.621 60.4361 355 60.64C356.111 60.9943 357.275 61.1533 358.44 61.11V62.11L347 62.53V61.53C348.162 61.3287 349.221 60.7359 350 59.85C351.184 58.2103 352.117 56.4039 352.77 54.49L364 26.27H364.49L378.18 54.27C379.513 56.9367 380.567 58.6033 381.34 59.27C382.056 59.821 382.937 60.1135 383.84 60.1V61.04L367.01 61.72V60.77H367.71C368.696 60.816 369.674 60.5801 370.53 60.09C370.712 59.9511 370.855 59.7678 370.946 59.5578C371.037 59.3477 371.073 59.1178 371.05 58.89C371.034 58.5689 370.97 58.2521 370.86 57.95C370.86 57.8 370.53 57.16 370.01 56.06L368 51.76ZM367.05 49.9L361.39 38.12L356.53 50.32L367.05 49.9Z" fill="#E0E0E0"/>
<path d="M391.272 124.421L335.065 143.195L350.075 188.134L406.283 169.36L391.272 124.421Z" fill="#F5F5F5"/>
<path d="M390.189 127.922L337.937 145.375L351.056 184.652L403.308 167.199L390.189 127.922Z" fill="#EBEBEB"/>
<path d="M351.06 184.67L361.16 154.16L377.56 165.66L382.5 154.93L403.31 167.22L351.06 184.67Z" fill="#E0E0E0"/>
<path d="M376.26 145.79C376.532 146.604 376.557 147.481 376.331 148.309C376.105 149.137 375.639 149.88 374.991 150.443C374.343 151.006 373.542 151.364 372.69 151.472C371.839 151.58 370.974 151.433 370.206 151.05C369.438 150.667 368.801 150.064 368.375 149.318C367.95 148.573 367.755 147.718 367.815 146.862C367.875 146.005 368.188 145.186 368.714 144.507C369.24 143.829 369.956 143.322 370.77 143.05C371.31 142.868 371.881 142.795 372.45 142.834C373.019 142.874 373.574 143.025 374.084 143.28C374.594 143.534 375.049 143.887 375.422 144.318C375.796 144.749 376.08 145.249 376.26 145.79Z" fill="#E0E0E0"/>
<path d="M392.832 72.1585L379.074 142.414L466.945 159.622L480.703 89.3663L392.832 72.1585Z" fill="#F5F5F5"/>
<path d="M480.72 89.37L480.29 89.3L479.05 89.08L474.27 88.17L456.27 84.71L392.8 72.4L393.08 72.21C388.99 93.12 384.31 117.09 379.35 142.46L379.14 142.14L467 159.41L466.74 159.58C470.93 138.44 474.4 120.91 476.83 108.66C478.06 102.53 479.02 97.72 479.68 94.43C480.01 92.79 480.26 91.54 480.44 90.67C480.62 89.8 480.72 89.37 480.72 89.37C480.72 89.37 480.65 89.8 480.49 90.64C480.33 91.48 480.1 92.74 479.79 94.36C479.16 97.64 478.24 102.44 477.07 108.56C474.69 120.86 471.28 138.45 467.18 159.67L467.13 159.89H466.92L379 142.68L378.74 142.63L378.79 142.37C383.79 117.01 388.48 93.04 392.58 72.13L392.63 71.89L392.86 71.94L456.47 84.5L474.39 88.08L479.12 89.08L480.32 89.33L480.72 89.37Z" fill="#E0E0E0"/>
<path d="M395.005 77.1768L382.981 138.58L464.679 154.579L476.704 93.1757L395.005 77.1768Z" fill="#EBEBEB"/>
<path d="M382.98 138.59L418.99 106.01L431.99 133.35L446.48 122.93L464.68 154.59L382.98 138.59Z" fill="#E0E0E0"/>
<path d="M445.09 106.26C444.842 107.534 444.222 108.706 443.308 109.627C442.395 110.549 441.228 111.178 439.956 111.437C438.684 111.695 437.365 111.57 436.164 111.078C434.963 110.586 433.935 109.749 433.21 108.673C432.485 107.597 432.095 106.329 432.091 105.032C432.086 103.734 432.466 102.464 433.184 101.382C433.901 100.301 434.923 99.4563 436.12 98.9557C437.317 98.4551 438.636 98.3208 439.91 98.57C440.755 98.734 441.56 99.0632 442.278 99.5386C442.996 100.014 443.614 100.626 444.095 101.341C444.576 102.055 444.911 102.857 445.082 103.701C445.253 104.545 445.256 105.415 445.09 106.26Z" fill="#E0E0E0"/>
<path d="M54.74 33.21L59.28 86.19L79.83 91.76L119.69 87.13L114.08 27.49L54.74 33.21Z" fill="#F5F5F5"/>
<path d="M65.55 81.43L59.29 86.19C61.6695 88.253 64.4516 89.799 67.46 90.73C71.4819 91.8489 75.6807 92.1884 79.83 91.73C79.83 91.73 70.34 90.12 65.55 81.43Z" fill="#EBEBEB"/>
<path d="M109.28 47C109.28 47.1 99.1999 48.15 86.7499 49.36C74.2999 50.57 64.1799 51.47 64.1699 51.36C64.1599 51.25 74.2499 50.18 86.7099 49C99.1699 47.82 109.27 46.87 109.28 47Z" fill="#E0E0E0"/>
<path d="M109.87 55.12C109.87 55.22 99.79 56.28 87.34 57.49C74.89 58.7 64.77 59.59 64.76 59.49C64.75 59.39 74.84 58.33 87.3 57.12C99.76 55.91 109.86 55 109.87 55.12Z" fill="#E0E0E0"/>
<path d="M110.82 62.31C110.82 62.41 100.74 63.47 88.29 64.67C75.84 65.87 65.73 66.78 65.72 66.67C65.71 66.56 75.79 65.52 88.25 64.31C100.71 63.1 110.81 62.21 110.82 62.31Z" fill="#E0E0E0"/>
<path d="M111.45 69.26C111.45 69.35 101.37 70.41 88.9099 71.62C76.4499 72.83 66.3499 73.73 66.3399 73.62C66.3299 73.51 76.4199 72.46 88.8799 71.26C101.34 70.06 111.44 69.16 111.45 69.26Z" fill="#E0E0E0"/>
<path d="M484.39 459.9C484.39 460.04 378.99 460.16 249.01 460.16C119.03 460.16 13.6101 460.04 13.6101 459.9C13.6101 459.76 118.98 459.63 249.01 459.63C379.04 459.63 484.39 459.75 484.39 459.9Z" fill="#263238"/>
<path d="M41.9399 125.35L84.0999 366.77L261.88 338.86L270.12 318.95L222.02 95.72L55.3799 105.66L41.9399 125.35Z" fill="#E0E0E0"/>
<path opacity="0.3" d="M84.0999 366.77L96.73 347.42L54.5699 105.99L41.9399 125.35L84.0999 366.77Z" fill="black"/>
<path d="M54.5698 105.99L96.7298 347.42L270.12 318.95L226.31 81.5L54.5698 105.99Z" fill="#FAFAFA"/>
<path d="M54.5698 106L226.28 81.3H226.49V81.5C238.78 147.81 254 230 270.38 318.9L270.43 319.17L270.16 319.22L267.3 319.69L96.7698 347.69H96.5298V347.45C71.7298 204.86 54.9398 108.12 54.5698 106C54.9398 108.13 71.9298 204.83 96.9698 347.38L96.6898 347.19L267.21 319.19L270.07 318.72L269.85 319.03C253.47 230.12 238.33 147.93 226.1 81.57L226.34 81.74L54.5698 106Z" fill="#263238"/>
<path d="M193.589 220.325C195.739 204.148 184.367 189.29 168.19 187.14C152.012 184.99 137.154 196.362 135.004 212.54C132.854 228.717 144.226 243.575 160.404 245.725C176.582 247.875 191.439 236.503 193.589 220.325Z" fill="#FF8927"/>
<path d="M150.74 224.18L149.4 215.67L178.87 211L180.13 219C180.13 219 178.33 225.88 166.41 227.76C154.49 229.64 150.74 224.18 150.74 224.18Z" fill="white"/>
<path d="M144.75 215.72L165.78 219.46L184.02 209.2L162.96 205.87L144.75 215.72Z" fill="white"/>
<path d="M203.589 133.173L99.0961 149.686C97.8141 149.888 96.9391 151.092 97.1417 152.374L97.4945 154.606C97.6971 155.888 98.9005 156.763 100.182 156.56L204.676 140.048C205.958 139.845 206.833 138.642 206.63 137.36L206.277 135.127C206.075 133.845 204.871 132.97 203.589 133.173Z" fill="#E0E0E0"/>
<path d="M187.058 150.554L120.79 161.026C119.508 161.229 118.633 162.433 118.836 163.714L119.189 165.947C119.391 167.229 120.595 168.104 121.877 167.901L188.144 157.429C189.426 157.227 190.301 156.023 190.099 154.741L189.746 152.509C189.543 151.227 188.34 150.352 187.058 150.554Z" fill="#E0E0E0"/>
<path d="M210.927 298.684L144.659 309.157C143.377 309.359 142.502 310.563 142.705 311.845L143.058 314.077C143.26 315.359 144.464 316.234 145.746 316.031L212.013 305.559C213.295 305.357 214.17 304.153 213.968 302.871L213.615 300.639C213.412 299.357 212.209 298.482 210.927 298.684Z" fill="#E0E0E0"/>
<path d="M261.19 325.66L260.35 325.82L257.87 326.25L248.28 327.85L212.67 333.69L92.3698 353.24L92.1098 353.29V353.03C90.4298 343.48 88.6598 333.48 86.8598 323.29C77.1798 268.54 68.4598 219 62.1498 183.11C59.0198 165.17 56.4898 150.66 54.7298 140.62C53.8698 135.62 53.1998 131.71 52.7298 129.06C52.5098 127.74 52.3398 126.74 52.2198 126.06C52.0998 125.38 52.0698 125.06 52.0698 125.06C52.0698 125.06 52.1498 125.41 52.2798 126.06C52.4098 126.71 52.5898 127.75 52.8298 129.06C53.3098 131.71 54.0098 135.6 54.9198 140.6C56.7098 150.6 59.2998 165.14 62.4998 183.06C68.8498 218.94 77.6298 268.48 87.3198 323.22C89.1198 333.4 90.8798 343.41 92.5698 352.96L92.2598 352.74L212.6 333.36L248.23 327.68L257.83 326.17L260.32 325.79L261.19 325.66Z" fill="#263238"/>
<path d="M248 334.74L247.21 334.9L244.87 335.31L235.81 336.85L202.13 342.47L87.83 361.39H87.57V361.14L81 325.47C71.21 271.47 62.35 222.62 55.93 187.24C52.75 169.56 50.17 155.24 48.39 145.34C47.52 140.4 46.83 136.56 46.39 133.94C46.17 132.65 45.99 131.66 45.88 130.94C45.77 130.22 45.72 129.94 45.72 129.94C45.72 129.94 45.8 130.27 45.93 130.94L46.5 133.94C46.98 136.55 47.7 140.38 48.62 145.31L56.32 187.18C62.78 222.56 71.7 271.41 81.55 325.38C83.77 337.61 85.95 349.58 88.04 361.09L87.74 360.88L202.05 342.14L235.75 336.67L244.82 335.22L247.17 334.86L248 334.74Z" fill="#263238"/>
<path d="M58.7599 208.23L54.8499 213.75L64.3399 270.64L69.9899 272.56L58.7599 208.23Z" fill="#263238"/>
<path d="M85.8385 203.493L58.7686 208.222L70.0068 272.548L97.0767 267.818L85.8385 203.493Z" fill="#263238"/>
<path d="M86.7013 200.998L84.9379 201.306C83.9314 201.481 83.2579 202.44 83.4335 203.446L94.8049 268.601C94.9806 269.608 95.9389 270.281 96.9455 270.106L98.7088 269.798C99.7153 269.622 100.389 268.664 100.213 267.657L88.8418 202.502C88.6661 201.496 87.7078 200.822 86.7013 200.998Z" fill="#263238"/>
<path d="M54.0799 254.77C51.0803 254.758 48.1864 253.661 45.9329 251.681C43.6793 249.701 42.2184 246.973 41.8199 244C41.476 241.46 41.9277 238.876 43.1127 236.603C44.2978 234.33 46.158 232.481 48.4375 231.309C50.717 230.137 53.3036 229.7 55.8416 230.058C58.3796 230.416 60.7441 231.553 62.6099 233.31L79.5099 223.71C79.8334 223.527 80.1962 223.424 80.5678 223.41C80.9394 223.396 81.3089 223.472 81.6451 223.63C81.9813 223.789 82.2745 224.026 82.4998 224.322C82.7252 224.618 82.8761 224.964 82.9399 225.33L86.9399 248.22C87.0057 248.584 86.9831 248.959 86.8739 249.313C86.7647 249.666 86.5721 249.988 86.3123 250.252C86.0526 250.516 85.7333 250.713 85.3813 250.828C85.0294 250.942 84.6551 250.97 84.2899 250.91L65.2099 247.91C64.1769 249.977 62.5884 251.716 60.6225 252.932C58.6566 254.147 56.3911 254.79 54.0799 254.79V254.77ZM54.0799 231.96C53.5778 231.957 53.0762 231.994 52.5799 232.07C49.8897 232.507 47.472 233.966 45.8307 236.142C44.1894 238.318 43.4512 241.043 43.7699 243.75C44.0728 246.014 45.1124 248.115 46.7283 249.729C48.3441 251.343 50.4463 252.38 52.7103 252.68C54.9743 252.981 57.2742 252.527 59.255 251.39C61.2358 250.254 62.7872 248.496 63.6699 246.39L63.9699 245.67L84.6099 249C84.6588 249.01 84.7097 249.008 84.7572 248.992C84.8047 248.976 84.847 248.948 84.8799 248.91C84.9154 248.875 84.9421 248.833 84.9577 248.786C84.9734 248.739 84.9775 248.689 84.9699 248.64L80.9699 225.74C80.9603 225.69 80.939 225.643 80.9077 225.603C80.8764 225.563 80.836 225.531 80.7899 225.51C80.745 225.487 80.6953 225.475 80.6449 225.475C80.5945 225.475 80.5448 225.487 80.4999 225.51L62.2499 235.83L61.7099 235.26C60.7323 234.227 59.5538 233.405 58.2468 232.845C56.9398 232.284 55.532 231.997 54.1099 232L54.0799 231.96Z" fill="#455A64"/>
<path d="M94.68 267.75C94.6136 267.541 94.5667 267.327 94.54 267.11C94.45 266.63 94.34 266.02 94.19 265.27C93.89 263.6 93.47 261.27 92.95 258.47C91.95 252.68 90.51 244.78 88.95 236.05C87.39 227.32 86.06 219.4 85.06 213.59C84.59 210.77 84.21 208.46 83.94 206.78C83.82 206.02 83.73 205.4 83.66 204.92C83.6132 204.707 83.593 204.488 83.6 204.27C83.668 204.476 83.7215 204.687 83.76 204.9C83.86 205.38 83.99 205.99 84.14 206.74C84.46 208.41 84.9 210.74 85.43 213.53C86.5 219.26 87.93 227.19 89.43 235.95C90.93 244.71 92.33 252.66 93.27 258.41C93.75 261.29 94.11 263.62 94.35 265.23C94.46 266.04 94.56 266.66 94.6 267.1C94.6533 267.313 94.6802 267.531 94.68 267.75Z" fill="#455A64"/>
<path d="M69.4498 272.78C69.3905 272.566 69.3437 272.349 69.3098 272.13C69.2198 271.66 69.1098 271.05 68.9698 270.29C68.6598 268.62 68.2398 266.29 67.7198 263.5C66.7198 257.7 65.2798 249.8 63.7198 241.07C62.1598 232.34 60.8398 224.42 59.8298 218.62C59.3598 215.79 58.9798 213.48 58.7098 211.81C58.5898 211.04 58.4998 210.43 58.4298 209.95C58.3829 209.733 58.3627 209.512 58.3698 209.29C58.4456 209.498 58.5025 209.712 58.5398 209.93C58.6298 210.41 58.7598 211.02 58.9098 211.77C59.2298 213.44 59.6698 215.77 60.1998 218.55C61.2698 224.29 62.6998 232.21 64.1998 240.98C65.6998 249.75 67.0998 257.68 68.0498 263.43C68.5198 266.31 68.8898 268.64 69.1198 270.26C69.2298 271.07 69.3298 271.69 69.3698 272.12C69.4231 272.336 69.45 272.558 69.4498 272.78Z" fill="#455A64"/>
<path d="M184 209.2C183.565 209.533 183.103 209.831 182.62 210.09L178.76 212.36C175.48 214.26 170.93 216.85 165.89 219.69L165.8 219.74H165.71H165.5C159.75 218.74 154.5 217.74 150.8 217.05L146.35 216.18C145.799 216.095 145.257 215.961 144.73 215.78C145.287 215.805 145.842 215.869 146.39 215.97L150.86 216.68C154.64 217.3 159.86 218.2 165.6 219.22H165.8H165.62C170.67 216.39 175.25 213.85 178.62 212.03L182.57 209.91C183.024 209.63 183.502 209.392 184 209.2Z" fill="#263238"/>
<path d="M120.249 126.3L119.952 124.457L128.635 123.054L128.933 124.897L125.696 125.42L127.107 134.15L124.897 134.507L123.486 125.777L120.249 126.3ZM131.773 133.395L130.065 122.823L132.3 122.462L133.005 126.824L137.543 126.09L136.838 121.728L139.068 121.368L140.777 131.94L138.547 132.301L137.841 127.933L133.303 128.667L134.009 133.034L131.773 133.395ZM142.62 131.643L140.911 121.07L148.035 119.919L148.333 121.761L143.444 122.552L143.851 125.071L148.374 124.34L148.671 126.183L144.149 126.914L144.557 129.438L149.467 128.645L149.764 130.488L142.62 131.643ZM156.039 121.745C155.931 121.335 155.701 121.04 155.351 120.86C155 120.68 154.556 120.634 154.02 120.721C153.655 120.78 153.355 120.881 153.12 121.025C152.885 121.165 152.715 121.336 152.61 121.536C152.508 121.737 152.475 121.95 152.512 122.177C152.536 122.368 152.602 122.527 152.711 122.654C152.823 122.78 152.965 122.883 153.137 122.961C153.308 123.036 153.501 123.095 153.716 123.138C153.931 123.177 154.158 123.204 154.397 123.218L155.383 123.292C155.861 123.321 156.307 123.39 156.72 123.5C157.133 123.609 157.501 123.767 157.824 123.973C158.147 124.178 158.413 124.439 158.623 124.755C158.837 125.07 158.981 125.447 159.055 125.887C159.156 126.535 159.082 127.123 158.832 127.65C158.584 128.174 158.176 128.616 157.605 128.977C157.038 129.334 156.324 129.581 155.463 129.72C154.61 129.858 153.845 129.848 153.17 129.688C152.498 129.529 151.943 129.221 151.506 128.766C151.071 128.306 150.784 127.697 150.644 126.94L152.807 126.59C152.888 126.941 153.038 127.22 153.255 127.429C153.475 127.633 153.746 127.771 154.069 127.843C154.394 127.91 154.749 127.913 155.135 127.851C155.513 127.789 155.833 127.681 156.094 127.526C156.358 127.37 156.552 127.182 156.675 126.961C156.799 126.739 156.84 126.501 156.798 126.247C156.76 126.009 156.657 125.821 156.49 125.682C156.326 125.543 156.101 125.438 155.814 125.368C155.531 125.297 155.189 125.246 154.788 125.216L153.59 125.113C152.664 125.04 151.905 124.815 151.315 124.437C150.724 124.059 150.367 123.479 150.244 122.697C150.137 122.058 150.217 121.471 150.484 120.937C150.754 120.403 151.171 119.952 151.733 119.586C152.295 119.219 152.962 118.974 153.733 118.849C154.518 118.723 155.224 118.746 155.853 118.92C156.485 119.093 157.003 119.393 157.407 119.818C157.811 120.244 158.069 120.771 158.182 121.399L156.039 121.745ZM161.574 117.73L163.282 128.303L161.047 128.664L159.338 118.092L161.574 117.73ZM169.639 119.547C169.531 119.137 169.301 118.842 168.951 118.662C168.6 118.482 168.157 118.436 167.62 118.523C167.255 118.582 166.955 118.683 166.721 118.827C166.486 118.967 166.316 119.138 166.21 119.338C166.108 119.538 166.076 119.752 166.113 119.979C166.136 120.17 166.202 120.328 166.311 120.456C166.424 120.582 166.566 120.685 166.737 120.763C166.908 120.838 167.101 120.897 167.317 120.939C167.531 120.979 167.758 121.006 167.997 121.02L168.984 121.094C169.462 121.123 169.907 121.192 170.32 121.302C170.734 121.411 171.102 121.569 171.424 121.775C171.747 121.98 172.014 122.241 172.224 122.557C172.437 122.872 172.581 123.249 172.656 123.689C172.757 124.337 172.682 124.925 172.432 125.452C172.185 125.976 171.776 126.418 171.206 126.779C170.638 127.135 169.924 127.383 169.064 127.522C168.21 127.66 167.446 127.65 166.77 127.49C166.098 127.331 165.543 127.023 165.106 126.567C164.672 126.108 164.384 125.499 164.244 124.742L166.407 124.392C166.489 124.743 166.638 125.022 166.855 125.231C167.075 125.435 167.347 125.573 167.669 125.645C167.994 125.712 168.35 125.715 168.735 125.653C169.114 125.591 169.433 125.483 169.694 125.328C169.959 125.172 170.153 124.984 170.276 124.763C170.399 124.541 170.44 124.303 170.399 124.049C170.36 123.811 170.258 123.623 170.09 123.484C169.927 123.345 169.701 123.24 169.414 123.17C169.131 123.099 168.789 123.048 168.389 123.018L167.191 122.914C166.264 122.842 165.506 122.616 164.915 122.239C164.324 121.861 163.967 121.281 163.845 120.499C163.738 119.86 163.818 119.273 164.085 118.739C164.355 118.204 164.771 117.754 165.333 117.388C165.896 117.021 166.562 116.776 167.333 116.651C168.118 116.524 168.825 116.548 169.453 116.722C170.085 116.895 170.603 117.195 171.007 117.62C171.412 118.046 171.67 118.573 171.782 119.201L169.639 119.547Z" fill="#263238"/>
<path d="M199.18 325.79H284.44V370.53H199.18C194.499 370.53 190.009 368.67 186.699 365.36C183.389 362.05 181.53 357.561 181.53 352.88V343.43C181.53 338.749 183.389 334.26 186.699 330.95C190.009 327.64 194.499 325.78 199.18 325.78V325.79Z" fill="#FF8927"/>
<path d="M262.15 325.79H442C442.777 325.79 443.522 326.099 444.072 326.648C444.621 327.198 444.93 327.943 444.93 328.72V330.29C444.93 331.067 444.621 331.812 444.072 332.362C443.522 332.911 442.777 333.22 442 333.22H262.15V325.79Z" fill="#FF8927"/>
<path d="M262.15 363.11H442C442.385 363.11 442.766 363.186 443.121 363.333C443.477 363.48 443.8 363.696 444.072 363.968C444.344 364.24 444.56 364.563 444.707 364.919C444.854 365.274 444.93 365.655 444.93 366.04V367.61C444.93 368.387 444.621 369.132 444.072 369.682C443.522 370.231 442.777 370.54 442 370.54H262.15V363.11Z" fill="#FF8927"/>
<path d="M439.46 363.11H282.55C280.587 363.11 278.644 362.723 276.83 361.972C275.017 361.22 273.37 360.119 271.982 358.731C270.595 357.342 269.494 355.694 268.744 353.88C267.994 352.067 267.609 350.123 267.61 348.16C267.61 344.198 269.184 340.398 271.986 337.596C274.788 334.794 278.588 333.22 282.55 333.22H439.46C437.381 337.928 436.307 343.018 436.307 348.165C436.307 353.312 437.381 358.402 439.46 363.11Z" fill="#F5F5F5"/>
<path opacity="0.3" d="M267.61 370.54H199.53C194.756 370.54 190.178 368.644 186.802 365.268C183.426 361.892 181.53 357.314 181.53 352.54V343.65C181.53 338.913 183.411 334.37 186.761 331.021C190.11 327.672 194.653 325.79 199.39 325.79H269.3C253.11 335.61 254.32 359.11 267.61 370.54Z" fill="black"/>
<path d="M420.4 349.55C420.4 349.7 388.19 349.82 348.47 349.82C308.75 349.82 276.54 349.7 276.54 349.55C276.54 349.4 308.74 349.28 348.47 349.28C388.2 349.28 420.4 349.4 420.4 349.55Z" fill="#263238"/>
<path d="M435.2 356.19C435.2 356.34 402.99 356.46 363.27 356.46C323.55 356.46 291.34 356.34 291.34 356.19C291.34 356.04 323.54 355.93 363.27 355.93C403 355.93 435.2 356.05 435.2 356.19Z" fill="#263238"/>
<path d="M430.84 340.13C430.84 340.28 398.63 340.4 358.91 340.4C319.19 340.4 286.97 340.28 286.97 340.13C286.97 339.98 319.17 339.86 358.91 339.86C398.65 339.86 430.84 340 430.84 340.13Z" fill="#263238"/>
<path d="M259.73 367.4C259.73 367.55 244.65 367.67 226.06 367.67C207.47 367.67 192.39 367.55 192.39 367.4C192.39 367.25 207.46 367.13 226.06 367.13C244.66 367.13 259.73 367.25 259.73 367.4Z" fill="#263238"/>
<path d="M259.73 329.51C259.73 329.66 244.65 329.78 226.06 329.78C207.47 329.78 192.39 329.66 192.39 329.51C192.39 329.36 207.46 329.24 226.06 329.24C244.66 329.24 259.73 329.36 259.73 329.51Z" fill="#263238"/>
<path d="M161.54 401.94H276.43V459.56H161.54C156.859 459.56 152.369 457.7 149.059 454.39C145.749 451.08 143.89 446.591 143.89 441.91V419.59C143.89 414.909 145.749 410.42 149.059 407.11C152.369 403.8 156.859 401.94 161.54 401.94Z" fill="#FF8927"/>
<path d="M247.72 401.94H480.15C480.927 401.94 481.672 402.249 482.222 402.798C482.771 403.348 483.08 404.093 483.08 404.87V408.58C483.08 409.357 482.771 410.102 482.222 410.652C481.672 411.201 480.927 411.51 480.15 411.51H247.72V401.94Z" fill="#FF8927"/>
<path d="M247.72 450H480.15C480.927 450 481.672 450.309 482.222 450.858C482.771 451.408 483.08 452.153 483.08 452.93V456.64C483.08 457.417 482.771 458.162 482.222 458.712C481.672 459.261 480.927 459.57 480.15 459.57H247.72V450Z" fill="#FF8927"/>
<path d="M476.06 450H274C268.896 449.997 264.002 447.968 260.394 444.358C256.787 440.748 254.76 435.854 254.76 430.75C254.76 428.223 255.257 425.721 256.224 423.387C257.191 421.053 258.608 418.932 260.395 417.145C262.182 415.359 264.303 413.941 266.637 412.975C268.971 412.008 271.473 411.51 274 411.51H476.06C473.379 417.572 471.995 424.127 471.995 430.755C471.995 437.383 473.379 443.938 476.06 450Z" fill="#F5F5F5"/>
<path opacity="0.3" d="M254.74 459.56H161.31C159.023 459.56 156.758 459.109 154.645 458.234C152.532 457.358 150.612 456.075 148.996 454.457C147.379 452.839 146.097 450.919 145.222 448.806C144.348 446.692 143.899 444.427 143.9 442.14V420C143.9 415.226 145.796 410.648 149.172 407.272C152.548 403.896 157.126 402 161.9 402H256.9C236.07 414.58 237.63 444.85 254.74 459.56Z" fill="black"/>
<path d="M451.51 432.54C451.51 432.69 410.03 432.81 358.88 432.81C307.73 432.81 266.24 432.69 266.24 432.54C266.24 432.39 307.71 432.27 358.88 432.27C410.05 432.27 451.51 432.39 451.51 432.54Z" fill="#263238"/>
<path d="M470.58 441.09C470.58 441.24 429.1 441.36 377.94 441.36C326.78 441.36 285.3 441.24 285.3 441.09C285.3 440.94 326.77 440.83 377.94 440.83C429.11 440.83 470.58 441 470.58 441.09Z" fill="#263238"/>
<path d="M465 424.6C465 424.75 423.53 424.87 372.37 424.87C321.21 424.87 279.73 424.75 279.73 424.6C279.73 424.45 321.2 424.33 372.37 424.33C423.54 424.33 465 424.45 465 424.6Z" fill="#263238"/>
<path d="M244.59 455.52C244.59 455.67 225.18 455.79 201.23 455.79C177.28 455.79 157.87 455.67 157.87 455.52C157.87 455.37 177.28 455.26 201.23 455.26C225.18 455.26 244.59 455.38 244.59 455.52Z" fill="#263238"/>
<path d="M244.59 406.73C244.59 406.87 225.18 406.99 201.23 406.99C177.28 406.99 157.87 406.87 157.87 406.73C157.87 406.59 177.28 406.46 201.23 406.46C225.18 406.46 244.59 406.58 244.59 406.73Z" fill="#263238"/>
<path d="M216.18 369.16H310.84V402.16H216.18C212.732 402.16 209.426 400.79 206.988 398.352C204.55 395.914 203.18 392.608 203.18 389.16V382.16C203.18 378.712 204.55 375.406 206.988 372.968C209.426 370.53 212.732 369.16 216.18 369.16Z" fill="#455A64"/>
<path d="M287.52 369.16H475.68C476.494 369.16 477.275 369.483 477.851 370.059C478.426 370.635 478.75 371.416 478.75 372.23V373.87C478.75 374.684 478.426 375.465 477.851 376.041C477.275 376.617 476.494 376.94 475.68 376.94H287.52V369.17V369.16Z" fill="#455A64"/>
<path d="M287.52 394.38H475.68C476.494 394.38 477.275 394.703 477.851 395.279C478.426 395.855 478.75 396.636 478.75 397.45V399.09C478.75 399.904 478.426 400.685 477.851 401.261C477.275 401.837 476.494 402.16 475.68 402.16H287.52V394.39V394.38Z" fill="#455A64"/>
<path d="M473 394.38H302C299.686 394.38 297.467 393.462 295.83 391.827C294.193 390.192 293.272 387.974 293.27 385.66C293.27 383.345 294.19 381.124 295.827 379.487C297.464 377.85 299.684 376.93 302 376.93H473C468.626 382.75 468.626 388.567 473 394.38Z" fill="#F5F5F5"/>
<path opacity="0.3" d="M293.22 402.15H216.22C214.5 402.15 212.797 401.811 211.208 401.153C209.619 400.494 208.176 399.529 206.96 398.312C205.745 397.096 204.781 395.652 204.123 394.062C203.466 392.473 203.129 390.77 203.13 389.05V382.53C203.129 380.775 203.473 379.036 204.144 377.414C204.815 375.792 205.799 374.318 207.039 373.077C208.28 371.835 209.753 370.85 211.375 370.178C212.996 369.506 214.735 369.16 216.49 369.16H295C278.05 376.4 279.32 393.73 293.22 402.15Z" fill="black"/>
<path d="M453.09 384.28C453.09 384.43 419.39 384.55 377.83 384.55C336.27 384.55 302.57 384.43 302.57 384.28C302.57 384.13 336.26 384.02 377.83 384.02C419.4 384.02 453.09 384.14 453.09 384.28Z" fill="#263238"/>
<path d="M468.58 389C468.58 389.15 434.88 389.27 393.32 389.27C351.76 389.27 318.06 389.15 318.06 389C318.06 388.85 351.75 388.73 393.32 388.73C434.89 388.73 468.58 388.83 468.58 389Z" fill="#263238"/>
<path d="M285 398.87C285 399.02 269.23 399.14 249.77 399.14C230.31 399.14 214.54 399.02 214.54 398.87C214.54 398.72 230.31 398.6 249.77 398.6C269.23 398.6 285 398.72 285 398.87Z" fill="#263238"/>
<path d="M285 373.05C285 373.2 269.23 373.31 249.77 373.31C230.31 373.31 214.54 373.2 214.54 373.05C214.54 372.9 230.31 372.78 249.77 372.78C269.23 372.78 285 372.9 285 373.05Z" fill="#263238"/>
<path d="M476.5 369.16C476.5 369.31 418.63 369.43 347.27 369.43C275.91 369.43 218 369.31 218 369.16C218 369.01 275.85 368.89 347.24 368.89C418.63 368.89 476.5 369 476.5 369.16Z" fill="#263238"/>
<path d="M372.73 339.64V357.56L378.94 353.58L385.86 357.56V339.64H372.73Z" fill="#FF8927"/>
<path d="M435.84 161.77L404.57 187.82L357.01 281.78L386.66 295.18L432.92 203.03L435.84 161.77Z" fill="#FF8927"/>
<g opacity="0.7">
<path d="M432.92 203C432.558 203.09 432.179 203.094 431.815 203.013C431.451 202.933 431.11 202.769 430.819 202.534C430.529 202.3 430.297 202.002 430.141 201.663C429.985 201.324 429.909 200.953 429.92 200.58C428.933 201.728 427.612 202.538 426.141 202.897C424.67 203.255 423.124 203.143 421.72 202.577C420.316 202.01 419.125 201.018 418.314 199.74C417.503 198.462 417.114 196.961 417.2 195.45C415.882 196.159 414.399 196.506 412.904 196.453C411.408 196.401 409.953 195.952 408.688 195.152C407.423 194.352 406.394 193.23 405.705 191.902C405.017 190.573 404.694 189.085 404.77 187.59L435.77 161.74L432.92 203Z" fill="white"/>
</g>
<path d="M423.26 172.25C423.26 172.25 423.74 180.03 434.64 178.67L435.84 161.77L423.26 172.25Z" fill="#FF8927"/>
<path opacity="0.3" d="M417.24 195.48L371.39 287.77L357.01 281.77L404.57 187.77L404.81 187.57C404.739 188.823 404.958 190.076 405.45 191.23C406.107 192.746 407.173 194.048 408.53 194.99C410.195 196.128 412.218 196.622 414.22 196.38C415.273 196.267 416.297 195.962 417.24 195.48Z" fill="black"/>
<path opacity="0.3" d="M430 200.61L382.9 293.46L386.7 295.18L432.92 203C432.293 203.114 431.646 202.991 431.104 202.655C430.563 202.318 430.166 201.793 429.99 201.18C429.975 200.99 429.978 200.799 430 200.61Z" fill="black"/>
<path d="M417 186.52C416.902 186.635 416.846 186.779 416.84 186.93C416.842 187.148 416.924 187.358 417.072 187.519C417.22 187.68 417.422 187.78 417.64 187.8C418.349 187.831 419.05 187.635 419.64 187.24C420.013 187.021 420.31 186.693 420.49 186.3C420.589 186.087 420.633 185.853 420.618 185.618C420.602 185.384 420.527 185.158 420.4 184.96C420.235 184.755 420.028 184.588 419.794 184.469C419.56 184.35 419.303 184.282 419.04 184.27C418.462 184.219 417.879 184.253 417.31 184.37C416.037 184.582 414.821 185.055 413.74 185.76C413.451 185.938 413.204 186.175 413.014 186.456C412.824 186.737 412.697 187.056 412.64 187.39C412.625 187.74 412.697 188.088 412.848 188.404C413 188.72 413.227 188.993 413.51 189.2C414.167 189.578 414.893 189.82 415.645 189.913C416.398 190.006 417.161 189.947 417.89 189.74C419.337 189.436 420.672 188.739 421.75 187.727C422.828 186.714 423.606 185.425 424 184C424.067 183.685 424.061 183.358 423.981 183.046C423.901 182.734 423.75 182.444 423.54 182.2C423.116 181.746 422.587 181.403 422 181.2C420.944 180.813 419.834 180.59 418.71 180.54C417.071 180.454 415.432 180.699 413.89 181.26C413.35 181.46 412.89 181.65 412.66 181.78C412.43 181.91 412.24 181.98 412.24 181.98C412.751 181.656 413.294 181.384 413.86 181.17C415.406 180.579 417.056 180.31 418.71 180.38C419.856 180.419 420.99 180.635 422.07 181.02C422.688 181.232 423.244 181.593 423.69 182.07C423.925 182.341 424.095 182.662 424.185 183.009C424.275 183.356 424.284 183.719 424.21 184.07C423.693 185.926 422.551 187.546 420.976 188.656C419.402 189.766 417.492 190.297 415.57 190.16C414.783 190.119 414.023 189.856 413.38 189.4C413.058 189.178 412.798 188.878 412.623 188.528C412.448 188.179 412.365 187.791 412.38 187.4C412.442 187.035 412.581 186.687 412.788 186.38C412.995 186.073 413.265 185.814 413.58 185.62C414.689 184.901 415.935 184.421 417.24 184.21C417.83 184.099 418.433 184.072 419.03 184.13C419.314 184.147 419.591 184.225 419.843 184.357C420.095 184.49 420.315 184.675 420.49 184.9C420.628 185.121 420.709 185.373 420.725 185.634C420.741 185.894 420.691 186.154 420.58 186.39C420.386 186.809 420.069 187.158 419.67 187.39C419.061 187.782 418.343 187.968 417.62 187.92C417.386 187.897 417.169 187.787 417.013 187.61C416.857 187.434 416.774 187.205 416.78 186.97C416.83 186.6 417 186.51 417 186.52Z" fill="white"/>
<path d="M433.78 186C433.78 186 433.32 185.93 432.5 186C431.332 186.077 430.19 186.382 429.14 186.9C427.595 187.692 426.146 188.658 424.82 189.78C423.206 191.2 421.368 192.342 419.38 193.16C417.33 193.865 415.117 193.948 413.02 193.4C411.312 192.949 409.743 192.084 408.45 190.88C407.575 190.05 406.847 189.075 406.3 188C406.092 187.623 405.918 187.228 405.78 186.82C405.837 186.913 405.887 187.01 405.93 187.11C406.02 187.31 406.17 187.6 406.37 187.96C406.956 188.971 407.694 189.885 408.56 190.67C409.843 191.838 411.391 192.675 413.07 193.11C415.131 193.628 417.299 193.538 419.31 192.85C421.272 192.044 423.089 190.922 424.69 189.53C426.029 188.403 427.5 187.443 429.07 186.67C430.138 186.151 431.303 185.862 432.49 185.82C432.926 185.825 433.359 185.885 433.78 186Z" fill="white"/>
<path d="M433.6 195.37C433.027 194.789 432.264 194.434 431.45 194.37C429.474 194.353 427.507 194.643 425.62 195.23C423.708 195.745 421.846 196.435 420.06 197.29C419.37 197.62 418.83 197.91 418.45 198.1C418.263 198.219 418.066 198.319 417.86 198.4C418.034 198.264 418.218 198.14 418.41 198.03C418.77 197.81 419.31 197.49 419.99 197.15C421.766 196.242 423.633 195.525 425.56 195.01C426.619 194.72 427.694 194.493 428.78 194.33C429.667 194.168 430.572 194.131 431.47 194.22C432.082 194.285 432.664 194.521 433.15 194.9C433.322 195.034 433.473 195.192 433.6 195.37Z" fill="white"/>
<path d="M420.62 202C420.924 201.684 421.259 201.399 421.62 201.15C422.511 200.495 423.535 200.045 424.62 199.83C425.163 199.719 425.724 199.731 426.262 199.864C426.8 199.997 427.302 200.249 427.73 200.6C427.985 200.816 428.198 201.077 428.36 201.37C428.42 201.475 428.461 201.59 428.48 201.71C428.249 201.336 427.962 200.998 427.63 200.71C427.207 200.391 426.72 200.166 426.203 200.051C425.685 199.935 425.149 199.931 424.63 200.04C423.588 200.259 422.6 200.68 421.72 201.28C421.368 201.541 421 201.782 420.62 202Z" fill="white"/>
<path d="M434.6 180.35C434.555 180.399 434.505 180.443 434.45 180.48C434.35 180.55 434.2 180.66 433.99 180.79C433.746 180.962 433.471 181.085 433.18 181.15C432.787 181.22 432.382 181.196 432 181.08C431.15 180.89 430.2 180.46 429.13 180.08C427.97 179.686 426.779 179.388 425.57 179.19C423.355 178.869 421.118 178.718 418.88 178.74H416.88C416.631 178.765 416.379 178.765 416.13 178.74L416.88 178.68L418.88 178.61C421.127 178.539 423.376 178.67 425.6 179C426.826 179.194 428.031 179.502 429.2 179.92C430.28 180.3 431.2 180.74 432.04 180.92C432.353 181.033 432.688 181.073 433.019 181.037C433.35 181 433.669 180.889 433.95 180.71C434.16 180.579 434.377 180.459 434.6 180.35Z" fill="white"/>
<path d="M467.74 265.27V347.18C467.76 347.337 467.836 347.482 467.955 347.587C468.074 347.692 468.227 347.75 468.385 347.75C468.544 347.75 468.697 347.692 468.815 347.587C468.934 347.482 469.011 347.337 469.03 347.18V265.27C469.011 265.113 468.934 264.968 468.815 264.863C468.697 264.758 468.544 264.7 468.385 264.7C468.227 264.7 468.074 264.758 467.955 264.863C467.836 264.968 467.76 265.113 467.74 265.27Z" fill="#FF8927"/>
<path d="M473 329.13C473 330.044 472.729 330.937 472.222 331.697C471.714 332.457 470.992 333.049 470.148 333.398C469.304 333.748 468.375 333.839 467.479 333.661C466.583 333.483 465.76 333.043 465.113 332.397C464.467 331.751 464.027 330.928 463.849 330.031C463.671 329.135 463.762 328.206 464.112 327.362C464.462 326.518 465.054 325.796 465.814 325.289C466.573 324.781 467.467 324.51 468.38 324.51C469.606 324.51 470.781 324.997 471.647 325.863C472.513 326.73 473 327.905 473 329.13Z" fill="#FF8927"/>
<path d="M467.1 331.52C467.1 331.52 463.73 334.89 462.72 344.76C461.71 354.63 461.49 359.56 461.49 359.56L470.57 360.12V353.06C470.57 353.39 472.37 358.33 472.37 358.33L479.55 355.97C479.55 355.97 477 329.73 467.1 331.52Z" fill="#FF8927"/>
<path d="M419.87 271.97H265.67V327.56H419.87V271.97Z" fill="#263238"/>
<path d="M474.03 262.41H210.28V271.98H474.03V262.41Z" fill="#263238"/>
<path opacity="0.3" d="M265.67 311.79C265.67 311.79 312.51 294.99 342.77 288.79C373.03 282.59 419.87 284.65 419.87 284.65V272H265.67V311.79Z" fill="black"/>
<path opacity="0.3" d="M305.68 262.41H210.28V271.98H305.68V262.41Z" fill="black"/>
<path d="M472.12 272C472.12 272.15 413.47 272.27 341.12 272.27C268.77 272.27 210.12 272.15 210.12 272C210.12 271.85 268.75 271.74 341.12 271.74C413.49 271.74 472.12 271.83 472.12 272Z" fill="#455A64"/>
<path d="M305.53 272.05C305.17 268.82 305.17 265.56 305.53 262.33C305.877 265.561 305.877 268.819 305.53 272.05Z" fill="#455A64"/>
<path d="M327.52 327.57C327.38 327.57 327.26 316.72 327.26 303.34C327.26 289.96 327.38 279.12 327.52 279.12C327.66 279.12 327.79 289.96 327.79 303.34C327.79 316.72 327.67 327.57 327.52 327.57Z" fill="#455A64"/>
<path d="M104.45 395.84L122.18 388.68L135.72 353.31L153.77 362.61C153.77 362.61 152.03 366.1 148.3 374.75C146.85 378.08 142.08 387.39 140.14 391.92C138.345 396.108 135.387 399.695 131.618 402.255C127.849 404.816 123.425 406.244 118.87 406.37L102.23 406.8L104.45 395.84Z" fill="#FFBF9D"/>
<path d="M95.6401 389L93.0001 386.18C92.4871 385.844 91.8833 385.673 91.2701 385.69L82.7901 385.95C81.9984 386.026 81.2341 386.28 80.5538 386.692C79.8735 387.104 79.2946 387.664 78.8601 388.33L75.7701 393.58C75.7701 393.58 73.7001 397.17 73.9601 398.05C74.0759 398.415 74.3229 398.725 74.6534 398.919C74.984 399.113 75.3747 399.177 75.7501 399.1C75.7501 399.1 76.0501 400.76 76.6001 401.1C76.9185 401.26 77.266 401.354 77.6218 401.377C77.9775 401.399 78.3342 401.349 78.6701 401.23C78.816 401.545 79.0533 401.809 79.3511 401.987C79.6489 402.165 79.9935 402.25 80.3401 402.23C80.4888 402.216 80.636 402.189 80.7801 402.15C81.7801 401.84 82.2401 399.89 82.2401 399.89L86.5401 399.1C86.5401 399.1 92.7201 403.23 94.9001 405.93C97.0801 408.63 102.78 406.57 102.78 406.57L104.91 396.37L95.6401 389Z" fill="#FFBF9D"/>
<path d="M89.39 390.21C88.7868 390.397 88.1611 390.501 87.53 390.52C86.36 390.65 84.71 390.7 82.84 390.94L83.04 390.79C82.7185 391.481 82.351 392.149 81.94 392.79C80.8107 394.582 79.4375 396.207 77.86 397.62C77.2403 398.243 76.5202 398.756 75.73 399.14C75.73 399.07 76.48 398.47 77.6 397.34C79.0706 395.878 80.3752 394.258 81.49 392.51C81.9 391.84 82.27 391.18 82.58 390.51L82.64 390.38H82.78C84.69 390.17 86.34 390.19 87.51 390.15C88.137 390.105 88.7671 390.125 89.39 390.21Z" fill="#FF9A6C"/>
<path d="M89.58 394.26C89.0796 394.504 88.5358 394.647 87.98 394.68C86.5989 394.871 85.1952 394.824 83.83 394.54L84.14 394.37C83.9601 394.894 83.7532 395.408 83.52 395.91C82.7468 397.505 81.6622 398.93 80.33 400.1C79.81 400.616 79.1908 401.02 78.51 401.29C79.0035 400.773 79.5243 400.282 80.07 399.82C81.3028 398.621 82.3179 397.217 83.07 395.67C83.3013 395.192 83.5049 394.701 83.68 394.2L83.76 393.98H83.98C85.8255 394.325 87.7093 394.419 89.58 394.26Z" fill="#FF9A6C"/>
<path d="M100.36 396.35L92.79 392.83C91.7741 392.265 90.6488 391.924 89.49 391.83C88.2505 391.939 87.0545 392.34 86 393L81.92 395.1C81.7 395.22 81.46 395.36 81.39 395.59C81.32 395.82 81.51 396.22 81.74 396.45C82.7931 397.446 84.1714 398.028 85.62 398.087C87.0686 398.145 88.4895 397.678 89.62 396.77C90.1724 398.572 91.0353 400.264 92.17 401.77C92.7502 402.525 93.515 403.117 94.3908 403.49C95.2666 403.863 96.2238 404.004 97.17 403.9" fill="#FFBF9D"/>
<path d="M97.1502 404C97.0873 404.031 97.0197 404.051 96.9502 404.06C96.7472 404.11 96.5392 404.137 96.3302 404.14C95.5358 404.143 94.7528 403.951 94.0502 403.58C92.9618 403.011 92.0388 402.17 91.3702 401.14C90.5403 399.817 89.869 398.4 89.3702 396.92L89.7502 397.01C89.1428 397.52 88.4403 397.905 87.6833 398.142C86.9264 398.378 86.13 398.463 85.3402 398.39C84.4815 398.331 83.6441 398.096 82.8802 397.7C82.489 397.493 82.1232 397.241 81.7902 396.95C81.6097 396.801 81.4455 396.633 81.3002 396.45C81.2059 396.336 81.1382 396.202 81.1018 396.059C81.0655 395.915 81.0615 395.765 81.0902 395.62C81.1227 395.501 81.1794 395.389 81.2569 395.293C81.3343 395.197 81.4307 395.117 81.5402 395.06C81.7202 394.95 81.8702 394.88 82.0302 394.79L82.9702 394.31L84.8202 393.31C85.9694 392.637 87.1947 392.103 88.4702 391.72C89.6947 391.499 90.9578 391.693 92.0602 392.27C93.0602 392.73 94.0602 393.19 94.8602 393.6L98.8602 395.6C99.3627 395.826 99.8475 396.09 100.31 396.39C99.781 396.233 99.2659 396.032 98.7702 395.79L94.6702 393.98L91.8502 392.72C90.8336 392.199 89.6718 392.033 88.5502 392.25C87.3198 392.635 86.1385 393.162 85.0302 393.82L83.1902 394.82L82.2502 395.31C81.9302 395.47 81.5902 395.63 81.5702 395.79C81.5502 395.95 81.8002 396.34 82.1102 396.59C82.4155 396.855 82.7511 397.084 83.1102 397.27C83.8095 397.632 84.5748 397.85 85.3602 397.91C86.8212 398.052 88.2795 397.614 89.4202 396.69L89.6802 396.47L89.7902 396.79C90.2563 398.245 90.8835 399.644 91.6602 400.96C92.2723 401.958 93.1249 402.787 94.1402 403.37C95.0628 403.863 96.1073 404.082 97.1502 404Z" fill="#FF9A6C"/>
<path d="M198.8 297.27C198.87 291.59 199.8 285.93 199.54 280.27C199.28 274.61 197.83 268.68 193.87 264.61C189.91 260.54 183 259 178.4 262.25L177.4 267.09C179.22 288.99 178.98 311.24 180.8 333.14C181.04 336.02 183.37 338.63 184.68 341.2C185.99 343.77 188.62 345.9 191.5 345.72C195.27 345.49 197.74 341.67 198.91 338.07C203.21 325.06 198.63 311 198.8 297.27Z" fill="#263238"/>
<path d="M185.14 267.82C184.382 266.377 183.407 265.059 182.25 263.91C181.666 263.339 180.961 262.907 180.187 262.647C179.413 262.388 178.59 262.306 177.78 262.41C177.399 262.457 177.036 262.602 176.726 262.829C176.416 263.057 176.169 263.36 176.01 263.71C175.76 264.43 176.3 265.4 177.06 265.33L177.22 265.47C178.92 266.977 180.65 268.447 182.41 269.88C182.83 270.272 183.323 270.578 183.86 270.78C184.13 270.879 184.423 270.899 184.704 270.839C184.985 270.779 185.244 270.64 185.45 270.44C186.08 269.74 185.62 268.63 185.14 267.82Z" fill="#FF8927"/>
<path d="M188.35 273.4C182.69 266.48 175.09 262.49 166.15 262.4C161.15 262.31 159.02 263.4 155.39 264.34C151.755 265.218 148.543 267.34 146.31 270.34C143.74 273.99 141.58 278.08 141.09 282.53C140.449 287.077 140.232 291.673 140.44 296.26C140.65 300.869 142.131 305.331 144.72 309.15L156.36 311.15C162.79 311.37 169.31 311.58 175.58 310.15C181.85 308.72 187.93 305.31 191.28 299.82C195.94 292.14 194 280.31 188.35 273.4Z" fill="#263238"/>
<path d="M178 273.32L162.48 267.15L158.42 267.62C149.3 267.62 143 277.72 142.94 285.1C142.88 293.32 143.12 303.34 144.42 309.39C147.05 321.56 157.42 322.57 157.42 322.57C157.42 322.57 157.21 329.06 157.13 333.14L180.9 331.43L182.09 277.49C182.054 276.409 181.614 275.381 180.857 274.609C180.099 273.837 179.08 273.377 178 273.32Z" fill="#FFBF9D"/>
<path d="M162.67 306.54C162.574 305.918 162.254 305.352 161.77 304.95C161.33 304.571 160.777 304.347 160.197 304.312C159.617 304.278 159.042 304.435 158.56 304.76C158.06 305.145 157.671 305.657 157.434 306.242C157.197 306.827 157.12 307.465 157.21 308.09C157.477 308.465 157.822 308.779 158.22 309.01C158.619 309.241 159.062 309.384 159.52 309.43C159.663 309.44 159.807 309.44 159.95 309.43C160.692 309.445 161.41 309.169 161.95 308.66C162.222 308.383 162.427 308.049 162.552 307.682C162.677 307.315 162.717 306.925 162.67 306.54Z" fill="#FF9A6C"/>
<path d="M147.05 295.49C147.066 295.901 147.242 296.29 147.541 296.572C147.841 296.855 148.239 297.008 148.65 297C148.851 297.004 149.051 296.968 149.239 296.894C149.426 296.82 149.597 296.71 149.741 296.569C149.885 296.429 150 296.261 150.079 296.076C150.157 295.89 150.199 295.691 150.2 295.49C150.179 295.079 150 294.692 149.7 294.41C149.399 294.128 149.002 293.974 148.59 293.98C148.389 293.976 148.19 294.012 148.003 294.086C147.816 294.16 147.646 294.271 147.503 294.412C147.359 294.552 147.246 294.72 147.168 294.905C147.09 295.09 147.05 295.289 147.05 295.49Z" fill="#263238"/>
<path d="M145.72 289.21C145.92 289.4 147.07 288.46 148.72 288.37C150.37 288.28 151.72 289.06 151.88 288.84C152.04 288.62 151.74 288.38 151.18 288.02C150.419 287.552 149.532 287.332 148.64 287.39C147.76 287.434 146.916 287.756 146.23 288.31C145.77 288.74 145.61 289.12 145.72 289.21Z" fill="#263238"/>
<path d="M156.6 302.5C155.693 302.262 154.758 302.144 153.82 302.15C153.39 302.15 152.97 302.07 152.88 301.77C152.826 301.328 152.902 300.879 153.1 300.48C153.45 299.41 153.82 298.29 154.2 297.11C155.72 292.33 156.8 288.4 156.6 288.34C156.4 288.28 155.02 292.11 153.5 296.9L152.5 300.28C152.254 300.816 152.208 301.423 152.37 301.99C152.439 302.139 152.542 302.27 152.671 302.372C152.799 302.475 152.95 302.546 153.11 302.58C153.353 302.632 153.602 302.652 153.85 302.64C154.769 302.702 155.692 302.655 156.6 302.5Z" fill="#263238"/>
<path d="M157.4 322.56C163.186 322.331 168.794 320.5 173.6 317.27C173.6 317.27 169.69 326.02 157.34 325.55L157.4 322.56Z" fill="#FF9A6C"/>
<path d="M161.65 303.39C161.38 303.39 161.47 305.23 159.97 306.62C158.47 308.01 156.5 307.92 156.5 308.18C156.5 308.44 156.96 308.51 157.78 308.49C158.861 308.447 159.893 308.022 160.69 307.29C161.453 306.591 161.916 305.623 161.98 304.59C162 303.82 161.78 303.38 161.65 303.39Z" fill="#263238"/>
<path d="M146.29 283.28C146.6 283.67 147.88 283.33 149.4 283.37C150.92 283.41 152.2 283.74 152.52 283.37C152.66 283.18 152.47 282.79 151.92 282.37C151.176 281.887 150.307 281.633 149.42 281.64C148.533 281.616 147.658 281.849 146.9 282.31C146.35 282.69 146.16 283.08 146.29 283.28Z" fill="#263238"/>
<path d="M165.54 295.07C165.548 295.481 165.396 295.878 165.116 296.179C164.836 296.48 164.45 296.659 164.04 296.68C163.84 296.699 163.638 296.678 163.446 296.618C163.255 296.559 163.077 296.461 162.923 296.332C162.769 296.202 162.643 296.043 162.551 295.865C162.46 295.686 162.405 295.49 162.39 295.29C162.381 294.88 162.532 294.482 162.809 294.181C163.087 293.879 163.471 293.696 163.88 293.67C164.081 293.651 164.284 293.672 164.477 293.732C164.671 293.793 164.85 293.891 165.004 294.021C165.159 294.152 165.286 294.312 165.378 294.492C165.47 294.672 165.525 294.868 165.54 295.07Z" fill="#263238"/>
<path d="M168.64 288.55C168.45 288.76 167.24 287.9 165.54 287.93C163.84 287.96 162.62 288.84 162.43 288.63C162.24 288.42 162.53 288.17 163.07 287.76C163.793 287.239 164.659 286.956 165.55 286.95C166.432 286.93 167.298 287.193 168.02 287.7C168.55 288.09 168.74 288.46 168.64 288.55Z" fill="#263238"/>
<path d="M167.62 283.13C167.3 283.52 165.98 283.13 164.41 283.13C162.84 283.13 161.5 283.44 161.19 283.04C161.05 282.85 161.26 282.46 161.83 282.04C162.62 281.577 163.525 281.345 164.44 281.37C165.349 281.36 166.242 281.613 167.01 282.1C167.58 282.54 167.77 282.94 167.62 283.13Z" fill="#263238"/>
<path d="M180 298.11C180 297.2 180.89 294.99 181.79 294.8C184.18 294.29 188.53 294.24 188.91 300.36C189.43 308.73 180.91 307.52 180.91 307.28C180.91 307.04 180.15 301.27 180 298.11Z" fill="#FFBF9D"/>
<path d="M183 304.08C183 304.08 183.15 304.18 183.4 304.27C183.753 304.413 184.147 304.413 184.5 304.27C185.36 303.89 186.02 302.44 185.97 300.93C185.946 300.212 185.761 299.508 185.43 298.87C185.336 298.612 185.18 298.382 184.976 298.199C184.772 298.016 184.526 297.886 184.26 297.82C184.091 297.787 183.915 297.813 183.764 297.895C183.612 297.978 183.494 298.11 183.43 298.27C183.33 298.51 183.43 298.68 183.35 298.69C183.27 298.7 183.16 298.56 183.21 298.21C183.243 298 183.349 297.809 183.51 297.67C183.617 297.575 183.742 297.503 183.878 297.458C184.014 297.414 184.158 297.397 184.3 297.41C184.649 297.452 184.98 297.585 185.261 297.796C185.542 298.006 185.762 298.287 185.9 298.61C186.299 299.313 186.522 300.102 186.55 300.91C186.6 302.6 185.83 304.23 184.65 304.65C184.429 304.73 184.194 304.76 183.96 304.737C183.727 304.715 183.501 304.641 183.3 304.52C183 304.29 183 304.1 183 304.08Z" fill="#FF9A6C"/>
<path d="M182.11 294.82L180 297C170.82 288.21 152.88 266.21 153.89 267.52C158.074 265.965 162.583 265.487 167 266.13C173.83 267.29 186.77 270.71 186.57 278.76C186.37 286.81 182.11 294.82 182.11 294.82Z" fill="#263238"/>
<path d="M194.27 293C194.243 292.836 194.199 292.675 194.14 292.52C193.988 292.065 193.797 291.623 193.57 291.2C192.704 289.651 191.509 288.31 190.07 287.27C187.949 285.746 185.581 284.6 183.07 283.88C180.27 282.97 177.12 282.26 174.02 280.88C171.097 279.662 168.325 278.108 165.76 276.25C163.663 274.731 161.708 273.024 159.92 271.15C158.721 269.883 157.596 268.547 156.55 267.15L155.71 265.99C155.616 265.85 155.509 265.719 155.39 265.6C155.46 265.754 155.544 265.901 155.64 266.04C155.81 266.32 156.06 266.73 156.41 267.24C157.411 268.687 158.51 270.064 159.7 271.36C163.647 275.652 168.478 279.036 173.86 281.28C176.839 282.409 179.873 283.387 182.95 284.21C185.45 284.891 187.817 285.99 189.95 287.46C191.374 288.46 192.575 289.744 193.48 291.23C194 292.32 194.22 293 194.27 293Z" fill="#455A64"/>
<path d="M191.83 294.29C191.857 293.664 191.748 293.04 191.51 292.46C190.879 290.861 189.781 289.488 188.36 288.52C186.233 287.15 183.853 286.222 181.36 285.79C178.377 285.192 175.47 284.267 172.69 283.03C169.922 281.767 167.322 280.165 164.95 278.26C163.02 276.698 161.245 274.953 159.65 273.05C158.563 271.759 157.561 270.4 156.65 268.98L155.94 267.81C155.867 267.669 155.776 267.538 155.67 267.42C155.726 267.568 155.793 267.712 155.87 267.85L156.51 269.07C157.361 270.527 158.317 271.921 159.37 273.24C160.946 275.193 162.719 276.979 164.66 278.57C167.046 280.513 169.671 282.143 172.47 283.42C175.274 284.671 178.214 285.594 181.23 286.17C183.678 286.578 186.022 287.461 188.13 288.77C189.524 289.688 190.622 290.99 191.29 292.52C191.524 293.092 191.705 293.685 191.83 294.29Z" fill="#455A64"/>
<path d="M181.83 309C181.83 308.94 182.54 308.85 183.78 308.52C185.519 308.018 187.119 307.125 188.46 305.91C190.424 304.072 191.916 301.787 192.81 299.25C193.952 296.158 194.567 292.896 194.63 289.6C194.668 287.897 194.531 286.195 194.22 284.52C193.381 280.308 191.403 276.406 188.5 273.24C186.793 271.428 184.911 269.79 182.88 268.35C182.88 268.35 183.05 268.41 183.35 268.59C183.65 268.77 184.08 269.01 184.61 269.39C186.129 270.432 187.531 271.636 188.79 272.98C190.676 274.972 192.202 277.276 193.3 279.79C193.937 281.281 194.422 282.832 194.75 284.42C195.072 286.131 195.216 287.87 195.18 289.61C195.12 292.968 194.481 296.29 193.29 299.43C192.344 302.027 190.774 304.351 188.72 306.2C187.318 307.42 185.645 308.287 183.84 308.73C183.349 308.841 182.851 308.922 182.35 308.97C182.178 308.994 182.004 309.004 181.83 309Z" fill="#455A64"/>
<path d="M192.48 411.91L143 419.1C124.41 424.36 104.83 425.9 84.3601 424.1L158.83 458.84L188.73 459.3C188.73 459.3 197.83 459.3 199.42 451.36C201.01 443.42 202.78 419.24 202.78 419.24C202.78 419.24 196.87 414.12 192.48 411.91Z" fill="#263238"/>
<g opacity="0.3">
<path d="M192.33 432.74C193.148 437.695 193.443 442.723 193.21 447.74C194.73 446.072 195.849 444.079 196.484 441.913C197.118 439.747 197.25 437.465 196.87 435.24C196.44 432.8 195.42 430.11 196.7 427.98C197.56 426.55 199.83 424.91 199.5 423.28C199.5 423.28 197.5 423.28 195.71 423.21C194.26 423.15 191.25 423.06 191.25 423.06C192.545 426.171 192.825 429.611 192.05 432.89" fill="black"/>
</g>
<path d="M157.21 331.1L181.25 328.5L185.65 332.5L168.49 342.6L160.92 346.52L153.44 344.25L151.07 339.79L157.21 331.1Z" fill="#FFBF9D"/>
<path d="M124.8 360.37C124.8 360.37 132.34 345.91 134.2 342.75C137.38 337.36 143.32 334.31 143.32 334.31L157.21 331.1C157.21 331.1 155.77 338.1 164.41 338.54C175.41 339.15 182.24 328.61 182.24 328.61C182.24 328.61 194.78 329.9 198.24 331.35C201.7 332.8 211.5 336.91 212.94 349.93L216.3 371.2L189.8 373.2L190.16 401.52L178.9 410.73C178.9 410.73 146.57 421.86 144.5 422.59C143.5 422.94 143.76 409.2 141.45 397.42L137.09 386.83C135.325 382.6 134.281 378.105 134 373.53C133.83 370.53 133.91 368.23 133.91 368.23C133.91 368.23 127.11 365.9 124.8 360.37Z" fill="#455A64"/>
<path d="M145.68 411.49L190.11 398.16L189.8 373.22L212.42 371.5C212.42 371.5 210.62 384.42 210.35 391.04C209.97 400.57 205.35 413.89 202.35 416.71C199.35 419.53 144.53 422.61 144.53 422.61L145.68 411.49Z" fill="#FFBF9D"/>
<path d="M120.48 419.33C120.694 419.697 121.035 419.973 121.438 420.107C121.841 420.242 122.279 420.225 122.67 420.06C123.67 419.66 123.4 417.64 123.4 417.64L128.13 416.48C128.13 416.48 134.66 420.02 137.13 422.48C139.6 424.94 145.03 422.37 145.03 422.37L146.16 412L136.73 404.71C136.73 404.71 137.31 405.15 136.58 403.71C135.85 402.27 133.13 403.05 133.13 403.05C132.65 402.34 130.82 402.22 130.82 402.22L123.15 403.71C122.372 403.861 121.637 404.185 121.001 404.658C120.364 405.13 119.841 405.739 119.47 406.44L116.6 411.87C116.6 411.87 115.16 415.73 115.51 416.58C115.661 416.932 115.936 417.216 116.283 417.378C116.629 417.54 117.023 417.569 117.39 417.46C117.39 417.46 117.96 419.88 118.61 419.91C119.267 419.829 119.902 419.622 120.48 419.3V419.33Z" fill="#FFBF9D"/>
<path d="M136.37 410.73C136.37 410.81 135.37 410.79 133.69 410.99C131.551 411.263 129.458 411.824 127.47 412.66C126.378 413.126 125.325 413.678 124.32 414.31C123.43 414.9 122.49 415.41 122.24 416.12C122.186 416.273 122.172 416.437 122.2 416.596C122.228 416.755 122.297 416.905 122.4 417.03C122.558 417.238 122.774 417.394 123.02 417.48C123.44 417.61 123.69 417.48 123.71 417.48C123.73 417.48 123.48 417.71 122.97 417.62C122.668 417.553 122.395 417.392 122.19 417.16C122.043 417.002 121.939 416.808 121.89 416.597C121.841 416.387 121.848 416.167 121.91 415.96C122.081 415.494 122.387 415.09 122.79 414.8C123.19 414.49 123.61 414.18 124.08 413.87C126.945 411.994 130.236 410.869 133.65 410.6C134.558 410.496 135.476 410.54 136.37 410.73Z" fill="#FF9A6C"/>
<path d="M137.3 415.62C137.3 415.76 134.14 415.88 130.3 416.4C126.46 416.92 123.38 417.64 123.3 417.5C123.935 417.195 124.607 416.976 125.3 416.85C126.921 416.443 128.563 416.129 130.22 415.91C131.878 415.685 133.547 415.555 135.22 415.52C135.915 415.458 136.615 415.492 137.3 415.62Z" fill="#FF9A6C"/>
<path d="M120.51 419.13C120.429 418.866 120.375 418.595 120.35 418.32C120.247 417.567 120.187 416.809 120.17 416.05C120.161 415.522 120.195 414.993 120.27 414.47C120.363 413.854 120.577 413.263 120.9 412.73C121.565 411.497 122.47 410.409 123.56 409.53C124.639 408.648 125.837 407.924 127.12 407.38C128.183 406.985 129.292 406.727 130.42 406.61C131.42 406.5 132.14 406.47 132.68 406.44C132.955 406.4 133.235 406.4 133.51 406.44C132.521 406.666 131.519 406.833 130.51 406.94C129.422 407.1 128.355 407.381 127.33 407.78C126.1 408.329 124.949 409.042 123.91 409.9C122.874 410.734 121.999 411.75 121.33 412.9C120.796 413.848 120.53 414.923 120.56 416.01C120.48 417.94 120.62 419.13 120.51 419.13Z" fill="#FF9A6C"/>
<path d="M130.6 404.24C130.6 404.32 129.45 404.44 127.6 404.79C125.75 405.14 123 405.55 121.6 408.13C120.171 410.087 119.017 412.23 118.17 414.5C117.906 415.465 117.735 416.453 117.66 417.45C117.567 417.187 117.529 416.908 117.55 416.63C117.532 415.877 117.626 415.125 117.83 414.4C118.591 412.05 119.726 409.839 121.19 407.85C121.579 407.248 122.047 406.699 122.58 406.22C123.095 405.779 123.689 405.439 124.33 405.22C125.382 404.855 126.467 404.597 127.57 404.45C128.567 404.254 129.585 404.183 130.6 404.24Z" fill="#FF9A6C"/>
<path d="M135.27 421C135.097 420.909 134.933 420.802 134.78 420.68L133.41 419.75C131.684 418.613 129.894 417.574 128.05 416.64H128.16L123.44 417.83L123.59 417.61C123.635 418.002 123.635 418.398 123.59 418.79C123.561 419.222 123.404 419.636 123.14 419.98C122.976 420.153 122.763 420.271 122.53 420.32C122.315 420.395 122.087 420.426 121.86 420.41C121.39 420.376 120.948 420.178 120.61 419.85C120.528 419.765 120.451 419.674 120.38 419.58V419.51L120.66 419.59L120.51 419.66C120.316 419.762 120.115 419.852 119.91 419.93C119.701 420.012 119.487 420.082 119.27 420.14C119.156 420.174 119.039 420.197 118.92 420.21C118.768 420.235 118.613 420.218 118.47 420.16C118.242 420.015 118.061 419.807 117.95 419.56C117.839 419.353 117.742 419.14 117.66 418.92C117.492 418.487 117.355 418.043 117.25 417.59L117.54 417.76C117.221 417.858 116.882 417.866 116.559 417.783C116.236 417.7 115.942 417.529 115.71 417.29C115.469 417.035 115.327 416.701 115.31 416.35C115.309 416.034 115.339 415.72 115.4 415.41C115.668 414.206 116.022 413.023 116.46 411.87L117.99 408.97L118.99 407.14C119.287 406.507 119.649 405.907 120.07 405.35C120.528 404.814 121.089 404.376 121.72 404.06C122.335 403.777 122.989 403.589 123.66 403.5L130.88 402.11H130.94C131.384 402.144 131.823 402.224 132.25 402.35C132.703 402.45 133.113 402.692 133.42 403.04L133.14 402.98C133.521 402.769 133.947 402.654 134.383 402.643C134.818 402.633 135.249 402.728 135.64 402.92C136.316 403.347 136.808 404.01 137.02 404.78L136.95 404.69L143.45 409.69L145.2 411.07C145.411 411.223 145.608 411.394 145.79 411.58C145.56 411.461 145.343 411.321 145.14 411.16L143.33 409.85L136.73 404.99H136.68V404.92C136.494 404.25 136.062 403.675 135.47 403.31C135.14 403.152 134.777 403.075 134.411 403.087C134.046 403.1 133.689 403.2 133.37 403.38L133.2 403.46L133.09 403.32C132.836 403.057 132.508 402.875 132.15 402.8C131.751 402.69 131.343 402.619 130.93 402.59H130.99L123.77 404.01C123.14 404.092 122.526 404.271 121.95 404.54C121.382 404.821 120.879 405.216 120.47 405.7C120.076 406.232 119.741 406.806 119.47 407.41L118.47 409.24C117.94 410.24 117.47 411.24 116.94 412.14C116.528 413.269 116.193 414.425 115.94 415.6C115.883 415.873 115.852 416.151 115.85 416.43C115.863 416.67 115.963 416.897 116.13 417.07C116.302 417.242 116.517 417.365 116.753 417.425C116.989 417.484 117.237 417.479 117.47 417.41L117.71 417.35V417.58C117.82 418.01 117.95 418.45 118.1 418.86C118.21 419.235 118.409 419.578 118.68 419.86C118.745 419.879 118.815 419.879 118.88 419.86L119.17 419.8C119.372 419.755 119.57 419.691 119.76 419.61C119.95 419.54 120.14 419.45 120.33 419.36L120.47 419.3L120.76 419.38V419.43C120.815 419.508 120.875 419.581 120.94 419.65C121.126 419.849 121.366 419.99 121.63 420.057C121.894 420.125 122.171 420.115 122.43 420.03C122.59 420.003 122.737 419.926 122.85 419.81C123.203 419.207 123.333 418.499 123.22 417.81V417.63H123.38L128.12 416.51H128.18C130.023 417.469 131.797 418.555 133.49 419.76C134.08 420.19 134.49 420.53 134.82 420.76C134.976 420.829 135.126 420.909 135.27 421Z" fill="#FF9A6C"/>
<path d="M112.17 427.42C112.17 427.42 80.8201 417.57 70.9801 414.42C53.9801 408.92 42.9201 414.48 39.4201 420.54C34.8801 428.41 45.7701 443.76 49.9701 447.29C62.4001 457.74 83.7101 459.15 83.7101 459.15L160.33 459.01L138 428.63L112.17 427.42Z" fill="#263238"/>
<path d="M116.87 441.64C104.102 443.126 91.166 441.365 79.2601 436.52C77.2288 435.602 75.1373 434.823 73.0001 434.19C70.8873 433.657 68.697 433.502 66.5301 433.73C65.6701 433.752 64.8232 433.946 64.0399 434.302C63.2566 434.658 62.5527 435.167 61.9701 435.8C60.4401 437.8 61.2201 440.68 62.0701 443.06C63.0701 445.86 64.0701 448.72 66.0701 450.96C68.3401 453.57 71.6401 455.07 74.9501 456.11C81.4201 458.11 88.2501 458.74 95.0301 459L118.31 457.73L116.87 441.64Z" fill="#E0E0E0"/>
<path d="M71.9102 434.2C72.0631 434.388 72.1816 434.601 72.2602 434.83C72.5306 435.427 72.7384 436.05 72.8802 436.69C73.3828 438.818 73.2945 441.043 72.6248 443.124C71.9551 445.206 70.7294 447.064 69.0802 448.5C68.5892 448.93 68.0604 449.315 67.5002 449.65C67.0902 449.88 66.8602 449.98 66.8402 449.95C66.8202 449.92 67.6802 449.37 68.8402 448.24C70.3621 446.785 71.4967 444.973 72.1411 442.968C72.7855 440.963 72.9192 438.829 72.5302 436.76C72.2502 435.16 71.8302 434.23 71.9102 434.2Z" fill="#263238"/>
<path d="M192.19 425.5C190.37 420.34 190.07 412.76 178.84 409.12C167.61 405.48 159.13 412.46 153.36 414.88C147.59 417.3 116.06 434.6 116.06 434.6C116.06 434.6 110.12 445.19 111.81 449.87C113.5 454.55 121.18 459.17 121.18 459.17H156.45C165.55 459.17 182.45 458.86 182.45 458.86C184.713 455.151 186.74 451.303 188.52 447.34L188.82 445.82C188.85 444.61 194 430.66 192.19 425.5Z" fill="#263238"/>
<path d="M172.65 452.29C172.604 452.469 172.515 452.634 172.39 452.77C172.048 453.166 171.659 453.519 171.23 453.82C169.655 454.906 167.981 455.84 166.23 456.61C165.034 457.168 163.805 457.652 162.55 458.06C161.097 458.517 159.609 458.852 158.1 459.06C154.658 459.403 151.198 459.536 147.74 459.46C140.41 459.58 133.74 459.86 128.94 459.8C126.53 459.8 124.58 459.69 123.24 459.55C122.723 459.505 122.209 459.431 121.7 459.33C121.52 459.308 121.342 459.268 121.17 459.21C121.17 459.16 121.91 459.29 123.25 459.36C124.59 459.43 126.54 459.48 128.94 459.46C133.75 459.46 140.39 459.09 147.74 458.97C151.181 459.044 154.623 458.924 158.05 458.61C159.532 458.428 160.997 458.127 162.43 457.71C163.677 457.325 164.899 456.864 166.09 456.33C167.829 455.598 169.502 454.719 171.09 453.7C171.522 453.411 171.921 453.076 172.28 452.7C172.56 452.46 172.62 452.28 172.65 452.29Z" fill="#263238"/>
<path d="M121.18 459.17L120.71 458.92C120.41 458.75 119.97 458.47 119.4 458.1C117.741 457.018 116.188 455.782 114.76 454.41C113.725 453.418 112.843 452.279 112.14 451.03C111.422 449.466 111.239 447.709 111.62 446.03C112.477 442.01 113.916 438.136 115.89 434.53V434.48C121.67 431.3 128.3 427.69 135.54 423.8C139.16 421.86 142.93 419.85 146.85 417.8C148.85 416.8 150.85 415.8 152.85 414.8C154.85 413.8 156.9 412.8 158.97 411.72C161.83 410.153 164.897 408.998 168.08 408.29C169.643 407.978 171.236 407.834 172.83 407.86C174.39 407.907 175.939 408.128 177.45 408.52C180.379 409.241 183.129 410.555 185.53 412.38C186.647 413.305 187.635 414.374 188.47 415.56C189.237 416.729 189.871 417.98 190.36 419.29C190.86 420.57 191.21 421.86 191.57 423.12C191.982 424.344 192.317 425.593 192.57 426.86C192.727 429.28 192.525 431.71 191.97 434.07C191.52 436.32 190.97 438.42 190.4 440.37C190.12 441.37 189.84 442.3 189.58 443.21C189.32 444.12 189.02 445.02 188.88 445.82C188.76 446.39 188.67 446.82 188.57 447.33C187.607 450.42 186.245 453.372 184.52 456.11C183.909 457.089 183.187 457.995 182.37 458.81L182.5 458.63C182.61 458.5 182.75 458.34 182.92 458.12C183.45 457.453 183.944 456.759 184.4 456.04C186.066 453.285 187.379 450.332 188.31 447.25C188.88 446.77 188.77 446.3 188.6 445.73C188.775 444.818 189.002 443.916 189.28 443.03L190.09 440.2C190.63 438.2 191.17 436.14 191.61 433.91C192.143 431.587 192.331 429.198 192.17 426.82C191.907 425.579 191.573 424.353 191.17 423.15C190.8 421.89 190.44 420.61 189.95 419.36C189.473 418.081 188.852 416.86 188.1 415.72C187.289 414.573 186.327 413.54 185.24 412.65C181.644 409.955 177.311 408.42 172.82 408.25C171.262 408.224 169.706 408.369 168.18 408.68C165.034 409.378 162.004 410.519 159.18 412.07C157.18 413.07 155.18 414.27 153.03 415.16C150.88 416.05 149.03 417.11 147.03 418.16C143.12 420.16 139.34 422.16 135.72 424.16L116.04 434.77L116.11 434.69C114.142 438.254 112.697 442.084 111.82 446.06C111.425 447.682 111.584 449.389 112.27 450.91C112.943 452.148 113.799 453.278 114.81 454.26C116.212 455.643 117.735 456.898 119.36 458.01L120.64 458.87C121 459.06 121.18 459.17 121.18 459.17Z" fill="#263238"/>
<path d="M178.58 446.08C178.58 446.08 189.09 447.34 188.16 452.48C187.23 457.62 183.79 459.35 183.79 459.35L155.23 459.41C155.23 459.41 172.28 458.23 178.58 446.08Z" fill="#E0E0E0"/>
<path d="M179.6 443.59C179.598 444.091 179.489 444.585 179.28 445.04C178.893 446.19 178.319 447.268 177.58 448.23C176.584 449.633 175.191 450.706 173.58 451.31C174.906 450.315 176.123 449.182 177.21 447.93C178.127 446.553 178.926 445.101 179.6 443.59Z" fill="#263238"/>
<path d="M176 445.6C176.017 446.89 175.67 448.158 175 449.26C174.487 450.428 173.702 451.457 172.71 452.26C172.6 452.17 173.63 450.84 174.56 449.01C175.49 447.18 175.82 445.58 176 445.6Z" fill="#263238"/>
<path d="M189.36 457.92C189.28 457.92 189.96 456.58 190.78 454.37C192.933 448.599 193.644 442.389 192.85 436.28C192.54 433.95 192.18 432.52 192.26 432.5C192.418 432.816 192.533 433.153 192.6 433.5C192.847 434.405 193.044 435.323 193.19 436.25C194.191 442.412 193.471 448.731 191.11 454.51C190.754 455.362 190.35 456.193 189.9 457C189.757 457.327 189.576 457.636 189.36 457.92Z" fill="#455A64"/>
<g opacity="0.3">
<path d="M183.42 443.31C183.34 442.62 183.07 441.8 182.42 441.66C181.58 441.49 181.01 442.45 180.68 443.23C177 451.6 165.11 458.13 156 459C160.418 458.99 164.829 458.629 169.19 457.92C172.909 457.363 176.396 455.769 179.25 453.32C180.669 452.085 181.784 450.54 182.507 448.803C183.231 447.067 183.543 445.187 183.42 443.31Z" fill="black"/>
</g>
<path d="M113.84 431.92C112.099 431.431 110.405 430.785 108.78 429.99C107.091 429.35 105.464 428.557 103.92 427.62C105.659 428.112 107.353 428.754 108.98 429.54C110.67 430.183 112.296 430.98 113.84 431.92Z" fill="#263238"/>
<g opacity="0.2">
<path d="M124 427.5C110.4 424.9 96.7501 422.59 83.0501 420.57L72.8501 423.79C75.7101 429.11 81.3601 432.5 87.2301 433.9C93.1001 435.3 99.2301 434.97 105.23 434.42C111.85 433.81 118.65 432.88 124.41 429.56C124.85 429.31 125.35 428.93 125.29 428.42C125.23 427.91 124.59 427.61 124 427.5Z" fill="black"/>
</g>
<path d="M57.0601 387L74.2001 424.9C74.5468 425.672 75.1081 426.329 75.8172 426.792C76.5263 427.254 77.3534 427.504 78.2001 427.51L128.2 428.16L134.5 424.77L124.63 424.05L109.27 387.19C109.031 386.617 108.629 386.126 108.113 385.779C107.598 385.433 106.991 385.245 106.37 385.24L58.4801 384.88C58.2247 384.871 57.9711 384.927 57.7434 385.043C57.5157 385.159 57.3215 385.332 57.1793 385.544C57.037 385.757 56.9514 386.002 56.9305 386.257C56.9097 386.511 56.9543 386.767 57.0601 387Z" fill="#E0E0E0"/>
<path d="M57.06 387C56.9782 386.859 56.9271 386.702 56.91 386.54C56.8784 386.3 56.9045 386.056 56.9863 385.828C57.068 385.6 57.203 385.395 57.38 385.23C57.6533 384.976 58.0076 384.828 58.38 384.81H62.77L82.82 384.88L96.76 384.95L104.55 385H106.55C107.291 385.053 107.993 385.348 108.55 385.84C109.086 386.343 109.483 386.977 109.7 387.68L110.52 389.68C114.89 400.15 119.72 411.73 124.84 423.97L124.6 423.8L134.13 424.5H134.47L135.47 424.57L134.62 425.03L128.32 428.42H128.25H128.18L90.28 427.9L81.82 427.78C80.44 427.78 79.12 427.78 77.75 427.7C77.0657 427.619 76.4075 427.389 75.8218 427.026C75.2361 426.664 74.7371 426.177 74.36 425.6C72.13 420.91 70.27 416.6 68.46 412.6L60.08 393.86C59.08 391.67 58.36 389.96 57.84 388.77C57.59 388.21 57.41 387.77 57.27 387.45C57.13 387.13 57.09 386.99 57.09 386.99C57.1754 387.132 57.2522 387.279 57.32 387.43L57.94 388.73C58.48 389.9 59.26 391.6 60.27 393.73L68.81 412.41C70.62 416.34 72.56 420.76 74.74 425.32C75.0793 425.84 75.5298 426.278 76.0589 426.604C76.5881 426.929 77.1827 427.132 77.8 427.2C79.08 427.26 80.47 427.25 81.8 427.27L90.26 427.37L128.16 427.83H128.02L134.32 424.43L134.44 424.96H134.1L124.57 424.27H124.4L124.33 424.12C119.24 411.86 114.42 400.28 110.06 389.8L109.25 387.85C109.072 387.214 108.726 386.637 108.25 386.18C107.775 385.751 107.169 385.494 106.53 385.45H104.53L96.74 385.38L82.81 385.24L62.74 385H59.6H58.36C58.1619 385.007 57.9674 385.055 57.7883 385.14C57.6093 385.225 57.4493 385.345 57.3184 385.494C57.1874 385.643 57.088 385.817 57.0264 386.005C56.9648 386.194 56.9422 386.393 56.96 386.59C56.9857 386.728 57.0191 386.865 57.06 387Z" fill="#263238"/>
<path d="M123.12 428.09C123.027 427.96 122.95 427.819 122.89 427.67L122.32 426.45C121.82 425.31 121.14 423.77 120.32 421.91C118.65 418.06 116.38 412.74 113.94 406.82C111.5 400.9 109.34 395.53 107.85 391.62C107.1 389.62 106.51 388.07 106.13 386.96C105.95 386.45 105.81 386.03 105.69 385.68C105.634 385.531 105.594 385.377 105.57 385.22C105.662 385.35 105.736 385.491 105.79 385.64L106.31 386.89C106.78 388.05 107.41 389.6 108.17 391.49C109.79 395.43 111.98 400.75 114.39 406.64C116.8 412.53 119.02 417.83 120.64 421.77L122.51 426.37C122.7 426.88 122.86 427.29 122.99 427.63C123.059 427.775 123.103 427.93 123.12 428.09Z" fill="#263238"/>
<path d="M92.1202 405.37C92.1222 405.857 91.9793 406.334 91.7098 406.74C91.4402 407.147 91.0561 407.463 90.6062 407.651C90.1563 407.838 89.6608 407.888 89.1827 407.793C88.7046 407.699 88.2654 407.464 87.9207 407.119C87.5761 406.775 87.3416 406.336 87.247 405.857C87.1524 405.379 87.2019 404.884 87.3894 404.434C87.5768 403.984 87.8936 403.6 88.2997 403.33C88.7058 403.061 89.1828 402.918 89.6702 402.92C90.32 402.92 90.9431 403.178 91.4026 403.638C91.8621 404.097 92.1202 404.72 92.1202 405.37Z" fill="white"/>
<path d="M140.77 344.4C140.85 344.4 140.13 345.79 139.12 348.03C136.477 353.877 134.75 360.097 134 366.47C133.7 368.92 133.62 370.47 133.53 370.47C133.477 370.112 133.477 369.748 133.53 369.39C133.53 368.7 133.53 367.7 133.67 366.46C134.235 360.006 135.992 353.714 138.85 347.9C139.4 346.79 139.85 345.9 140.24 345.32C140.379 344.993 140.557 344.684 140.77 344.4Z" fill="#263238"/>
<path d="M216.3 371.2C216.122 371.255 215.937 371.285 215.75 371.29L214.16 371.44L208.22 371.94L187.91 373.47H187.65V373.21C187.48 370.51 187.3 367.66 187.12 364.74C186.83 359.64 186.58 354.74 186.5 350.35C186.241 346.395 187.141 342.451 189.09 339C190.428 336.673 192.402 334.775 194.78 333.53C195.422 333.208 196.091 332.944 196.78 332.74C197.019 332.665 197.263 332.605 197.51 332.56C197.51 332.64 196.51 332.85 194.86 333.71C192.567 334.998 190.674 336.894 189.39 339.19C187.537 342.606 186.707 346.484 187 350.36C187.1 354.77 187.36 359.63 187.65 364.73C187.83 367.65 188 370.5 188.17 373.19L187.89 372.95L208.22 371.61L214.22 371.26L215.81 371.2H216.3Z" fill="#263238"/>
<path d="M166.47 388.52C166.162 388.46 165.865 388.352 165.59 388.2C165.246 388.056 164.912 387.889 164.59 387.7C164.159 387.468 163.741 387.211 163.34 386.93C162.276 386.212 161.294 385.381 160.41 384.45C159.341 383.297 158.402 382.029 157.61 380.67C156.846 379.296 156.239 377.84 155.8 376.33C155.452 375.097 155.237 373.829 155.16 372.55C155.131 372.06 155.131 371.57 155.16 371.08C155.162 370.709 155.188 370.338 155.24 369.97C155.249 369.652 155.31 369.338 155.42 369.04C155.52 369.04 155.35 370.39 155.56 372.52C155.686 373.764 155.93 374.993 156.29 376.19C156.75 377.654 157.356 379.068 158.1 380.41C158.866 381.733 159.767 382.973 160.79 384.11C161.641 385.031 162.575 385.871 163.58 386.62C165.28 387.89 166.52 388.43 166.47 388.52Z" fill="#263238"/>
</svg>
