<svg width="468" height="482" viewBox="0 0 468 482" fill="none" xmlns="http://www.w3.org/2000/svg">
<path d="M198.09 443.75V483.19H255.77H319.38V443.75H198.09Z" fill="#F5F5F5"/>
<path d="M193 432.72V443.75H323.62V432.72H255.77H193Z" fill="#E0E0E0"/>
<path d="M258.31 483.19H319.38V443.75H323.62V432.72H255.77V442.73L258.31 483.19Z" fill="#E0E0E0"/>
<path d="M239.66 450.11H215.06V456.05H239.66V450.11Z" fill="#E0E0E0"/>
<path d="M243.47 463.47H211.89V476.01H243.47V463.47Z" fill="white"/>
<path d="M207.13 393.33V432.77H264.81H328.42V393.33H207.13Z" fill="#F5F5F5"/>
<path d="M202.62 382.31V393.33H333.24V382.31H265.39H202.62Z" fill="#EBEBEB"/>
<path d="M267.35 432.77H329V393.33H332.66V382.31H264.81V392.31L267.35 432.77Z" fill="#EBEBEB"/>
<path d="M248.69 399.7H224.09V405.64H248.69V399.7Z" fill="#E0E0E0"/>
<path d="M252.51 413.05H220.93V425.59H252.51V413.05Z" fill="white"/>
<path d="M455.35 32.27H307.8V246.13H455.35V32.27Z" fill="#E0E0E0"/>
<path d="M447.96 32.27H300.41V246.13H447.96V32.27Z" fill="#F5F5F5"/>
<path d="M429.62 55.43H318.74V222.97H429.62V55.43Z" fill="white"/>
<path d="M429.62 223C429.62 223 429.62 222.71 429.62 222.18C429.62 221.65 429.62 220.84 429.62 219.8C429.62 217.7 429.62 214.62 429.57 210.61C429.57 202.61 429.57 190.88 429.47 176.1C429.47 146.56 429.37 104.72 429.29 55.46L429.66 55.83H318.79L319.19 55.43C319.19 118.63 319.13 176.91 319.11 222.97L318.79 222.65L399.5 222.82L421.79 222.9H427.65C428.97 222.9 429.65 222.9 429.65 222.9C429.65 222.9 429 222.9 427.7 222.9H421.9L399.68 222.98L318.77 223.15H318.45V223C318.45 176.94 318.4 118.66 318.37 55.46V55H318.78H429.65H430V55.37C429.93 104.73 429.86 146.65 429.82 176.25C429.82 191 429.74 202.67 429.72 210.68C429.72 214.68 429.72 217.68 429.72 219.8C429.72 220.8 429.72 221.59 429.72 222.13C429.72 222.67 429.62 223 429.62 223Z" fill="#E0E0E0"/>
<path d="M448.37 32.27C447.605 33.6164 446.725 34.8945 445.74 36.09C444.02 38.38 441.59 41.5 438.81 44.87C436.03 48.24 433.44 51.23 431.52 53.35C430.541 54.5475 429.456 55.6553 428.28 56.66C429.109 55.3611 430.049 54.1365 431.09 53C433.09 50.6 435.5 47.64 438.2 44.38C440.9 41.12 443.32 38.16 445.29 35.76C446.216 34.5119 447.247 33.3444 448.37 32.27Z" fill="#E0E0E0"/>
<path d="M430.19 222.43C435.702 231.198 442.19 239.314 449.53 246.62L430.19 222.43Z" fill="white"/>
<path d="M449.53 246.62C448.3 245.716 447.168 244.687 446.15 243.55C441.01 238.309 436.417 232.56 432.44 226.39C431.549 225.141 430.795 223.8 430.19 222.39C431.184 223.535 432.094 224.752 432.91 226.03C434.53 228.32 436.82 231.44 439.49 234.78C442.16 238.12 444.7 241.03 446.57 243.12C447.644 244.21 448.634 245.38 449.53 246.62Z" fill="#E0E0E0"/>
<path d="M300.38 246L319.71 222.16L300.38 246Z" fill="white"/>
<path d="M319.71 222.12C319.88 222.26 315.71 227.71 310.36 234.29C305.01 240.87 300.56 246.1 300.36 245.96C300.16 245.82 304.36 240.37 309.72 233.79C315.08 227.21 319.54 222 319.71 222.12Z" fill="#E0E0E0"/>
<path d="M300.41 32.27C300.58 32.13 304.78 37.15 309.79 43.48C314.8 49.81 318.71 55.06 318.54 55.19C318.37 55.32 314.16 50.31 309.16 43.98C304.16 37.65 300.23 32.4 300.41 32.27Z" fill="#E0E0E0"/>
<path d="M395.08 89.45H357.95V194.87H395.08V89.45Z" fill="#E0E0E0"/>
<path d="M93.71 385.77C94.1181 386.788 94.2924 387.885 94.22 388.98C94.4758 387.69 94.971 386.458 95.68 385.35C95.94 384.93 96.36 384.49 96.83 384.61C97.3 384.73 97.46 385.33 97.48 385.82C97.5278 387.179 97.221 388.526 96.59 389.73C97.4669 388.616 98.6033 387.733 99.9 387.16C100.006 387.096 100.125 387.058 100.249 387.049C100.372 387.041 100.496 387.061 100.61 387.11C100.86 387.26 100.87 387.62 100.83 387.91C100.653 389.046 100.186 390.118 99.4754 391.021C98.7643 391.925 97.8326 392.631 96.77 393.07L96.07 393.17C94.5615 392.753 93.2648 391.785 92.4368 390.457C91.6089 389.129 91.3102 387.538 91.6 386C91.71 385.42 92.04 384.74 92.6 384.73C93.16 384.72 93.51 385.28 93.71 385.77Z" fill="#FF8927"/>
<path d="M109.4 417.11C107.361 415.828 105.109 414.92 102.75 414.43C104.152 409.639 104.218 404.556 102.94 399.73C102.489 397.812 101.641 396.01 100.45 394.44C99.8517 393.658 99.0993 393.007 98.2393 392.527C97.3792 392.047 96.4299 391.748 95.45 391.65C94.3907 391.63 93.3408 391.852 92.3794 392.297C91.4181 392.742 90.5703 393.4 89.9 394.22L87.44 399.9C87.2984 400.728 87.2016 401.562 87.15 402.4C86.8616 407.922 88.1003 413.416 90.73 418.28C88.18 421.1 85.41 425.96 86.24 431.59H115.4C115.91 426.19 113.85 420.33 109.4 417.11Z" fill="#455A64"/>
<path d="M89.44 420.09C89.5002 419.975 89.574 419.867 89.66 419.77C89.8887 419.478 90.1323 419.197 90.39 418.93C91.3355 417.948 92.4246 417.115 93.62 416.46C95.3959 415.474 97.3507 414.851 99.37 414.63C101.852 414.327 104.37 414.672 106.68 415.63C108.961 416.651 110.944 418.238 112.44 420.24C113.66 421.863 114.547 423.712 115.05 425.68C115.399 427 115.54 428.366 115.47 429.73C115.455 430.099 115.418 430.466 115.36 430.83C115.354 430.96 115.327 431.088 115.28 431.21C115.386 429.377 115.208 427.538 114.75 425.76C114.22 423.849 113.323 422.059 112.11 420.49C110.67 418.531 108.735 416.99 106.503 416.025C104.272 415.061 101.824 414.707 99.41 415C97.4379 415.204 95.5232 415.784 93.77 416.71C92.1622 417.608 90.7019 418.748 89.44 420.09Z" fill="#263238"/>
<path d="M87 404.48C86.8943 403.842 86.8774 403.193 86.95 402.55C86.9915 400.984 87.2541 399.432 87.73 397.94C88.2162 396.419 89.0756 395.044 90.23 393.94C90.6873 393.478 91.2502 393.135 91.87 392.94C91.87 393 91.26 393.36 90.44 394.2C89.4054 395.313 88.6242 396.636 88.15 398.08C87.6904 399.543 87.392 401.052 87.26 402.58C87.2305 403.22 87.1435 403.856 87 404.48Z" fill="#263238"/>
<path d="M103.86 427.89C104.698 426.892 105.611 425.959 106.59 425.1C107.459 424.135 108.398 423.236 109.4 422.41C108.725 423.532 107.882 424.544 106.9 425.41C106.018 426.386 104.993 427.222 103.86 427.89Z" fill="#263238"/>
<path d="M100.61 426.19C100.632 425.209 100.794 424.236 101.09 423.3C101.249 422.33 101.552 421.39 101.99 420.51C101.826 422.463 101.36 424.379 100.61 426.19Z" fill="#263238"/>
<path d="M92 423C93.3453 424.607 94.2269 426.55 94.55 428.62C94.0464 427.721 93.6118 426.785 93.25 425.82C92.7598 424.914 92.3418 423.971 92 423Z" fill="#263238"/>
<path d="M101.32 409.34C101.859 408.26 102.531 407.253 103.32 406.34C103.978 405.344 104.761 404.437 105.65 403.64C105.103 404.715 104.432 405.722 103.65 406.64C102.986 407.631 102.204 408.538 101.32 409.34Z" fill="#263238"/>
<path d="M99.26 400.22C99.8781 398.931 100.625 397.708 101.49 396.57C102.242 395.353 103.113 394.214 104.09 393.17C103.474 394.46 102.727 395.683 101.86 396.82C101.111 398.039 100.24 399.178 99.26 400.22Z" fill="#263238"/>
<path d="M96 402.61C96.2755 403.617 96.4135 404.656 96.41 405.7C96.5544 406.735 96.5544 407.785 96.41 408.82C96.1224 407.816 95.9809 406.775 95.99 405.73C95.8451 404.695 95.8484 403.644 96 402.61Z" fill="#263238"/>
<path d="M82.88 406.76C84.332 407.298 85.715 408.006 87 408.87C88.3593 409.621 89.6248 410.531 90.77 411.58C89.3831 410.899 88.0464 410.121 86.77 409.25C85.4187 408.509 84.1191 407.677 82.88 406.76Z" fill="#263238"/>
<g opacity="0.3">
<path d="M93.38 414.61C94.8361 413.846 96.4554 413.444 98.1 413.44C99.8 413.36 101.7 413.53 102.85 414.78V414.84C98.5266 414.572 94.2555 415.903 90.85 418.58C90.8884 417.755 91.1421 416.954 91.586 416.258C92.0299 415.561 92.6484 414.993 93.38 414.61Z" fill="black"/>
</g>
<path d="M107.23 357.36C108.065 357.132 108.94 357.098 109.79 357.26C108.804 356.936 107.886 356.434 107.08 355.78C106.78 355.53 106.48 355.16 106.61 354.78C106.74 354.4 107.24 354.36 107.61 354.39C108.685 354.476 109.719 354.841 110.61 355.45C109.828 354.66 109.248 353.692 108.92 352.63C108.875 352.542 108.852 352.444 108.852 352.345C108.852 352.246 108.875 352.148 108.92 352.06C109.06 351.88 109.34 351.91 109.56 351.97C110.431 352.216 111.224 352.682 111.863 353.323C112.503 353.964 112.966 354.758 113.21 355.63V356.19C112.741 357.323 111.866 358.241 110.756 358.762C109.646 359.284 108.382 359.372 107.21 359.01C106.77 358.87 106.28 358.55 106.32 358.09C106.36 357.63 106.83 357.46 107.23 357.36Z" fill="#FF8927"/>
<path d="M166 320.1C166.15 320.948 166.109 321.82 165.88 322.65C166.282 321.695 166.859 320.824 167.58 320.08C167.85 319.81 168.25 319.53 168.58 319.7C168.91 319.87 168.95 320.35 168.89 320.7C168.705 321.756 168.254 322.747 167.58 323.58C168.443 322.853 169.474 322.355 170.58 322.13C170.672 322.096 170.771 322.084 170.869 322.096C170.966 322.109 171.059 322.144 171.14 322.2C171.31 322.36 171.25 322.63 171.14 322.85C170.819 323.704 170.281 324.46 169.58 325.043C168.879 325.627 168.038 326.019 167.14 326.18H166.59C165.494 325.62 164.649 324.669 164.221 323.515C163.793 322.361 163.814 321.089 164.28 319.95C164.46 319.52 164.82 319.05 165.28 319.14C165.74 319.23 166 319.69 166 320.1Z" fill="#FF8927"/>
<path d="M125.09 396.33C125.53 396.33 125.93 396.39 126.34 396.43C127.1 388.1 124.57 379.65 127.12 371.69L126.78 372.12C123.712 372.603 120.573 372.321 117.64 371.3C116.181 370.781 114.843 369.971 113.707 368.919C112.57 367.867 111.66 366.595 111.03 365.18C110.429 363.75 110.243 362.179 110.492 360.648C110.741 359.116 111.416 357.686 112.44 356.52C115.32 353.52 120.44 353.67 124.02 355.74C127.6 357.81 129.95 361.11 132.25 364.42C133.457 363.455 134.807 362.683 136.25 362.13C132.25 356.6 128.35 350.79 127.08 344.13C125.69 336.82 128.42 328.13 135.21 325.13C140.99 322.53 148.21 324.88 152.31 329.73C152.62 330.115 152.91 330.516 153.18 330.93L153.05 330.53C154.047 327.953 156.019 325.872 158.54 324.74C159.797 324.199 161.162 323.952 162.529 324.018C163.896 324.084 165.23 324.461 166.43 325.12C167.614 325.808 168.596 326.797 169.277 327.985C169.959 329.173 170.315 330.52 170.31 331.89C170.189 333.427 169.663 334.904 168.784 336.171C167.906 337.437 166.707 338.448 165.31 339.1C162.592 340.307 159.553 340.588 156.66 339.9C157.028 342.478 157.012 345.097 156.61 347.67C155.71 353.48 153.11 358.89 150.03 363.93C150.888 364.493 151.682 365.147 152.4 365.88C157.64 371.37 157.98 380.17 155.23 387.24C152.48 394.31 145 399.47 139.86 405C141.995 408.841 143.354 413.065 143.86 417.43C144.772 415.543 146.189 413.945 147.955 412.815C149.72 411.685 151.764 411.067 153.86 411.03C156.12 411.03 158.64 412.03 159.33 414.18C159.95 416.07 158.91 418.11 157.57 419.57C155.873 421.274 153.774 422.521 151.466 423.198C149.159 423.874 146.718 423.958 144.37 423.44L144.32 422.06C144.494 425.228 144.417 428.404 144.09 431.56H110.76C110.76 431.56 101.87 395.47 125.09 396.33Z" fill="#455A64"/>
<path d="M72.62 445.55H151.33V431.6H72.62V445.55Z" fill="#FF8927"/>
<path d="M145.46 442.78L135.88 484.46H88.97L78.5 442.78H145.46Z" fill="#FF8927"/>
<path d="M72.67 445.56C72.67 445.72 90.42 445.84 112.32 445.84C134.22 445.84 151.97 445.72 151.97 445.56C151.97 445.4 134.22 445.29 112.32 445.29C90.42 445.29 72.67 445.41 72.67 445.56Z" fill="#263238"/>
<path d="M118.92 397.7C119.064 397.598 119.218 397.511 119.38 397.44C119.823 397.206 120.285 397.009 120.76 396.85C122.523 396.26 124.389 396.046 126.24 396.22C128.99 396.464 131.636 397.389 133.94 398.91C136.727 400.827 139 403.399 140.56 406.4C142.134 409.374 143.205 412.587 143.73 415.91C144.131 418.614 144.311 421.347 144.27 424.08C144.27 426.4 144.18 428.28 144.13 429.58C144.13 430.19 144.13 430.68 144.07 431.07C144.087 431.243 144.087 431.417 144.07 431.59C144.046 431.418 144.046 431.242 144.07 431.07C144.07 430.68 144.07 430.19 144.07 429.58C144.07 428.22 144.07 426.36 144.07 424.08C144.067 421.368 143.86 418.661 143.45 415.98C142.911 412.706 141.844 409.541 140.29 406.61C138.762 403.674 136.55 401.15 133.84 399.25C131.594 397.749 129.017 396.815 126.33 396.53C124.516 396.337 122.682 396.5 120.93 397.01C119.58 397.39 119 397.75 118.92 397.7Z" fill="#263238"/>
<path d="M126 380C125.955 379.872 125.935 379.736 125.94 379.6C125.92 379.224 125.92 378.846 125.94 378.47C125.945 377.066 126.11 375.667 126.43 374.3C126.886 372.262 127.666 370.311 128.74 368.52C129.367 367.457 130.116 366.471 130.97 365.58C131.875 364.603 132.924 363.77 134.08 363.11C135.242 362.45 136.495 361.968 137.8 361.68C139.015 361.441 140.253 361.347 141.49 361.4C143.577 361.533 145.626 362.019 147.55 362.84C148.841 363.38 150.074 364.05 151.23 364.84C151.65 365.11 151.94 365.36 152.15 365.52C152.36 365.68 152.45 365.77 152.44 365.78C151.992 365.538 151.558 365.271 151.14 364.98C149.96 364.253 148.719 363.63 147.43 363.12C145.518 362.347 143.49 361.901 141.43 361.8C140.229 361.76 139.028 361.857 137.85 362.09C136.593 362.378 135.384 362.846 134.26 363.48C133.147 364.124 132.136 364.929 131.26 365.87C130.423 366.732 129.688 367.689 129.07 368.72C128 370.469 127.204 372.371 126.71 374.36C126.369 375.703 126.161 377.076 126.09 378.46C126 379.49 126 380 126 380Z" fill="#263238"/>
<path d="M156.88 344.84C156.703 343.961 156.609 343.067 156.6 342.17C156.53 341.35 156.45 340.37 156.27 339.3C156.077 338.137 155.741 337.001 155.27 335.92C154.45 333.946 153.446 332.055 152.27 330.27C151.36 328.89 150.68 328.13 150.73 328.09C150.78 328.05 150.94 328.23 151.27 328.57C151.723 329.048 152.144 329.556 152.53 330.09C153.81 331.85 154.881 333.752 155.72 335.76C156.19 336.872 156.506 338.043 156.66 339.24C156.794 340.208 156.874 341.183 156.9 342.16C156.962 343.053 156.956 343.949 156.88 344.84Z" fill="#263238"/>
<path d="M152.58 419.64C153.419 420.079 154.185 420.646 154.85 421.32C155.619 421.875 156.295 422.551 156.85 423.32C156.011 422.881 155.245 422.314 154.58 421.64C153.816 421.079 153.141 420.404 152.58 419.64Z" fill="#263238"/>
<path d="M155.38 416.86C157.233 416.381 159.149 416.192 161.06 416.3C160.153 416.616 159.201 416.785 158.24 416.8C157.296 416.968 156.331 416.989 155.38 416.86Z" fill="#263238"/>
<path d="M153.26 412C153.722 411.228 154.251 410.499 154.84 409.82C155.307 409.049 155.839 408.32 156.43 407.64C155.876 409.4 154.763 410.931 153.26 412Z" fill="#263238"/>
<path d="M149.53 409.7C149.506 410.791 149.334 411.875 149.02 412.92C148.833 414.001 148.496 415.051 148.02 416.04C148.224 413.871 148.715 411.739 149.48 409.7H149.53Z" fill="#263238"/>
<path d="M147 420.94C146.92 420.85 147.45 420.25 148.18 419.59C148.91 418.93 149.57 418.47 149.65 418.59C149.73 418.71 149.2 419.29 148.47 419.95C147.74 420.61 147.13 421 147 420.94Z" fill="#263238"/>
<path d="M135.48 418.77C135.39 418.68 136.03 417.87 136.9 416.96C137.77 416.05 138.56 415.37 138.65 415.46C137.814 416.755 136.738 417.879 135.48 418.77Z" fill="#263238"/>
<path d="M133 408.09C133.214 407.307 133.574 406.571 134.06 405.92C134.42 405.193 134.911 404.538 135.51 403.99C134.925 405.496 134.075 406.884 133 408.09Z" fill="#263238"/>
<path d="M125.6 399.39C125.831 400.294 125.919 401.229 125.86 402.16C125.945 403.09 125.884 404.028 125.68 404.94C125.443 404.037 125.355 403.101 125.42 402.17C125.337 401.24 125.398 400.302 125.6 399.39Z" fill="#263238"/>
<path d="M110.15 402.34C110.951 403.133 111.687 403.989 112.35 404.9C113.119 405.726 113.821 406.613 114.45 407.55C113.504 406.91 112.675 406.112 112 405.19C111.222 404.355 110.596 403.391 110.15 402.34Z" fill="#263238"/>
<path d="M108.17 417.52C109.097 417.472 110.025 417.573 110.92 417.82C111.843 417.925 112.744 418.175 113.59 418.56C112.663 418.609 111.735 418.507 110.84 418.26C109.916 418.157 109.015 417.907 108.17 417.52Z" fill="#263238"/>
<path d="M124.2 422.81C124.346 421.748 124.707 420.728 125.26 419.81C125.687 418.813 126.306 417.909 127.08 417.15C126.68 418.138 126.205 419.094 125.66 420.01C125.24 420.977 124.752 421.912 124.2 422.81Z" fill="#263238"/>
<path d="M118.85 415.52C118.619 414.797 118.528 414.037 118.58 413.28C118.491 412.526 118.549 411.762 118.75 411.03C118.993 411.75 119.085 412.513 119.02 413.27C119.115 414.024 119.057 414.789 118.85 415.52Z" fill="#263238"/>
<path d="M136.1 428.36C136.193 427.509 136.503 426.697 137 426C137.388 425.234 137.962 424.577 138.67 424.09C138.306 424.841 137.874 425.557 137.38 426.23C137.022 426.979 136.594 427.692 136.1 428.36Z" fill="#263238"/>
<path d="M117.8 429.42C117.285 428.772 116.882 428.042 116.61 427.26C116.211 426.532 115.944 425.74 115.82 424.92C116.338 425.566 116.741 426.297 117.01 427.08C117.41 427.807 117.677 428.599 117.8 429.42Z" fill="#263238"/>
<path d="M146.25 395.57C147.256 395.388 148.283 395.348 149.3 395.45C150.31 395.417 151.32 395.525 152.3 395.77C151.295 395.964 150.267 396.004 149.25 395.89C148.24 395.928 147.229 395.82 146.25 395.57Z" fill="#263238"/>
<path d="M152.88 384.22C153.762 383.325 154.745 382.537 155.81 381.87C156.79 381.083 157.857 380.412 158.99 379.87C158.112 380.762 157.132 381.547 156.07 382.21C155.091 383.006 154.02 383.681 152.88 384.22Z" fill="#263238"/>
<path d="M152.2 369.63C152.95 369.041 153.746 368.512 154.58 368.05C155.336 367.468 156.131 366.941 156.96 366.47C156.409 367.275 155.681 367.943 154.83 368.42C154.057 369.018 153.157 369.431 152.2 369.63Z" fill="#263238"/>
<path d="M144.76 364.47C144.829 363.264 145.048 362.072 145.41 360.92C145.625 359.728 145.984 358.566 146.48 357.46C146.202 359.856 145.624 362.208 144.76 364.46V364.47Z" fill="#263238"/>
<path d="M132.34 360.8C132.937 361.427 133.424 362.151 133.78 362.94C134.267 363.656 134.626 364.451 134.84 365.29C134.243 364.663 133.756 363.939 133.4 363.15C132.913 362.434 132.554 361.639 132.34 360.8Z" fill="#263238"/>
<path d="M121.63 385.41C121.71 385.31 123.13 386.41 124.99 387.54C126.85 388.67 128.46 389.48 128.4 389.54C127.098 389.202 125.865 388.637 124.76 387.87C123.582 387.238 122.523 386.405 121.63 385.41Z" fill="#263238"/>
<path d="M139 390.94C140.335 389.773 141.856 388.837 143.5 388.17C142.875 388.804 142.153 389.334 141.36 389.74C140.647 390.271 139.849 390.677 139 390.94Z" fill="#263238"/>
<path d="M141.9 379.17C141.81 379.07 142.9 377.97 143.97 376.36C145.04 374.75 145.59 373.29 145.71 373.36C145.2 375.706 143.844 377.781 141.9 379.19V379.17Z" fill="#263238"/>
<path d="M136.2 376.51C136.014 375.571 135.984 374.609 136.11 373.66C136.081 372.704 136.199 371.75 136.46 370.83C136.634 371.77 136.664 372.731 136.55 373.68C136.579 374.636 136.461 375.59 136.2 376.51Z" fill="#263238"/>
<path d="M133.05 388.15C132.724 387.222 132.535 386.252 132.49 385.27C132.304 384.301 132.266 383.31 132.38 382.33C132.89 384.226 133.115 386.188 133.05 388.15Z" fill="#263238"/>
<path d="M124.25 353.1C124.623 354.164 124.93 355.249 125.17 356.35C125.554 357.414 125.865 358.503 126.1 359.61C125.456 358.658 124.998 357.592 124.75 356.47C124.366 355.39 124.196 354.245 124.25 353.1Z" fill="#263238"/>
<path d="M118.05 373.53C118.848 372.843 119.697 372.218 120.59 371.66C121.396 370.98 122.251 370.362 123.15 369.81C121.819 371.49 120.056 372.776 118.05 373.53Z" fill="#263238"/>
<path d="M109.62 367.26C110.634 366.965 111.671 366.755 112.72 366.63C113.742 366.356 114.786 366.169 115.84 366.07C114.914 366.594 113.895 366.933 112.84 367.07C111.79 367.347 110.695 367.412 109.62 367.26Z" fill="#263238"/>
<path d="M117.82 360.25C118.466 360.409 119.07 360.705 119.59 361.12C120.51 361.71 121.19 362.26 121.13 362.37C120.48 362.209 119.872 361.909 119.35 361.49C118.44 360.91 117.75 360.35 117.82 360.25Z" fill="#263238"/>
<path d="M113.73 352.68C115.251 353.576 116.44 354.941 117.12 356.57C116.491 355.982 115.918 355.336 115.41 354.64C114.793 354.038 114.231 353.382 113.73 352.68Z" fill="#263238"/>
<path d="M108.15 359.89C109.126 360.046 110.086 360.287 111.02 360.61C111.99 360.793 112.941 361.067 113.86 361.43C112.843 361.496 111.824 361.36 110.86 361.03C109.889 360.836 108.968 360.448 108.15 359.89Z" fill="#263238"/>
<path d="M146.78 350.19C147.549 348.865 148.39 347.583 149.3 346.35C150.083 345.04 150.934 343.771 151.85 342.55C151.317 343.995 150.583 345.359 149.67 346.6C148.873 347.921 147.901 349.129 146.78 350.19Z" fill="#263238"/>
<path d="M144.3 341.35C144.222 340.249 144.293 339.142 144.51 338.06C144.583 336.956 144.801 335.867 145.16 334.82C145.238 335.921 145.167 337.028 144.95 338.11C144.877 339.214 144.659 340.303 144.3 341.35Z" fill="#263238"/>
<path d="M135.72 342.73C135.85 342.73 136.21 344.4 137.06 346.35C137.91 348.3 138.88 349.72 138.78 349.8C137.83 348.883 137.102 347.761 136.65 346.52C136.064 345.341 135.746 344.047 135.72 342.73Z" fill="#263238"/>
<path d="M125.63 344.86C125.74 344.78 126.99 346.26 128.73 347.86C130.47 349.46 132.01 350.65 131.93 350.76C129.379 349.325 127.217 347.289 125.63 344.83V344.86Z" fill="#263238"/>
<path d="M129.54 326.55C129.66 326.55 130.05 328.39 130.75 330.62C131.45 332.85 132.16 334.62 132.04 334.62C131.255 333.42 130.674 332.099 130.32 330.71C129.831 329.376 129.568 327.97 129.54 326.55Z" fill="#263238"/>
<path d="M141.15 320.53C141.576 322.682 141.71 324.882 141.55 327.07C141.124 324.918 140.99 322.718 141.15 320.53Z" fill="#263238"/>
<path d="M165.13 336C165.967 335.986 166.804 336.047 167.63 336.18C168.465 336.177 169.299 336.254 170.12 336.41C169.308 336.693 168.438 336.765 167.59 336.62C166.73 336.628 165.883 336.415 165.13 336Z" fill="#263238"/>
<path d="M164.42 330C165.483 329.182 166.633 328.484 167.85 327.92C169.001 327.233 170.221 326.67 171.49 326.24C170.428 327.057 169.278 327.751 168.06 328.31C166.91 329.001 165.69 329.568 164.42 330Z" fill="#263238"/>
<path d="M157.94 330.18C158.038 329.124 158.283 328.087 158.67 327.1C158.914 326.07 159.305 325.079 159.83 324.16C159.719 325.215 159.47 326.25 159.09 327.24C158.841 328.268 158.455 329.257 157.94 330.18Z" fill="#263238"/>
<g opacity="0.3">
<path d="M139.78 405.06C139.723 403.453 139.294 401.88 138.525 400.468C137.756 399.055 136.669 397.84 135.35 396.92C132.73 395.16 128.01 394.99 126.16 396.3C129.069 396.385 131.881 397.359 134.22 399.09C136.423 400.735 138.307 402.768 139.78 405.09" fill="black"/>
</g>
<g opacity="0.3">
<path d="M150 364.47C149.398 363.215 148.513 362.116 147.415 361.261C146.316 360.405 145.035 359.816 143.67 359.54C140.98 359.05 137.17 360.54 136.16 362.23C138.497 361.29 141.065 361.088 143.52 361.65C145.834 362.188 148.03 363.144 150 364.47Z" fill="black"/>
</g>
<g opacity="0.3">
<path d="M156.83 340.34C157.356 339.414 157.668 338.382 157.743 337.319C157.817 336.256 157.652 335.19 157.26 334.2C156.874 333.302 156.273 332.511 155.512 331.898C154.75 331.284 153.85 330.866 152.89 330.68C154.97 333.68 156.61 336.78 156.77 340.45" fill="black"/>
</g>
<path d="M114.84 399.61C114.84 399.61 114.49 399.93 113.94 400.61C113.175 401.541 112.505 402.546 111.94 403.61C110.28 407.17 109.284 411.003 109 414.92C108.747 418.866 108.945 422.829 109.59 426.73C109.82 428.24 110.05 429.45 110.21 430.28C110.316 430.71 110.383 431.148 110.41 431.59C110.234 431.182 110.103 430.756 110.02 430.32C109.81 429.5 109.53 428.32 109.25 426.79C108.503 422.867 108.258 418.865 108.52 414.88C108.768 410.874 109.812 406.958 111.59 403.36C112.194 402.306 112.922 401.329 113.76 400.45C114.062 400.103 114.429 399.817 114.84 399.61Z" fill="#263238"/>
<path d="M151.33 431.59C151.251 431.603 151.169 431.603 151.09 431.59H150.39H147.69L137.76 431.66L105 431.73L72.63 431.66L72.78 431.5C72.78 435.8 72.78 439.28 72.78 441.72C72.78 442.91 72.78 443.84 72.78 444.5C72.78 444.8 72.78 445.04 72.78 445.23C72.7951 445.309 72.7951 445.391 72.78 445.47C72.7649 445.391 72.7649 445.309 72.78 445.23V444.5C72.78 443.84 72.78 442.91 72.73 441.73C72.73 439.28 72.67 435.8 72.63 431.51V431.35H72.79L105.16 431.28L137.92 431.35L147.85 431.42H150.55H151.25L151.33 431.59Z" fill="#263238"/>
<path d="M272.38 483.53H416.94L403.48 443.91L292.7 449.66L272.38 483.53Z" fill="#263238"/>
<path d="M299.3 450.47L383.78 447.32L413.78 279.32L386.67 267.65C386.67 267.65 375.42 273.96 354.58 274.06C334.13 274.16 334.49 267.21 334.49 267.21L316.56 286.52C316.56 286.52 294.49 349.31 294.16 350.58C293.83 351.85 299.3 450.47 299.3 450.47Z" fill="white"/>
<path d="M397 271.93C397 271.93 438.61 280.53 439 287.46C439.39 294.39 421.2 337.36 420.85 338.46C420.5 339.56 404.46 401 404.46 401L428.46 483.54H353.66C353.66 483.54 359 405.67 365 369.69C371 333.71 372.43 321.69 374.74 307.43C375.66 301.72 380.31 282.13 383.2 270.17C384.018 266.798 384.168 263.299 383.64 259.87L387.19 261.22L397 271.93Z" fill="#455A64"/>
<path d="M266.82 377.28C266.42 377.88 258.82 405.47 257.57 413.46C256.51 420.24 254.83 431.26 262.02 441.46C269.21 451.66 276.64 450.46 283.82 447.86C291 445.26 298.82 430.27 300.2 421.67C301.58 413.07 293.46 375.25 293.46 375.25L266.82 377.28Z" fill="#455A64"/>
<path d="M334.57 261.86L325.31 274.93C325.31 274.93 294.43 278.93 287.31 284.11C280.19 289.29 265.84 382.76 265.84 382.76L294.57 398.76L272.37 483.54H300.2C300.2 483.54 307.1 447.81 306.47 422.15C305.84 396.49 310.29 363.15 318.47 338.49C326.65 313.83 334.47 271.19 334.47 271.19L334.57 261.86Z" fill="#455A64"/>
<g opacity="0.3">
<path d="M418.65 452.33L368.88 424.65C371 436.06 377.7 447 387.5 453.22C392.434 456.325 397.949 458.394 403.707 459.302C409.466 460.21 415.35 459.937 421 458.5C420.2 456.44 419.417 454.383 418.65 452.33Z" fill="black"/>
</g>
<path d="M271.18 399.63C271.18 399.72 270 399.91 268.24 400.63C265.938 401.616 263.915 403.155 262.35 405.11C260.815 407.086 259.785 409.406 259.35 411.87C259.02 413.76 259.12 414.97 259.02 414.98C258.931 414.706 258.89 414.418 258.9 414.13C258.852 413.356 258.882 412.578 258.99 411.81C259.323 409.245 260.346 406.818 261.95 404.789C263.555 402.76 265.681 401.205 268.1 400.29C268.824 400.007 269.574 399.796 270.34 399.66C270.616 399.601 270.9 399.591 271.18 399.63Z" fill="#263238"/>
<path d="M277 438.45C277 438.45 284.9 435.95 287.74 432.74C290.444 429.559 292.259 425.719 293 421.61C293.36 416.85 295.15 391.85 295.15 391.85L274.33 390.48L261.49 415C261.49 415 258.01 424 265.12 433.59C269.66 439.74 277 438.45 277 438.45Z" fill="#FFBF9D"/>
<path d="M297 424.65C297.044 423.686 297.137 422.725 297.28 421.77C297.493 419.466 297.459 417.147 297.18 414.85C296.886 412.551 296.353 410.289 295.59 408.1C295 406.42 294.53 405.42 294.59 405.38C294.65 405.34 294.77 405.6 295.02 406.04C295.358 406.665 295.659 407.309 295.92 407.97C297.697 412.356 298.29 417.132 297.64 421.82C297.544 422.523 297.411 423.221 297.24 423.91C297.201 424.168 297.12 424.418 297 424.65Z" fill="#263238"/>
<path d="M296.22 425.13C296.259 425.529 296.259 425.931 296.22 426.33C296.208 426.799 296.168 427.266 296.1 427.73C296.02 428.27 295.96 428.89 295.8 429.56C295.49 431.152 295.035 432.712 294.44 434.22C293.705 436.06 292.794 437.825 291.72 439.49C290.619 441.139 289.363 442.679 287.97 444.09C286.822 445.233 285.574 446.271 284.24 447.19C283.737 447.555 283.213 447.889 282.67 448.19C282.278 448.444 281.866 448.668 281.44 448.86C281.093 449.062 280.724 449.223 280.34 449.34C280.34 449.25 281.83 448.51 284.03 446.9C285.308 445.947 286.512 444.897 287.63 443.76C288.98 442.352 290.201 440.825 291.28 439.2C292.337 437.55 293.247 435.81 294 434C294.599 432.524 295.081 431.002 295.44 429.45C296.05 426.83 296.11 425.12 296.22 425.13Z" fill="#263238"/>
<path d="M201.57 263.78C198.09 264.287 194.946 266.136 192.81 268.93L239.32 334.93L297.39 328.28L296.45 268.9C296.45 268.9 292.51 263.18 288.69 263.82C287.16 264.08 238.04 271.75 233.69 283.77C233.69 283.77 234.2 277.63 230.1 274.56C226 271.49 201.57 263.78 201.57 263.78Z" fill="white"/>
<path d="M201.57 263.78L202.25 263.97L204.25 264.59C205.99 265.14 208.58 265.96 211.9 267.08C215.22 268.2 219.3 269.6 223.98 271.44C225.15 271.91 226.35 272.44 227.58 272.97C228.883 273.5 230.079 274.262 231.11 275.22C233.17 277.35 234 280.56 233.88 283.77L233.54 283.69C234.595 281.509 236.267 279.687 238.35 278.45C240.485 277.058 242.741 275.86 245.09 274.87C250.216 272.714 255.49 270.927 260.87 269.52C266.51 267.97 272.48 266.6 278.73 265.36C281.85 264.74 285.05 264.15 288.3 263.62C289.156 263.446 290.044 263.505 290.87 263.79C291.678 264.093 292.436 264.514 293.12 265.04C294.475 266.093 295.668 267.34 296.66 268.74L296.71 268.8V268.88C296.95 284.19 297.22 300.88 297.5 318.21C297.56 321.59 297.613 324.94 297.66 328.26V328.49H297.42L239.35 335.12H239.21L239.13 335.01L192.74 269V268.95V268.9C193.63 267.653 194.762 266.598 196.07 265.8C197.015 265.218 198.021 264.742 199.07 264.38C199.686 264.158 200.317 263.984 200.96 263.86C201.178 263.82 201.399 263.8 201.62 263.8C201.402 263.825 201.185 263.862 200.97 263.91C200.333 264.048 199.708 264.235 199.1 264.47C198.084 264.847 197.111 265.333 196.2 265.92C194.918 266.717 193.809 267.765 192.94 269V268.9L239.57 334.8L239.35 334.7L297.36 328L297.13 328.27C297.077 324.937 297.023 321.603 296.97 318.27C296.7 300.94 296.44 284.27 296.2 268.93L296.25 269.07C295.283 267.713 294.124 266.504 292.81 265.48C292.169 264.984 291.458 264.586 290.7 264.3C289.951 264.04 289.146 263.988 288.37 264.15C285.12 264.67 281.93 265.26 278.81 265.87C272.57 267.1 266.6 268.46 260.97 269.99C255.61 271.384 250.354 273.152 245.24 275.28C242.906 276.255 240.664 277.436 238.54 278.81C236.52 280 234.893 281.756 233.86 283.86L233.48 284.79V283.79C233.61 280.68 232.81 277.52 230.84 275.49C229.838 274.552 228.672 273.807 227.4 273.29C226.19 272.72 224.99 272.22 223.83 271.74C219.17 269.88 215.1 268.46 211.83 267.31L204.21 264.73L202.21 264.07C201.79 263.87 201.57 263.78 201.57 263.78Z" fill="#263238"/>
<path d="M230.11 344.12L186.56 270.12C186.355 269.776 186.264 269.376 186.3 268.978C186.336 268.579 186.497 268.202 186.76 267.9C187.021 267.606 187.367 267.399 187.75 267.308C188.132 267.217 188.534 267.245 188.9 267.39L223.23 281.07C223.89 281.329 224.479 281.74 224.95 282.27C225.439 282.815 225.79 283.468 225.977 284.176C226.163 284.884 226.177 285.625 226.02 286.34L225.51 288.63L237.51 291.7L237.77 291.03C238.248 289.801 238.996 288.695 239.958 287.794C240.921 286.892 242.073 286.218 243.33 285.82L298.64 268.2C299.787 267.831 301.027 267.881 302.14 268.341C303.253 268.801 304.167 269.64 304.72 270.71L344 346.43L342.67 350L280.23 364.8H269.23L230.11 344.12Z" fill="#FF8927"/>
<path d="M230.11 344.12L230.8 344.46L232.8 345.46L240.5 349.46L269.34 364.61H269.26H280.2L342.63 349.76L342.46 349.91C342.85 348.81 343.29 347.57 343.74 346.33V346.51L323.44 307.35C319.893 300.477 316.263 293.477 312.55 286.35L307 275.53L305.59 272.8L304.88 271.43C304.67 270.975 304.419 270.539 304.13 270.13C303.536 269.343 302.716 268.756 301.78 268.447C300.844 268.138 299.836 268.122 298.89 268.4L266.22 278.8L250.51 283.8C247.94 284.63 245.34 285.41 242.86 286.26C241.665 286.751 240.593 287.499 239.72 288.452C238.847 289.404 238.195 290.537 237.81 291.77L237.75 291.98L237.52 291.92L225.52 288.85L225.29 288.79L225.34 288.56L225.75 286.73C225.916 286.159 225.98 285.563 225.94 284.97C225.891 284.39 225.726 283.825 225.454 283.31C225.183 282.794 224.811 282.339 224.36 281.97C223.895 281.603 223.371 281.319 222.81 281.13L221.12 280.46L217.75 279.11L204.65 273.88L192.15 268.88L189.15 267.68C188.939 267.563 188.706 267.491 188.466 267.469C188.225 267.448 187.983 267.477 187.755 267.556C187.527 267.634 187.318 267.759 187.141 267.924C186.964 268.088 186.824 268.288 186.73 268.51C186.636 268.728 186.587 268.963 186.587 269.2C186.587 269.437 186.636 269.672 186.73 269.89L187.51 271.24L189.09 273.93C197.46 288.18 204.82 300.73 210.91 311.12L225.13 335.41L228.89 341.89L229.89 343.57C230.1 343.94 230.2 344.14 230.2 344.14C230.2 344.14 230.08 343.96 229.86 343.59C229.64 343.22 229.3 342.67 228.86 341.95L225 335.5C221.67 329.87 216.81 321.65 210.67 311.29L188.74 274.12L187.15 271.43C186.88 270.97 186.62 270.54 186.34 270.05C186.212 269.782 186.142 269.491 186.134 269.194C186.126 268.898 186.18 268.603 186.293 268.328C186.406 268.054 186.576 267.806 186.79 267.602C187.005 267.397 187.261 267.24 187.54 267.14C188.107 266.952 188.725 266.995 189.26 267.26L192.26 268.47L204.77 273.47L217.88 278.69L221.24 280.03L222.94 280.7C223.545 280.905 224.11 281.213 224.61 281.61C225.114 282.021 225.529 282.53 225.832 283.105C226.134 283.681 226.317 284.312 226.37 284.96C226.415 285.603 226.348 286.25 226.17 286.87L225.77 288.7L225.59 288.41L237.59 291.47L237.3 291.62C237.71 290.325 238.399 289.135 239.318 288.135C240.237 287.135 241.364 286.348 242.62 285.83C245.17 284.95 247.72 284.18 250.3 283.35L266.02 278.35L298.69 267.94C299.739 267.632 300.857 267.651 301.895 267.994C302.932 268.337 303.841 268.988 304.5 269.86C304.806 270.291 305.071 270.749 305.29 271.23L306 272.6L307.42 275.33C309.293 278.957 311.157 282.56 313.01 286.14L323.9 307.14L344.16 346.32V346.41V346.5L342.88 350.08V350.2H342.75L280.27 365H269.27L240.47 349.7L232.82 345.61L230.82 344.55L230.11 344.12Z" fill="#263238"/>
<g opacity="0.3">
<path d="M260.79 356L232.25 342.35L192.84 277.41L227.65 290.91L226.92 292.78L197.6 281.4L233.65 340.8L261.65 354.19L260.79 356Z" fill="black"/>
</g>
<g opacity="0.3">
<path d="M283.85 360L247.94 295.18L300.86 278.18L335.35 345L283.85 360ZM250.85 296.34L284.8 357.63L332.44 343.69L299.84 280.58L250.85 296.34Z" fill="black"/>
</g>
<path d="M277.46 364.06C277.34 364.13 268.33 348.06 257.34 328.06C246.35 308.06 237.56 291.89 237.68 291.82C237.8 291.75 246.81 307.82 257.8 327.82C268.79 347.82 277.59 364 277.46 364.06Z" fill="#263238"/>
<path d="M225.51 288.61C225.682 288.844 225.836 289.092 225.97 289.35L227.21 291.5C228.28 293.38 229.79 296.11 231.65 299.5C235.36 306.26 240.4 315.66 245.91 326.07L260 352.72L264.29 360.79C264.77 361.71 265.15 362.45 265.44 362.99C265.588 363.241 265.712 363.506 265.81 363.78C265.638 363.546 265.484 363.298 265.35 363.04L264.11 360.89C263.04 359.01 261.53 356.28 259.67 352.89C255.96 346.12 250.92 336.72 245.41 326.31L231.29 299.66L227 291.6C226.52 290.68 226.14 289.94 225.85 289.4C225.713 289.148 225.599 288.883 225.51 288.61Z" fill="#263238"/>
<path d="M232.26 289.81C232.231 288.792 232.38 287.777 232.7 286.81C232.849 285.801 233.166 284.824 233.64 283.92C233.668 284.938 233.519 285.953 233.2 286.92C233.051 287.929 232.734 288.906 232.26 289.81Z" fill="#263238"/>
<g opacity="0.3">
<path d="M238.89 309.82L260.1 349.11L267.48 350.17L246.39 311.18L238.89 309.82Z" fill="black"/>
</g>
<g opacity="0.3">
<path d="M231.35 299.33L243.1 301.68L245.68 305.96L233.64 303.58L231.54 299.97" fill="black"/>
</g>
<g opacity="0.3">
<path d="M273.26 299.27L271.19 294.48L284.34 289.81L286.63 294.54L273.26 299.27Z" fill="black"/>
</g>
<g opacity="0.3">
<path d="M272.38 323.58L265.09 309.82L302.32 296.09L308.89 309.82L272.38 323.58Z" fill="black"/>
</g>
<path d="M392.08 103.36C393.53 101.991 395.279 100.976 397.187 100.397C399.096 99.8174 401.113 99.6884 403.08 100.02C404.67 100.3 406.39 100.87 407.82 100.11C408.745 99.4172 409.55 98.5758 410.2 97.62C410.823 96.9997 411.564 96.5115 412.38 96.1846C413.196 95.8577 414.069 95.6988 414.948 95.7175C415.826 95.7362 416.692 95.932 417.493 96.2933C418.294 96.6546 419.014 97.1738 419.61 97.82C420.087 98.5525 420.686 99.1985 421.38 99.73C424.38 101.52 428.15 95.83 431.18 97.65C429.744 98.1163 428.485 99.0093 427.57 100.21C427.132 100.822 426.912 101.564 426.945 102.316C426.977 103.068 427.261 103.788 427.75 104.36C430.55 107.07 435.63 101.56 438.75 103.84C440.44 105.08 440.54 108.07 442.55 108.66C443.354 108.781 444.173 108.76 444.97 108.6C446.336 108.569 447.662 109.058 448.681 109.967C449.7 110.877 450.336 112.14 450.46 113.5C450.58 115.83 449.28 118.6 450.94 120.23C451.94 121.23 453.61 121.17 455.05 121.02C454.912 123.155 454.289 125.231 453.23 127.09C455.02 128.336 456.257 130.227 456.682 132.365C457.107 134.504 456.687 136.724 455.51 138.56C457.371 139.98 458.937 141.75 460.12 143.77C461.17 145.85 461.31 148.57 459.85 150.39C459.471 150.763 459.151 151.191 458.9 151.66C458.71 152.207 458.679 152.796 458.81 153.36C459.15 155.55 460 157.7 459.81 159.91C459.62 162.12 457.88 164.46 455.68 164.17C455.17 164.1 454.61 163.9 454.17 164.17C454.011 164.289 453.877 164.439 453.778 164.611C453.678 164.782 453.614 164.973 453.59 165.17C453.362 166.747 453.389 168.351 453.67 169.92C453.948 171.506 453.616 173.139 452.74 174.49C451.74 175.74 449.55 176.08 448.62 174.79L450.15 182.27C450.45 183.75 450.67 185.54 449.55 186.56C448.08 187.9 445.61 186.67 444.64 184.94C443.67 183.21 443.47 181.12 442.45 179.42C441.969 178.769 441.554 178.072 441.21 177.34C441 176.73 440.95 176.02 440.48 175.59C439.53 174.72 437.93 176.03 438 177.32C438.07 178.61 439.05 179.62 439.81 180.66C440.57 181.7 441.15 183.15 440.44 184.23C440.1 184.75 439.51 185.07 439.18 185.6C438.04 187.42 440.7 189.38 440.92 191.52C441.09 193.1 439.87 194.46 438.69 195.52C437.25 196.82 434.55 197.79 433.77 196.02C433.624 195.36 433.514 194.692 433.44 194.02C433.115 193.3 432.621 192.668 432 192.18C430.61 190.783 429.657 189.011 429.26 187.08C430.8 189.18 432.39 191.93 431.11 194.19C430.478 195.076 429.716 195.861 428.85 196.52C427.3 197.98 426.29 199.93 424.76 201.41C423.23 202.89 420.76 203.84 418.97 202.71C419.25 203.757 419.166 204.868 418.732 205.861C418.299 206.854 417.542 207.671 416.584 208.178C415.627 208.686 414.525 208.853 413.46 208.654C412.395 208.454 411.429 207.899 410.72 207.08C410.395 206.586 409.969 206.167 409.47 205.85C408.858 205.679 408.212 205.679 407.6 205.85C405.705 206.073 403.786 205.77 402.052 204.975C400.318 204.179 398.837 202.922 397.77 201.34L399.7 200.76C395.99 200.09 392.12 199.36 389.12 197.08C386.12 194.8 384.31 190.47 386.12 187.14C386.89 185.7 388.31 184.25 387.78 182.71C387.41 181.64 386.25 181.11 385.21 180.71L372.11 175.37C369.99 174.51 367.76 173.56 366.41 171.71C365.06 169.86 365.08 166.82 367.05 165.65C366.111 163.529 364.593 161.716 362.67 160.42C360.52 158.99 357.96 158.26 355.75 156.92C353.54 155.58 351.57 153.27 351.86 150.7C352.15 148.13 355.8 146.3 357.49 148.27C357.32 144.36 350.41 143.79 350.01 139.9C349.68 136.75 353.76 135.32 355.94 133.01C355.57 131.9 354.5 131.15 354.1 130.01C353.25 127.71 355.7 125.57 357.96 124.63C360.22 123.69 362.96 122.75 363.62 120.39C364.28 118.03 362.33 115.1 363.73 113.03C364.142 112.468 364.749 112.081 365.433 111.946C366.116 111.811 366.825 111.937 367.42 112.3C369.42 107.91 377.68 111.69 380.34 107.66C380.568 107.35 380.687 106.974 380.68 106.59C380.631 106.261 380.496 105.951 380.29 105.69C379.38 104.42 377.91 103.69 376.72 102.69C375.53 101.69 374.57 100.02 375.2 98.58C375.83 97.14 378.6 97.33 378.49 98.9C378.917 98.5969 379.409 98.3955 379.926 98.3111C380.443 98.2267 380.972 98.2615 381.474 98.413C381.976 98.5644 382.436 98.8285 382.82 99.185C383.204 99.5415 383.502 99.981 383.69 100.47C384.83 99.22 386.95 99.34 388.36 100.27C389.71 101.335 390.786 102.706 391.5 104.27" fill="#263238"/>
<path d="M410.89 153.85C409.66 147.38 405.05 142.05 399.89 137.93C397.833 136.074 395.35 134.755 392.66 134.09C389.94 133.59 386.81 134.47 385.37 136.83L385.63 141.44C384.86 148.74 390.35 155.03 392.87 161.92C393.97 164.92 394.87 168.51 397.73 169.85C399.302 170.478 401.051 170.503 402.64 169.92C408.93 167.93 412.12 160.32 410.89 153.85Z" fill="#455A64"/>
<path d="M410.71 187.68C412.76 184.906 413.771 181.5 413.567 178.057C413.362 174.614 411.955 171.351 409.59 168.84C412.32 165.49 411.4 160.27 408.7 156.9C406 153.53 401.96 151.57 398.06 149.71C396.01 139.8 384.98 132.71 375.12 135.01C370.07 127.43 359.17 126.13 350.39 128.59C348.296 129.352 346.104 129.81 343.88 129.95C342.254 129.809 340.637 129.568 339.04 129.23C330.16 127.94 321.26 134.11 317.71 142.36C317.237 143.716 316.588 145.003 315.78 146.19C314.61 147.67 312.85 148.53 311.35 149.66C309.727 150.902 308.39 152.48 307.431 154.284C306.471 156.089 305.912 158.08 305.79 160.12C305.61 163.57 306.68 167.25 305.19 170.37C304.44 171.94 303.11 173.19 302.53 174.83C300.83 179.56 306.05 184.46 305.02 189.38C304.81 190.38 304.35 191.32 304.02 192.3C303.432 194.336 303.599 196.517 304.49 198.44C305.18 199.9 306.3 201.25 306.38 202.87C306.283 204.091 306.027 205.295 305.62 206.45C304.99 209.39 311.23 220.8 313.75 222.45L389.75 223.9C392.628 223.281 395.243 221.783 397.233 219.614C399.223 217.445 400.491 214.711 400.86 211.79C400.834 210.81 401.087 209.842 401.59 209C402.189 208.419 402.9 207.966 403.68 207.67C408.6 205.1 409.26 198.38 408.8 192.85C408.688 192.079 408.712 191.293 408.87 190.53C409.283 189.465 409.909 188.495 410.71 187.68Z" fill="#263238"/>
<path d="M389.05 187.58C389.41 174.13 381.14 158.58 367.85 151.88C359.47 147.65 352.85 147.56 348.48 147C342.257 146.332 335.977 147.577 330.48 150.57C326.28 151.51 310.79 165.41 309.84 180.65C308.78 197.58 308.16 218.3 310.17 230.93C314.22 256.33 333.69 259.55 333.69 259.55L332.81 279.68L347 306L383.54 268.79L389.05 187.58Z" fill="#FFBF9D"/>
<path d="M348.19 227.1C348.072 225.799 347.477 224.588 346.52 223.7C345.653 222.87 344.538 222.347 343.345 222.214C342.152 222.08 340.949 222.342 339.92 222.96C338.843 223.698 337.983 224.71 337.427 225.891C336.872 227.072 336.642 228.38 336.76 229.68C337.271 230.479 337.947 231.159 338.742 231.676C339.537 232.194 340.433 232.536 341.37 232.68C341.67 232.68 341.97 232.75 342.27 232.76C343.764 232.828 345.23 232.336 346.38 231.38C346.985 230.85 347.463 230.189 347.776 229.448C348.089 228.706 348.231 227.904 348.19 227.1Z" fill="#FF9A6C"/>
<path d="M315.55 203.36C315.542 204.21 315.867 205.03 316.456 205.643C317.045 206.256 317.85 206.614 318.7 206.64C319.114 206.673 319.531 206.622 319.925 206.491C320.319 206.36 320.683 206.151 320.996 205.877C321.308 205.603 321.562 205.269 321.743 204.895C321.924 204.521 322.029 204.115 322.05 203.7C322.061 202.851 321.738 202.031 321.151 201.418C320.563 200.805 319.759 200.446 318.91 200.42C318.495 200.387 318.078 200.438 317.683 200.569C317.289 200.7 316.924 200.908 316.611 201.182C316.298 201.456 316.043 201.79 315.86 202.164C315.678 202.538 315.573 202.945 315.55 203.36Z" fill="#263238"/>
<path d="M315.6 190.39C316.01 190.82 318.48 188.99 321.98 188.99C325.48 188.99 328.06 190.75 328.44 190.32C328.62 190.13 328.21 189.37 327.09 188.55C325.572 187.499 323.766 186.943 321.92 186.96C320.099 186.958 318.325 187.532 316.85 188.6C315.77 189.43 315.41 190.2 315.6 190.39Z" fill="#263238"/>
<path d="M336.13 218.06C336.13 217.86 333.97 217.49 330.44 217.06C329.54 216.97 328.69 216.79 328.54 216.18C328.463 215.256 328.672 214.331 329.14 213.53L331.78 206.71C335.45 197 338.11 189.02 337.72 188.87C337.33 188.72 334.03 196.48 330.36 206.19C329.48 208.58 328.63 210.86 327.83 213.05C327.266 214.129 327.103 215.372 327.37 216.56C327.499 216.876 327.699 217.158 327.953 217.385C328.208 217.612 328.511 217.778 328.84 217.87C329.337 218 329.847 218.07 330.36 218.08C333.91 218.25 336.12 218.26 336.13 218.06Z" fill="#263238"/>
<path d="M333.73 259.55C345.686 259.72 357.455 256.574 367.73 250.46C367.73 250.46 358.73 268.71 333.32 266.35L333.73 259.55Z" fill="#FF9A6C"/>
<path d="M346.45 220.48C345.88 220.48 345.87 224.25 342.62 226.96C339.37 229.67 335.31 229.24 335.28 229.78C335.28 230.01 336.19 230.51 337.9 230.56C340.129 230.594 342.298 229.836 344.02 228.42C345.69 227.071 346.767 225.122 347.02 222.99C347.13 221.4 346.71 220.46 346.45 220.48Z" fill="#263238"/>
<path d="M317 177.25C317.59 178.11 320.28 177.54 323.41 177.8C326.54 178.06 329.15 178.88 329.84 178.11C330.15 177.73 329.84 176.9 328.72 176.04C327.233 174.961 325.465 174.336 323.63 174.24C321.806 174.089 319.977 174.475 318.37 175.35C317.2 176.06 316.76 176.84 317 177.25Z" fill="#263238"/>
<path d="M353.24 204.85C353.212 205.692 352.858 206.49 352.254 207.077C351.65 207.665 350.842 207.995 350 208C349.584 208.017 349.17 207.952 348.78 207.806C348.39 207.661 348.034 207.439 347.731 207.154C347.428 206.869 347.185 206.526 347.017 206.146C346.848 205.766 346.758 205.356 346.75 204.94C346.776 204.092 347.131 203.287 347.739 202.696C348.347 202.104 349.162 201.772 350.01 201.77C350.426 201.755 350.84 201.824 351.229 201.972C351.617 202.119 351.972 202.343 352.273 202.63C352.574 202.917 352.815 203.261 352.981 203.642C353.147 204.024 353.235 204.434 353.24 204.85Z" fill="#263238"/>
<path d="M363.57 191.74C363.15 192.15 360.75 190.24 357.25 190.11C353.75 189.98 351.11 191.65 350.75 191.21C350.57 191.01 351.01 190.21 352.16 189.49C353.714 188.496 355.537 188.007 357.38 188.09C359.198 188.15 360.949 188.788 362.38 189.91C363.44 190.78 363.77 191.56 363.57 191.74Z" fill="#263238"/>
<path d="M364.56 180C363.84 180.77 361.16 179.84 357.92 179.68C354.68 179.52 351.92 180 351.29 179.14C351.03 178.73 351.49 177.95 352.72 177.24C354.401 176.391 356.279 176.008 358.159 176.129C360.039 176.25 361.852 176.872 363.41 177.93C364.53 178.78 364.87 179.61 364.56 180Z" fill="#263238"/>
<path d="M384.86 211.65C384.86 209.75 387.05 205.29 388.92 205C393.92 204.22 402.92 204.62 402.99 217.28C403.11 234.6 385.7 231.16 385.66 230.66C385.62 230.16 384.85 218.18 384.86 211.65Z" fill="#FFBF9D"/>
<path d="M390.4 224.3C390.47 224.24 390.7 224.51 391.21 224.74C391.936 225.027 392.744 225.027 393.47 224.74C395.29 224.05 396.81 221.14 396.87 218.02C396.91 216.533 396.613 215.056 396 213.7C395.833 213.16 395.538 212.668 395.139 212.268C394.74 211.867 394.249 211.569 393.71 211.4C393.363 211.311 392.996 211.346 392.673 211.5C392.35 211.653 392.09 211.915 391.94 212.24C391.71 212.73 391.82 213.07 391.73 213.1C391.64 213.13 391.36 212.82 391.49 212.1C391.581 211.67 391.818 211.285 392.16 211.01C392.636 210.646 393.236 210.485 393.83 210.56C394.542 210.694 395.208 211.009 395.763 211.475C396.319 211.941 396.745 212.542 397 213.22C397.751 214.713 398.122 216.369 398.08 218.04C398 221.53 396.23 224.81 393.73 225.55C393.267 225.69 392.778 225.723 392.299 225.647C391.821 225.571 391.367 225.387 390.97 225.11C390.43 224.72 390.34 224.33 390.4 224.3Z" fill="#FF9A6C"/>
<path d="M305.92 180.89C309.42 178.7 311.66 175.72 311.44 171.6C313.76 172.29 316.12 169.31 317.44 167.3C318.76 165.29 320.44 164.3 320.35 161.86C320.285 161.383 320.343 160.898 320.52 160.45C320.87 159.79 321.7 159.57 322.41 159.35C324.257 158.753 325.925 157.703 327.262 156.295C328.598 154.887 329.56 153.166 330.06 151.29C333.787 152.927 337.862 153.614 341.92 153.29C342.823 154.596 344.043 155.651 345.465 156.358C346.886 157.064 348.464 157.399 350.051 157.33C351.637 157.261 353.18 156.791 354.535 155.964C355.89 155.137 357.014 153.979 357.8 152.6C358.385 153.656 359.19 154.573 360.162 155.29C361.134 156.006 362.248 156.504 363.43 156.75C365.792 157.225 368.21 157.357 370.61 157.14C370.163 159.488 370.579 161.919 371.78 163.986C372.982 166.052 374.888 167.616 377.15 168.39C377.76 168.58 378.47 168.77 378.76 169.39C378.845 169.714 378.865 170.051 378.818 170.382C378.772 170.713 378.66 171.032 378.49 171.32C378.161 172.316 378.035 173.368 378.122 174.414C378.208 175.46 378.504 176.477 378.992 177.406C379.48 178.334 380.15 179.155 380.963 179.819C381.775 180.483 382.713 180.976 383.72 181.27C383.063 181.856 382.546 182.583 382.209 183.396C381.873 184.21 381.724 185.089 381.775 185.968C381.826 186.847 382.075 187.703 382.504 188.473C382.932 189.242 383.529 189.904 384.25 190.41C384.88 190.79 385.7 191.24 385.6 191.97C385.543 192.247 385.412 192.503 385.22 192.71C383.93 194.42 382.65 196.3 382.49 198.43C382.33 200.56 383.78 202.97 385.92 203.07C385.317 203.521 384.81 204.089 384.432 204.74C384.054 205.391 383.812 206.113 383.72 206.86C383.72 208.37 385.22 209.86 386.62 209.36C387.22 209.13 395.84 207.43 396.22 206.92C401.12 200.27 394.96 192.92 394.48 184.67C393.826 176.396 391.262 168.386 386.99 161.27C385.323 158.227 383.258 155.419 380.85 152.92C377.95 150.236 374.756 147.888 371.33 145.92C366.95 143.19 362.45 140.48 357.43 139.29C348.09 137.09 338.43 140.48 329.66 144.51C326.288 145.924 323.123 147.788 320.25 150.05C317.011 153 314.325 156.505 312.32 160.4C309.23 165.91 306.66 171.85 306.05 178.13" fill="#263238"/>
<path d="M302.53 174.83C302.738 174.164 303.052 173.536 303.46 172.97C303.83 172.39 304.35 171.72 304.84 170.86C305.4 169.867 305.741 168.766 305.84 167.63C305.935 166.204 305.911 164.772 305.77 163.35C305.58 161.635 305.627 159.902 305.91 158.2C306.29 156.247 307.066 154.392 308.19 152.75C308.806 151.853 309.524 151.031 310.33 150.3C311.188 149.565 312.1 148.896 313.06 148.3C314.059 147.694 314.951 146.927 315.7 146.03C316.386 145.021 316.94 143.929 317.35 142.78C319.462 137.652 323.339 133.449 328.28 130.93C329.61 130.262 331.008 129.739 332.45 129.37C333.941 129.018 335.468 128.847 337 128.86C337.783 128.884 338.564 128.947 339.34 129.05C340.11 129.17 340.87 129.34 341.64 129.48C343.167 129.8 344.743 129.8 346.27 129.48C347.82 129.17 349.34 128.62 350.94 128.22C354.201 127.369 357.58 127.064 360.94 127.32C362.662 127.486 364.363 127.821 366.02 128.32C369.432 129.269 372.465 131.254 374.7 134C374.91 134.29 375.12 134.58 375.34 134.86L375.06 134.75C380.105 133.789 385.326 134.798 389.649 137.57C393.972 140.341 397.068 144.665 398.3 149.65L398.17 149.48C400.256 150.42 402.28 151.492 404.23 152.69C406.139 153.857 407.817 155.365 409.18 157.14C410.469 158.894 411.247 160.971 411.43 163.14C411.641 165.232 411.043 167.325 409.76 168.99V168.7C412.091 171.109 413.506 174.257 413.76 177.6C414.044 180.585 413.409 183.586 411.94 186.2C411.602 186.799 411.218 187.371 410.79 187.91C410.362 188.405 409.962 188.922 409.59 189.46C409.247 189.967 409.034 190.551 408.97 191.16C408.937 191.757 408.953 192.356 409.02 192.95C409.21 195.144 409.143 197.352 408.82 199.53C408.578 201.292 407.998 202.989 407.11 204.53C406.44 205.66 405.515 206.619 404.41 207.33C403.52 207.92 402.72 208.15 402.28 208.47C402.053 208.622 401.842 208.796 401.65 208.99C401.807 208.757 402.011 208.559 402.25 208.41C402.68 208.07 403.48 207.82 404.34 207.22C405.411 206.504 406.301 205.549 406.94 204.43C407.799 202.904 408.356 201.227 408.58 199.49C408.871 197.332 408.918 195.148 408.72 192.98C408.644 192.366 408.624 191.747 408.66 191.13C408.725 190.469 408.952 189.833 409.32 189.28C409.691 188.732 410.092 188.205 410.52 187.7C410.921 187.16 411.282 186.592 411.6 186C413.017 183.441 413.617 180.51 413.32 177.6C413.074 174.361 411.701 171.311 409.44 168.98L409.3 168.84L409.42 168.69C410.633 167.109 411.188 165.121 410.97 163.14C410.787 161.064 410.036 159.078 408.8 157.4C407.465 155.682 405.829 154.221 403.97 153.09C402.038 151.909 400.034 150.851 397.97 149.92L397.86 149.87V149.74C396.644 144.894 393.623 140.696 389.415 138.003C385.207 135.309 380.13 134.325 375.22 135.25H375.05L374.94 135.11C374.74 134.83 374.53 134.56 374.32 134.28C372.157 131.583 369.207 129.629 365.88 128.69C364.248 128.22 362.573 127.912 360.88 127.77C357.584 127.513 354.269 127.807 351.07 128.64C349.5 129.03 347.96 129.59 346.36 129.9C345.563 130.06 344.753 130.14 343.94 130.14C343.138 130.119 342.338 130.032 341.55 129.88C340.78 129.74 340.02 129.57 339.26 129.45C338.507 129.347 337.749 129.284 336.99 129.26C335.499 129.241 334.011 129.406 332.56 129.75C331.15 130.106 329.782 130.612 328.48 131.26C323.614 133.731 319.791 137.859 317.7 142.9C317.274 144.081 316.699 145.204 315.99 146.24C315.209 147.163 314.284 147.953 313.25 148.58C312.294 149.172 311.388 149.841 310.54 150.58C309.754 151.29 309.052 152.089 308.45 152.96C307.334 154.557 306.561 156.369 306.18 158.28C305.886 159.953 305.822 161.659 305.99 163.35C306.119 164.787 306.119 166.233 305.99 167.67C305.891 168.825 305.55 169.945 304.99 170.96C304.47 171.83 303.94 172.48 303.56 173.05C303.263 173.469 302.999 173.91 302.77 174.37C302.6 174.66 302.54 174.83 302.53 174.83Z" fill="#455A64"/>
<path d="M367 131.19C367 131.19 366.54 130.93 365.7 130.51C364.516 129.928 363.241 129.552 361.93 129.4C359.991 129.157 358.022 129.441 356.23 130.22C354.034 131.185 352.202 132.824 351 134.9C350.636 135.532 350.344 136.203 350.13 136.9C350.019 137.195 349.973 137.51 349.995 137.824C350.018 138.138 350.108 138.444 350.26 138.72L350.68 139.31L349.98 139.11C348.179 138.618 346.258 138.844 344.62 139.74C343.325 140.468 342.296 141.588 341.68 142.94C341.266 143.835 341.035 144.804 341 145.79C341 146.48 341 146.86 341 146.87C341 146.88 341 146.78 340.92 146.6C340.865 146.333 340.835 146.062 340.83 145.79C340.798 144.494 341.114 143.212 341.745 142.08C342.377 140.947 343.3 140.004 344.42 139.35C346.154 138.366 348.205 138.104 350.13 138.62L349.85 139.01C349.649 138.674 349.526 138.298 349.492 137.908C349.457 137.518 349.511 137.126 349.65 136.76C349.87 136.033 350.175 135.335 350.56 134.68C351.803 132.513 353.715 130.807 356.01 129.82C357.891 128.993 359.966 128.709 362 129C363.344 129.183 364.64 129.621 365.82 130.29C366.14 130.468 366.448 130.669 366.74 130.89C366.91 131.09 367 131.17 367 131.19Z" fill="#455A64"/>
<path d="M395.05 151.14C395.05 151.14 394.87 151.39 394.45 151.75C393.835 152.275 393.164 152.731 392.45 153.11C391.387 153.692 390.209 154.034 389 154.11C387.453 154.226 385.919 153.758 384.7 152.8L385.08 152.74C384.92 152.97 384.75 153.21 384.57 153.45C384.39 153.69 384.18 153.9 383.98 154.13C382.78 155.367 381.292 156.287 379.65 156.81C378.32 157.25 376.917 157.424 375.52 157.32C374.584 157.247 373.663 157.035 372.79 156.69C372.469 156.574 372.165 156.412 371.89 156.21C373.071 156.607 374.297 156.856 375.54 156.95C376.898 157.004 378.255 156.804 379.54 156.36C381.091 155.83 382.495 154.943 383.64 153.77C383.83 153.55 384.03 153.35 384.2 153.13L384.69 152.46L384.86 152.22L385.07 152.4C386.19 153.285 387.595 153.73 389.02 153.65C390.176 153.594 391.308 153.294 392.34 152.77C394.1 151.91 395 151.06 395.05 151.14Z" fill="#455A64"/>
<path d="M404.17 167.22C404.17 167.22 404.17 167.33 404.17 167.54C404.087 167.836 403.955 168.117 403.78 168.37C403.113 169.317 402.113 169.978 400.98 170.22C399.315 170.518 397.599 170.327 396.04 169.67C395.11 169.362 394.199 169.002 393.31 168.59C392.283 168.165 391.437 167.394 390.92 166.41C390.92 166.31 390.85 166.21 390.81 166.13L391.22 166.25C389.673 167.529 387.939 168.564 386.08 169.32C384.534 169.933 382.848 170.107 381.21 169.82C380.108 169.631 379.075 169.159 378.21 168.45C377.976 168.258 377.765 168.04 377.58 167.8C377.46 167.64 377.4 167.55 377.42 167.54C377.44 167.53 377.72 167.84 378.33 168.29C379.198 168.909 380.204 169.307 381.26 169.45C382.83 169.678 384.432 169.482 385.9 168.88C387.703 168.127 389.387 167.117 390.9 165.88L391.18 165.66L391.31 166L391.4 166.24C391.866 167.11 392.618 167.792 393.53 168.17C394.42 168.6 395.34 168.94 396.2 169.26C397.676 169.908 399.304 170.13 400.9 169.9C401.964 169.704 402.924 169.137 403.61 168.3C403.825 167.955 404.012 167.594 404.17 167.22Z" fill="#455A64"/>
<path d="M422.85 105.41C422.85 105.41 422.55 105.41 422.03 105.56C421.274 105.77 420.598 106.202 420.09 106.8C419.293 107.724 418.832 108.891 418.78 110.11C418.757 111.706 418.972 113.297 419.42 114.83L419.49 115.11H419.2C417.056 115.051 414.95 115.689 413.2 116.93C412.218 117.614 411.409 118.519 410.838 119.571C410.267 120.623 409.949 121.794 409.91 122.99C409.855 124.08 410.053 125.168 410.489 126.169C410.924 127.17 411.585 128.057 412.42 128.76L413 129.22H412.26C411.025 129.22 409.804 129.476 408.673 129.972C407.543 130.468 406.527 131.192 405.69 132.1C404.356 133.559 403.568 135.436 403.46 137.41C403.38 138.71 403.578 140.012 404.04 141.23C404.36 142.09 404.63 142.51 404.6 142.54C404.512 142.452 404.438 142.351 404.38 142.24C404.187 141.941 404.02 141.627 403.88 141.3C403.345 140.068 403.092 138.732 403.14 137.39C403.204 135.323 403.994 133.344 405.37 131.8C406.24 130.835 407.303 130.062 408.489 129.531C409.676 129.001 410.96 128.725 412.26 128.72L412.11 129.17C411.208 128.42 410.493 127.47 410.021 126.396C409.548 125.321 409.333 124.152 409.39 122.98C409.404 121.672 409.748 120.389 410.39 119.25C411.019 118.178 411.867 117.251 412.88 116.53C414.72 115.239 416.934 114.589 419.18 114.68L418.96 114.95C418.522 113.372 418.333 111.736 418.4 110.1C418.478 108.813 419.001 107.593 419.88 106.65C420.432 106.038 421.164 105.618 421.97 105.45C422.177 105.408 422.389 105.391 422.6 105.4C422.78 105.39 422.85 105.4 422.85 105.41Z" fill="#455A64"/>
<path d="M453.68 143C453.68 143 453.59 143.07 453.4 143.17C453.21 143.27 452.92 143.42 452.53 143.57C451.41 143.995 450.235 144.258 449.04 144.35C447.201 144.495 445.351 144.27 443.6 143.69C441.346 142.959 439.332 141.632 437.77 139.85H438.16C437.337 141.262 436.211 142.473 434.861 143.395C433.512 144.317 431.974 144.927 430.36 145.18C428.622 145.416 426.854 145.098 425.307 144.272C423.76 143.447 422.512 142.155 421.74 140.58H422.19C421.764 141.724 421.043 142.734 420.1 143.51C419.257 144.211 418.295 144.756 417.26 145.12C415.558 145.671 413.758 145.855 411.98 145.66C410.835 145.555 409.698 145.368 408.58 145.1C408.178 145.027 407.784 144.92 407.4 144.78C407.807 144.804 408.212 144.861 408.61 144.95C409.732 145.151 410.863 145.291 412 145.37C413.732 145.509 415.474 145.294 417.12 144.74C418.157 144.4 419.107 143.837 419.903 143.091C420.7 142.344 421.323 141.433 421.73 140.42L421.94 139.84L422.18 140.4C422.919 141.868 424.097 143.07 425.55 143.837C427.004 144.604 428.661 144.899 430.29 144.68C431.828 144.435 433.294 143.855 434.583 142.981C435.873 142.106 436.954 140.959 437.75 139.62L437.92 139.33L438.14 139.59C439.639 141.319 441.572 142.617 443.74 143.35C445.433 143.946 447.228 144.201 449.02 144.1C450.62 143.971 452.191 143.6 453.68 143Z" fill="#455A64"/>
<path d="M435.47 168.3C435.47 168.3 435.47 168.44 435.27 168.62C434.989 168.864 434.64 169.014 434.27 169.05C432.96 169.157 431.644 168.937 430.44 168.41C428.625 167.668 427.086 166.378 426.04 164.72C424.768 162.664 424.318 160.203 424.78 157.83V157.78L425.15 158.06C422.996 159.106 420.565 159.439 418.21 159.01C416.306 158.661 414.506 157.881 412.95 156.73C411.911 155.96 410.98 155.056 410.18 154.04C409.874 153.678 409.615 153.278 409.41 152.85C410.505 154.196 411.765 155.399 413.16 156.43C414.693 157.502 416.445 158.219 418.29 158.53C420.54 158.914 422.853 158.589 424.91 157.6L425.38 157.36L425.29 157.88V157.93C424.881 159.97 425.183 162.089 426.146 163.934C427.108 165.778 428.673 167.238 430.58 168.07C431.724 168.607 432.976 168.874 434.24 168.85C434.471 168.844 434.699 168.793 434.91 168.698C435.121 168.604 435.311 168.468 435.47 168.3Z" fill="#455A64"/>
<path d="M385 106C384.413 107.71 384.145 109.513 384.21 111.32C384.37 114.183 385.561 116.892 387.562 118.945C389.564 120.998 392.242 122.258 395.1 122.49H395.42L395.32 122.8C394.305 126.077 394.425 129.6 395.66 132.8C395.851 133.335 396.085 133.853 396.36 134.35C396.448 134.531 396.577 134.689 396.737 134.813C396.897 134.936 397.082 135.02 397.28 135.06C397.403 135.076 397.529 135.065 397.647 135.029C397.766 134.993 397.876 134.932 397.97 134.85C398.09 134.72 398.12 134.62 398.14 134.63C398.16 134.64 398.14 134.74 398.04 134.91C397.945 135.022 397.824 135.109 397.689 135.165C397.553 135.22 397.406 135.243 397.26 135.23C397.029 135.206 396.807 135.126 396.613 134.997C396.42 134.868 396.261 134.694 396.15 134.49C395.839 133.994 395.572 133.472 395.35 132.93C393.99 129.67 393.809 126.038 394.84 122.66L395.06 122.99C393.628 122.886 392.226 122.527 390.92 121.93C388.853 121.02 387.089 119.54 385.835 117.662C384.581 115.784 383.889 113.588 383.84 111.33C383.791 109.974 383.98 108.62 384.4 107.33C384.514 106.988 384.651 106.654 384.81 106.33C384.857 106.211 384.921 106.1 385 106Z" fill="#455A64"/>
<path d="M396.85 205.65V202.89L369.11 194C359.22 189.77 345.11 192.22 336.83 197.33L329.64 197.52L329.71 197.41C321.48 190.92 307.61 189.61 296.85 194.3L297.11 195.45C297.11 195.52 297.18 195.69 297.23 195.93L297.47 196.93C298.92 203.31 300.63 210.06 302.34 211.87C303.49 213.09 307.34 213.76 310.52 214.1C311.72 214.24 312.82 214.32 313.61 214.38C314.56 214.44 322.99 214.97 324.43 213.67C325.87 212.37 328.67 201.97 329.43 198.84L336.8 198.68C337.68 201.15 339.18 212.23 342.72 214.46C346.26 216.69 361.78 216.02 363.54 213.46C364.79 211.63 369.12 200.76 370.1 197.33L370.25 197.03L396.85 205.65ZM323.6 212.65C322.03 213.89 305.24 213.02 303.25 210.92C301.57 209.14 299.5 200.04 298.72 196.62V196.48C308.32 192.83 320.82 193.99 327.98 199.48C326.56 204.88 324.5 211.81 323.6 212.62V212.65ZM362.51 212.65C361.41 214.27 347.07 215.59 343.42 213.29C340.88 211.7 339.54 203.96 338.42 199.52C346.51 194.68 360.34 192.64 369.12 197C367.392 202.398 365.179 207.63 362.51 212.63V212.65Z" fill="#263238"/>
<g opacity="0.3">
<path d="M339.87 200.41C339.87 200.41 341.38 211.26 344.5 211.76C347.62 212.26 351.34 195.87 351.34 195.87C351.34 195.87 341.85 197.75 339.87 200.41Z" fill="white"/>
</g>
<g opacity="0.3">
<path d="M299.92 196.93C299.92 196.93 301.43 209.25 304.55 209.75C307.67 210.25 313.94 195.24 313.94 195.24C313.94 195.24 301.9 194.27 299.92 196.93Z" fill="white"/>
</g>
<path d="M396.12 397.65C392.82 394.18 382.33 385.45 379.23 384.22C376.13 382.99 366.48 405.66 365.86 411.6C365.24 417.54 368.6 425.34 372.78 430.55C378.78 437.99 393.17 447.12 398.63 449.66C404.09 452.2 419.63 461.09 429.03 441.1C438.43 421.11 437.23 421.27 439.88 413.03C443.97 400.27 447.36 375.11 449.42 359.8C451.175 345.81 451.747 331.696 451.13 317.61C450.47 305.22 446.99 294.07 438.66 286.4C431.66 279.95 408.3 336.47 408.3 336.97C408.3 337.47 397.54 397.53 397.54 397.53" fill="#455A64"/>
<path d="M318.87 324.72C318.87 324.72 316.63 320.88 324.74 319.72C332.85 318.56 338.68 319.87 340.5 320.65C342.32 321.43 352.5 331.02 353.3 332.88C355.5 337.88 359.18 353.03 359.18 353.03L364.18 360.1L352.43 381.19C351.348 379.926 350.175 378.743 348.92 377.65C347.16 376.17 341.87 374.41 340.8 369.98C339.731 366.398 338.286 362.939 336.49 359.66C336.49 359.66 316.77 355.39 315.02 354.5C313.27 353.61 313.4 350.96 313.4 350.96C311.333 350.733 309.282 350.376 307.26 349.89C306.18 349.45 303.67 345.89 307.86 344.02C312.05 342.15 325.96 341.08 327.86 341.08C329.76 341.08 338.8 342.26 338.8 342.26C338.8 342.26 326.92 339.58 323.28 339.26C319.64 338.94 311.41 339.15 310.09 338.85C308.44 338.47 307.35 334.59 310.44 333.18C314.18 331.47 320.15 330.94 321.51 330.89C326.78 330.7 339.42 332.64 339.42 332.64L334.86 327.57C331.15 326.895 327.398 326.484 323.63 326.34C321.915 326.301 320.253 325.735 318.87 324.72Z" fill="#FFBF9D"/>
<path d="M347 375.19L380.05 424.65C380.05 424.65 394.05 407.56 395.05 395.12L395.67 389.01L358.67 353.01L347 375.19Z" fill="#FFBF9D"/>
<path d="M337.56 351.05C336.357 350.984 335.159 350.854 333.97 350.66C331.77 350.4 328.71 350.13 325.32 350.07C321.93 350.01 318.86 350.2 316.65 350.39C315.456 350.551 314.254 350.648 313.05 350.68C313.352 350.561 313.668 350.48 313.99 350.44C314.61 350.31 315.5 350.17 316.61 350.03C319.502 349.665 322.416 349.505 325.33 349.55C328.24 349.599 331.143 349.846 334.02 350.29C335.13 350.47 336.02 350.64 336.62 350.78C336.944 350.829 337.26 350.92 337.56 351.05Z" fill="#FF9A6C"/>
<path d="M416.81 393.61C416.379 393.386 415.971 393.122 415.59 392.82L412.39 390.52C409.7 388.52 406 385.81 401.94 382.76C400.078 381.274 398.067 379.983 395.94 378.91C395.006 378.488 394.035 378.153 393.04 377.91C392.173 377.676 391.286 377.529 390.39 377.47C389.1 377.361 387.809 377.662 386.7 378.33C385.93 378.82 385.59 379.22 385.55 379.19C385.51 379.16 385.62 379.07 385.78 378.88C386.023 378.611 386.294 378.369 386.59 378.16C387.709 377.391 389.054 377.017 390.41 377.1C391.331 377.139 392.245 377.27 393.14 377.49C394.17 377.724 395.175 378.059 396.14 378.49C398.298 379.555 400.334 380.853 402.21 382.36C406.28 385.42 409.94 388.2 412.57 390.24L415.68 392.68C416.086 392.953 416.464 393.264 416.81 393.61Z" fill="#263238"/>
<path d="M432.75 393.71C432.68 393.78 431.52 392.43 429.38 390.58C428.111 389.497 426.775 388.495 425.38 387.58C422.002 385.34 418.289 383.652 414.38 382.58C412.779 382.144 411.153 381.81 409.51 381.58C406.69 381.18 404.92 381.19 404.92 381.09C405.333 381.018 405.752 380.995 406.17 381.02C406.656 380.992 407.144 380.992 407.63 381.02C408.19 381.02 408.84 381.07 409.55 381.17C411.237 381.356 412.908 381.663 414.55 382.09C416.537 382.628 418.48 383.32 420.36 384.16C422.227 385.022 424.026 386.025 425.74 387.16C427.129 388.108 428.449 389.154 429.69 390.29C430.23 390.76 430.69 391.24 431.07 391.64C431.422 391.983 431.755 392.343 432.07 392.72C432.333 393.024 432.561 393.356 432.75 393.71Z" fill="#263238"/>
<path d="M427.16 286.75C426.807 287.172 426.422 287.566 426.01 287.93C425.62 288.29 425.16 288.74 424.65 289.3C424.14 289.86 423.52 290.44 422.92 291.18C422.32 291.92 421.62 292.67 420.92 293.56C420.22 294.45 419.55 295.41 418.83 296.43C415.803 300.941 413.508 305.902 412.03 311.13C411.72 312.34 411.4 313.48 411.2 314.58C411 315.68 410.79 316.69 410.65 317.58C410.51 318.47 410.42 319.37 410.34 320.12C410.26 320.87 410.2 321.51 410.17 322.04C410.163 322.593 410.113 323.145 410.02 323.69C409.956 323.139 409.94 322.584 409.97 322.03C409.97 321.5 409.97 320.85 410.05 320.09C410.13 319.33 410.14 318.48 410.28 317.53C410.42 316.58 410.54 315.53 410.77 314.45C411 313.37 411.27 312.19 411.57 310.96C413.01 305.663 415.333 300.646 418.44 296.12C419.17 295.12 419.86 294.12 420.58 293.26C421.3 292.4 421.97 291.59 422.58 290.89C423.19 290.19 423.84 289.58 424.38 289.05C424.834 288.589 425.311 288.152 425.81 287.74C426.232 287.373 426.683 287.042 427.16 286.75Z" fill="#263238"/>
<path d="M396.12 397.65C392.82 394.18 382.33 385.45 379.23 384.22C376.13 382.99 366.48 405.66 365.86 411.6C365.24 417.54 368.6 425.34 372.78 430.55C378.78 437.99 393.17 447.12 398.63 449.66C404.09 452.2 419.63 461.09 429.03 441.1C438.43 421.11 437.23 421.27 439.88 413.03C443.97 400.27 447.36 375.11 449.42 359.8C451.175 345.81 451.747 331.696 451.13 317.61C450.47 305.22 446.99 294.07 438.66 286.4C431.66 279.95 408.3 336.47 408.3 336.97C408.3 337.47 397.54 397.53 397.54 397.53" fill="#455A64"/>
<path d="M318.87 324.72C318.87 324.72 316.63 320.88 324.74 319.72C332.85 318.56 338.68 319.87 340.5 320.65C342.32 321.43 352.5 331.02 353.3 332.88C355.5 337.88 359.18 353.03 359.18 353.03L364.18 360.1L352.43 381.19C351.348 379.926 350.175 378.743 348.92 377.65C347.16 376.17 341.87 374.41 340.8 369.98C339.731 366.398 338.286 362.939 336.49 359.66C336.49 359.66 316.77 355.39 315.02 354.5C313.27 353.61 313.4 350.96 313.4 350.96C311.333 350.733 309.282 350.376 307.26 349.89C306.18 349.45 303.67 345.89 307.86 344.02C312.05 342.15 325.96 341.08 327.86 341.08C329.76 341.08 338.8 342.26 338.8 342.26C338.8 342.26 326.92 339.58 323.28 339.26C319.64 338.94 311.41 339.15 310.09 338.85C308.44 338.47 307.35 334.59 310.44 333.18C314.18 331.47 320.15 330.94 321.51 330.89C326.78 330.7 339.42 332.64 339.42 332.64L334.86 327.57C331.15 326.895 327.398 326.484 323.63 326.34C321.915 326.301 320.253 325.735 318.87 324.72Z" fill="#FFBF9D"/>
<path d="M347 375.19L380.05 424.65C380.05 424.65 394.05 407.56 395.05 395.12L395.67 389.01L358.67 353.01L347 375.19Z" fill="#FFBF9D"/>
<path d="M337.56 351.05C336.357 350.984 335.159 350.854 333.97 350.66C331.77 350.4 328.71 350.13 325.32 350.07C321.93 350.01 318.86 350.2 316.65 350.39C315.456 350.551 314.254 350.648 313.05 350.68C313.352 350.561 313.668 350.48 313.99 350.44C314.61 350.31 315.5 350.17 316.61 350.03C319.502 349.665 322.416 349.505 325.33 349.55C328.24 349.599 331.143 349.846 334.02 350.29C335.13 350.47 336.02 350.64 336.62 350.78C336.944 350.829 337.26 350.92 337.56 351.05Z" fill="#FF9A6C"/>
<path d="M416.81 393.61C416.379 393.386 415.971 393.122 415.59 392.82L412.39 390.52C409.7 388.52 406 385.81 401.94 382.76C400.078 381.274 398.067 379.983 395.94 378.91C395.006 378.488 394.035 378.153 393.04 377.91C392.173 377.676 391.286 377.529 390.39 377.47C389.1 377.361 387.809 377.662 386.7 378.33C385.93 378.82 385.59 379.22 385.55 379.19C385.51 379.16 385.62 379.07 385.78 378.88C386.023 378.611 386.294 378.369 386.59 378.16C387.709 377.391 389.054 377.017 390.41 377.1C391.331 377.139 392.245 377.27 393.14 377.49C394.17 377.724 395.175 378.059 396.14 378.49C398.298 379.555 400.334 380.853 402.21 382.36C406.28 385.42 409.94 388.2 412.57 390.24L415.68 392.68C416.086 392.953 416.464 393.264 416.81 393.61Z" fill="#263238"/>
<path d="M408.3 337C408.308 337.268 408.291 337.535 408.25 337.8C408.19 338.38 408.1 339.14 408 340.1C407.75 342.15 407.4 345.03 407 348.55L403.43 376.4C403.14 378.59 402.86 380.73 402.59 382.78L402.34 382.49C411.84 382.49 420.11 384.87 425.34 387.78C427.417 388.878 429.338 390.251 431.05 391.86C431.513 392.29 431.951 392.748 432.36 393.23C432.514 393.386 432.651 393.557 432.77 393.74C432.77 393.74 432.14 393.09 430.92 392C429.176 390.461 427.248 389.144 425.18 388.08C419.96 385.28 411.76 383.01 402.34 383H402V382.71C402.27 380.66 402.55 378.52 402.83 376.33C404.28 365.49 405.59 355.67 406.55 348.51C407.05 344.99 407.45 342.12 407.74 340.08C407.88 339.08 408 338.36 408.09 337.79C408.133 337.52 408.204 337.256 408.3 337Z" fill="#263238"/>
<path d="M427.16 286.75C426.807 287.172 426.422 287.566 426.01 287.93C425.62 288.29 425.16 288.74 424.65 289.3C424.14 289.86 423.52 290.44 422.92 291.18C422.32 291.92 421.62 292.67 420.92 293.56C420.22 294.45 419.55 295.41 418.83 296.43C415.803 300.941 413.508 305.902 412.03 311.13C411.72 312.34 411.4 313.48 411.2 314.58C411 315.68 410.79 316.69 410.65 317.58C410.51 318.47 410.42 319.37 410.34 320.12C410.26 320.87 410.2 321.51 410.17 322.04C410.163 322.593 410.113 323.145 410.02 323.69C409.956 323.139 409.94 322.584 409.97 322.03C409.97 321.5 409.97 320.85 410.05 320.09C410.13 319.33 410.14 318.48 410.28 317.53C410.42 316.58 410.54 315.53 410.77 314.45C411 313.37 411.27 312.19 411.57 310.96C413.01 305.663 415.333 300.646 418.44 296.12C419.17 295.12 419.86 294.12 420.58 293.26C421.3 292.4 421.97 291.59 422.58 290.89C423.19 290.19 423.84 289.58 424.38 289.05C424.834 288.589 425.311 288.152 425.81 287.74C426.232 287.373 426.683 287.042 427.16 286.75Z" fill="#263238"/>
<path d="M253.43 362.29C253.43 362.29 244.96 341.35 246.6 334.29C246.703 333.869 246.944 333.494 247.285 333.226C247.625 332.957 248.046 332.811 248.48 332.81C248.829 332.806 249.173 332.896 249.474 333.072C249.775 333.249 250.023 333.504 250.19 333.81L261.19 355.02C261.19 355.02 262.65 351.14 265.82 349.78C269.18 348.538 272.601 347.467 276.07 346.57L286.01 347.81C286.395 347.856 286.76 348.009 287.064 348.251C287.367 348.493 287.597 348.815 287.728 349.181C287.859 349.546 287.885 349.941 287.804 350.32C287.723 350.7 287.538 351.05 287.27 351.33C285.641 352.856 283.502 353.722 281.27 353.76C274.06 354.36 272.18 356.02 272.18 356.02L268.58 362.22C268.58 362.22 276.18 357.02 278.58 356.82C280.45 356.67 290.8 356.45 295.29 356.36C296.12 356.334 296.937 356.573 297.622 357.042C298.307 357.512 298.824 358.187 299.1 358.97C299.57 360.4 299.24 361.97 296.04 362.82C296.04 362.82 299.55 364.64 294.78 367.02C291.872 368.439 288.864 369.642 285.78 370.62L278.98 375.21L267.59 383.21L254.2 374.02C254.2 374.02 249.43 368.96 252.4 364.73C252.84 363.961 253.186 363.142 253.43 362.29Z" fill="#FFBF9D"/>
<path d="M286.62 369.19C286.62 369.19 293 374.63 294.4 378.03C295.8 381.43 297 384.88 294.81 393.08C292.62 401.28 274.28 393.08 274.28 393.08C273.77 389.72 269.67 385.68 265.09 381.54L282.21 368.89L286.62 369.19Z" fill="#FFBF9D"/>
<path d="M263 352.12C262.718 352.706 262.383 353.265 262 353.79C261.33 354.79 260.45 356.22 259.49 357.79C257.58 360.97 255.96 363.51 255.82 363.42C256.033 362.794 256.321 362.196 256.68 361.64C257.26 360.57 258.08 359.11 259.04 357.52C260.89 354.33 262.86 352 263 352.12Z" fill="#FF9A6C"/>
<path d="M296.29 362.68C295.966 362.779 295.629 362.833 295.29 362.84L292.51 363.07C290.16 363.25 286.9 363.43 283.33 363.64C279.65 363.64 277.17 366.08 275.33 367.49C274.383 368.354 273.381 369.156 272.33 369.89C272.531 369.612 272.762 369.357 273.02 369.13C273.49 368.67 274.18 368 275.02 367.21C276.045 366.266 277.141 365.404 278.3 364.63C278.999 364.165 279.76 363.802 280.56 363.55C281.424 363.323 282.308 363.18 283.2 363.12C286.8 362.91 290.04 362.78 292.4 362.7C293.57 362.7 294.53 362.64 295.19 362.64C295.557 362.603 295.927 362.617 296.29 362.68Z" fill="#FF9A6C"/>
<path d="M269 362.34C269.09 362.46 268.5 363.04 267.9 363.86C267.3 364.68 266.9 365.42 266.78 365.37C266.66 365.32 266.78 364.44 267.48 363.55C268.18 362.66 268.88 362.22 269 362.34Z" fill="#FF9A6C"/>
<path d="M294.16 367.54C293.627 367.902 293.044 368.185 292.43 368.38C291.34 368.82 289.8 369.38 288.11 369.96C284.73 371.14 282.11 372.39 282.04 372.26C283.855 371.045 285.84 370.105 287.93 369.47C289.63 368.86 291.19 368.38 292.31 368.03C292.904 367.79 293.525 367.625 294.16 367.54Z" fill="#FF9A6C"/>
</svg>
