<svg width="500" height="500" viewBox="0 0 500 500" fill="none" xmlns="http://www.w3.org/2000/svg">
<path d="M60.2902 120.18L45.6802 190.68C52.1802 197.28 59.0702 203.51 70.1902 205.86L123.69 215.26L136.26 132.39L60.2902 120.18Z" fill="#FAFAFA"/>
<path d="M57.2401 115.83L42.6301 186.33L67.1401 201.51L120.64 210.91L136.44 131.36L57.2401 115.83Z" fill="#F5F5F5"/>
<path d="M52.6001 182.57L42.6001 186.33C42.6001 186.33 46.2001 192.2 51.4501 195.33C56.236 198.344 61.5497 200.424 67.1101 201.46C67.1101 201.46 55.4601 195.7 52.6001 182.57Z" fill="#E0E0E0"/>
<path d="M49.1002 130.96L85.6702 119.62L83.3402 111.92L46.1702 122.73L49.1002 130.96Z" fill="#EBEBEB"/>
<path d="M142.77 150.38L119.06 120.31L112.72 125.25L136.13 156.07L142.77 150.38Z" fill="#EBEBEB"/>
<path d="M122.68 154.78C122.68 154.92 109.15 152.4 92.52 149.15C75.89 145.9 62.43 143.15 62.46 143C62.49 142.85 75.99 145.38 92.62 148.63C109.25 151.88 122.71 154.64 122.68 154.78Z" fill="#E0E0E0"/>
<path d="M120.29 165.59C120.29 165.73 106.76 163.21 90.1301 159.95C73.5001 156.69 60.0001 154 60.0701 153.81C60.1401 153.62 73.6001 156.19 90.2301 159.44C106.86 162.69 120.32 165.45 120.29 165.59Z" fill="#E0E0E0"/>
<path d="M118.74 175.28C118.74 175.42 105.21 172.9 88.59 169.65C71.97 166.4 58.5 163.65 58.52 163.5C58.54 163.35 72.05 165.88 88.69 169.14C105.33 172.4 118.77 175.14 118.74 175.28Z" fill="#E0E0E0"/>
<path d="M116.87 184.54C116.87 184.68 103.34 182.16 86.7102 178.9C70.0802 175.64 56.6202 172.9 56.6502 172.76C56.6802 172.62 70.1802 175.14 86.8102 178.39C103.44 181.64 116.89 184.4 116.87 184.54Z" fill="#E0E0E0"/>
<path d="M402.63 87.76L383.72 133.85C377.45 135.12 371.08 136.03 363.79 133.08L329.46 117.77L354.33 65.36L402.63 87.76Z" fill="#FAFAFA"/>
<path d="M406.06 86.44L387.16 132.54L367.22 131.76L332.89 116.45L354.62 64.7L406.06 86.44Z" fill="#F5F5F5"/>
<path d="M382.89 126.52L387.16 132.52C384.451 133.691 381.531 134.294 378.58 134.29C374.667 134.162 370.813 133.297 367.22 131.74C367.22 131.74 376.17 133 382.89 126.52Z" fill="#E0E0E0"/>
<path d="M404.87 98.27L388.28 77.62L392.6 74.1L409.74 94.68L404.87 98.27Z" fill="#EBEBEB"/>
<path d="M343.63 73.17L368.86 65.09L370.59 70.38L345.23 79L343.63 73.17Z" fill="#EBEBEB"/>
<path d="M353.45 83.46C353.5 83.33 362.3 86.93 373.1 91.46C383.9 95.99 392.61 99.84 392.55 99.97C392.49 100.1 383.7 96.51 372.9 91.97C362.1 87.43 353.39 83.59 353.45 83.46Z" fill="#E0E0E0"/>
<path d="M350.64 90.59C350.69 90.45 359.49 94.05 370.29 98.59C381.09 103.13 389.79 106.97 389.74 107.1C389.69 107.23 380.88 103.64 370.09 99.1C359.3 94.56 350.58 90.72 350.64 90.59Z" fill="#E0E0E0"/>
<path d="M347.77 96.75C347.83 96.61 356.63 100.21 367.42 104.75C378.21 109.29 386.93 113.13 386.87 113.26C386.81 113.39 378.02 109.8 367.22 105.26C356.42 100.72 347.72 96.88 347.77 96.75Z" fill="#E0E0E0"/>
<path d="M345.27 102.78C345.32 102.65 354.12 106.25 364.92 110.78C375.72 115.31 384.42 119.16 384.37 119.29C384.32 119.42 375.51 115.83 364.71 111.29C353.91 106.75 345.21 102.91 345.27 102.78Z" fill="#E0E0E0"/>
<path d="M382.07 284.19C366.75 271.71 364.64 250.49 366.68 231.71C367.02 228.57 366.92 225.24 368.62 222.59C370.32 219.94 373.95 218.32 376.62 219.85C378.87 221.12 379.69 223.91 380.83 226.25C382.351 229.376 384.726 232.008 387.68 233.84C389.6 235.03 392.03 235.84 394.09 234.9C396.91 233.61 397.51 229.9 397.72 226.76C398.12 220.933 398.517 215.103 398.91 209.27C398.955 206.132 399.505 203.022 400.54 200.06C401.73 197.16 404.08 194.57 407.12 193.95C410.16 193.33 413.7 195.33 414.12 198.44C414.138 199.74 414.071 201.039 413.92 202.33C413.92 203.64 414.4 205.12 415.61 205.57C416.82 206.02 418.15 205.24 419.15 204.39C422.61 201.48 425.1 197.57 427.45 193.68C429.8 189.79 432.09 185.8 435.27 182.57C438.45 179.34 442.7 176.92 447.2 176.99C451.7 177.06 456.26 180.19 457.06 184.67C457.86 189.15 454.97 193.44 451.91 196.8C447.367 201.785 442.126 206.086 436.35 209.57C435.242 210.083 434.325 210.934 433.73 212C432.9 214 434.73 216.25 436.73 217.09C439.01 218.04 441.55 217.99 443.97 218.45C446.39 218.91 448.97 220.19 449.7 222.56C450.7 225.85 447.82 229.01 445.03 231C439.439 235.008 433.197 238.019 426.58 239.9C424.22 240.58 421.74 241.13 419.77 242.61C417.8 244.09 416.47 246.82 417.42 249.1C418.37 251.38 421.21 252.31 423.65 252.04C426.09 251.77 428.34 250.62 430.7 249.93C435.12 248.62 440.64 249.33 443.12 253.25C444.75 255.82 444.65 259.25 443.52 262.07C442.259 264.859 440.453 267.368 438.21 269.45C430.794 277.119 421.478 282.685 411.21 285.58C400.99 288.3 391.69 288.58 382.05 284.19" fill="#F5F5F5"/>
<path d="M380.79 298.13C382.301 289.465 384.646 280.965 387.79 272.75C391.673 262.725 396.13 252.932 401.14 243.42L405.04 235.91C406.32 233.45 407.59 231 408.99 228.69C411.672 224.259 414.596 219.979 417.75 215.87C420.75 211.93 423.75 208.3 426.52 204.87C429.29 201.44 432.02 198.41 434.59 195.69C438.617 191.386 442.981 187.411 447.64 183.8C449.29 182.52 450.64 181.57 451.49 180.94L452.49 180.22C452.602 180.135 452.723 180.061 452.85 180C452.747 180.098 452.636 180.188 452.52 180.27L451.52 181.03C450.65 181.69 449.36 182.67 447.74 183.98C443.146 187.648 438.837 191.659 434.85 195.98C432.3 198.7 429.64 201.8 426.85 205.18C424.06 208.56 421.1 212.18 418.13 216.18C415.001 220.283 412.097 224.553 409.43 228.97C408.05 231.27 406.79 233.69 405.5 236.16C404.21 238.63 402.93 241.16 401.61 243.66C396.611 253.156 392.147 262.925 388.24 272.92C385.083 281.099 382.703 289.556 381.13 298.18" fill="#E0E0E0"/>
<path d="M409.17 228.68C409.052 228.239 408.985 227.786 408.97 227.33C408.87 226.45 408.76 225.18 408.66 223.61C408.45 220.46 408.3 216.11 408.16 211.31C408.02 206.51 407.82 202.17 407.56 199.03C407.44 197.47 407.32 196.2 407.23 195.32C407.158 194.867 407.135 194.408 407.16 193.95C407.305 194.385 407.402 194.834 407.45 195.29C407.61 196.16 407.79 197.43 407.97 198.99C408.33 202.13 408.6 206.48 408.74 211.29C408.88 216.1 408.98 220.29 409.07 223.59C409.07 225.06 409.16 226.31 409.19 227.31C409.237 227.766 409.231 228.226 409.17 228.68Z" fill="#E0E0E0"/>
<path d="M449.92 224.15C449.384 224.229 448.841 224.256 448.3 224.23C447.3 224.23 445.76 224.23 443.91 224.33C440.2 224.46 435.08 224.81 429.45 225.44C423.82 226.07 418.74 226.89 415.09 227.57C413.26 227.9 411.79 228.21 410.77 228.42C410.247 228.561 409.711 228.648 409.17 228.68C409.67 228.468 410.189 228.304 410.72 228.19C411.72 227.92 413.19 227.55 415.01 227.19C418.65 226.4 423.73 225.53 429.38 224.88C434.201 224.323 439.047 224.009 443.9 223.94C445.76 223.94 447.27 223.94 448.31 224.02C448.85 224.014 449.389 224.057 449.92 224.15Z" fill="#E0E0E0"/>
<path d="M388.35 272.05C388.256 271.889 388.179 271.718 388.12 271.54L387.54 270.03C387.04 268.72 386.37 266.81 385.54 264.43C383.94 259.69 381.94 253.06 379.83 245.72C377.72 238.38 375.83 231.72 374.29 226.96C373.56 224.64 372.95 222.73 372.5 221.31C372.31 220.69 372.15 220.18 372.03 219.77C371.959 219.594 371.915 219.409 371.9 219.22C371.999 219.381 372.079 219.552 372.14 219.73L372.71 221.23C373.21 222.54 373.88 224.45 374.71 226.83C376.31 231.58 378.31 238.2 380.42 245.55C382.53 252.9 384.42 259.55 385.96 264.31C386.69 266.63 387.3 268.54 387.75 269.95L388.23 271.5C388.298 271.676 388.339 271.862 388.35 272.05Z" fill="#E0E0E0"/>
<path d="M443 258.79C442.825 258.872 442.64 258.932 442.45 258.97L440.86 259.38L435 260.81C430.06 262.02 423.25 263.76 415.73 265.7C408.21 267.64 401.37 269.33 396.4 270.43C393.91 270.99 391.9 271.43 390.5 271.68L388.89 271.98C388.7 272.026 388.505 272.05 388.31 272.05C388.485 271.968 388.67 271.908 388.86 271.87L390.45 271.46L396.31 270.03C401.25 268.83 408.06 267.08 415.59 265.14C423.12 263.2 430 261.51 435 260.4C437.49 259.85 439.5 259.4 440.9 259.16L442.52 258.86C442.677 258.82 442.838 258.797 443 258.79Z" fill="#E0E0E0"/>
<path d="M465.75 458.85C465.75 459 371.13 459.11 254.45 459.11C137.77 459.11 43.1299 459 43.1299 458.85C43.1299 458.7 137.72 458.59 254.45 458.59C371.18 458.59 465.75 458.71 465.75 458.85Z" fill="#263238"/>
<path d="M170.77 77.79L194.9 151.35C204.48 154.02 214.24 156.14 225.9 152.35L280.82 132.48L248.17 48.48L170.77 77.79Z" fill="#E0E0E0"/>
<path d="M165.6 75.37L189.73 148.92L220.7 149.96L275.62 130.08L247.76 47.45L165.6 75.37Z" fill="#FF8927"/>
<path d="M197 140.08L189.72 148.92C189.72 148.92 196.22 152.47 202.81 152.62C208.885 152.884 214.955 151.995 220.7 150C220.7 150 206.7 150.79 197 140.08Z" fill="#FF8927"/>
<path opacity="0.3" d="M197 140.08C194.79 144.55 192.55 149.8 189.72 148.92C189.72 148.92 196.22 152.47 202.81 152.62C208.885 152.884 214.955 151.995 220.7 150C220.7 150 206.7 150.79 197 140.08Z" fill="black"/>
<path d="M166.12 93.83L194.14 63.69L187.85 57.76L158.98 87.73L166.12 93.83Z" fill="#E0E0E0"/>
<path d="M263.84 61.8L225.65 46.46L222.37 54.46L260.7 70.66L263.84 61.8Z" fill="#E0E0E0"/>
<path d="M247.47 76.66C247.47 76.79 233.57 81.66 216.33 87.53C199.09 93.4 185.06 98.05 185 97.91C184.94 97.77 198.89 92.91 216.14 87.04C233.39 81.17 247.42 76.52 247.47 76.66Z" fill="#263238"/>
<path d="M251 88C251 88.14 237.1 93 219.86 98.88C202.62 104.76 188.59 109.39 188.55 109.26C188.51 109.13 202.44 104.26 219.69 98.38C236.94 92.5 251 87.88 251 88Z" fill="#263238"/>
<path d="M254.77 97.88C254.77 98.01 240.88 102.88 223.63 108.75C206.38 114.62 192.37 119.27 192.32 119.13C192.27 118.99 206.22 114.13 223.47 108.26C240.72 102.39 254.73 97.74 254.77 97.88Z" fill="#263238"/>
<path d="M258 107.51C258 107.65 244.1 112.51 226.86 118.39C209.62 124.27 195.6 128.9 195.55 128.77C195.5 128.64 209.44 123.77 226.69 117.89C243.94 112.01 257.93 107.38 258 107.51Z" fill="#263238"/>
<path d="M295 318.19L290.16 363.19C290.16 363.19 280.73 348.94 274.35 355.29C268.27 361.35 257.53 405.54 257.53 405.54C257.53 405.54 257.39 419.95 265.05 423.76C289.62 436 317 413 317 413L313.09 284.2C302.904 292.774 296.423 304.951 295 318.19Z" fill="#FF8927"/>
<path d="M377.89 286.91L335.38 283.52C335.12 278.52 335.47 259.35 335.47 259.35C335.47 259.35 317.78 256.6 317.57 238.92C317.36 221.24 320.41 180.62 320.41 180.62C330.464 176.298 341.489 174.739 352.347 176.105C363.205 177.471 373.5 181.712 382.17 188.39L384.79 190.39L377.89 286.91Z" fill="#B78876"/>
<path d="M335.44 259.1C343.606 259.254 351.634 256.974 358.5 252.55C358.5 252.55 353.05 265.27 335.4 263.68L335.44 259.1Z" fill="#AA6550"/>
<path d="M382.62 208.72C382.92 208.59 394.77 205.13 394.38 217.22C393.99 229.31 381.94 226.43 381.93 226.08C381.92 225.73 382.62 208.72 382.62 208.72Z" fill="#B78876"/>
<path d="M385.76 221.62C385.82 221.62 385.97 221.77 386.32 221.95C386.813 222.181 387.376 222.21 387.89 222.03C389.19 221.6 390.33 219.61 390.46 217.43C390.513 216.406 390.343 215.382 389.96 214.43C389.861 214.048 389.669 213.696 389.402 213.405C389.136 213.114 388.802 212.892 388.43 212.76C388.19 212.686 387.932 212.7 387.701 212.799C387.47 212.898 387.282 213.075 387.17 213.3C387 213.63 387.06 213.87 387 213.89C386.94 213.91 386.75 213.68 386.86 213.18C386.943 212.886 387.118 212.626 387.36 212.44C387.701 212.204 388.12 212.108 388.53 212.17C389.03 212.291 389.49 212.539 389.866 212.889C390.243 213.239 390.523 213.68 390.68 214.17C391.154 215.234 391.366 216.397 391.3 217.56C391.14 219.99 389.82 222.23 388.06 222.68C387.732 222.766 387.389 222.777 387.056 222.711C386.724 222.645 386.41 222.505 386.14 222.3C385.78 221.91 385.72 221.64 385.76 221.62Z" fill="#AA6550"/>
<path d="M324.31 208C324.304 208.659 324.556 209.294 325.012 209.771C325.468 210.247 326.091 210.527 326.75 210.55C327.071 210.576 327.395 210.537 327.701 210.436C328.007 210.334 328.29 210.172 328.532 209.96C328.775 209.747 328.972 209.488 329.112 209.198C329.253 208.908 329.334 208.592 329.35 208.27C329.356 207.613 329.105 206.979 328.652 206.503C328.198 206.027 327.577 205.746 326.92 205.72C326.598 205.696 326.275 205.735 325.969 205.837C325.663 205.939 325.38 206.101 325.137 206.313C324.894 206.525 324.696 206.784 324.554 207.073C324.412 207.363 324.329 207.678 324.31 208Z" fill="#263238"/>
<path d="M323.76 205.5C324.07 205.83 325.99 204.41 328.7 204.42C331.41 204.43 333.41 205.79 333.7 205.42C333.84 205.27 333.52 204.67 332.7 204.04C331.525 203.228 330.128 202.799 328.7 202.81C327.285 202.805 325.905 203.25 324.76 204.08C323.89 204.76 323.61 205.35 323.76 205.5Z" fill="#263238"/>
<path d="M350.93 209C350.924 209.657 351.175 210.291 351.628 210.767C352.082 211.243 352.703 211.524 353.36 211.55C353.682 211.574 354.005 211.535 354.311 211.433C354.617 211.331 354.9 211.169 355.143 210.957C355.386 210.745 355.584 210.486 355.726 210.197C355.868 209.907 355.951 209.592 355.97 209.27C355.973 208.612 355.72 207.978 355.265 207.502C354.81 207.026 354.188 206.746 353.53 206.72C353.209 206.696 352.886 206.735 352.581 206.837C352.275 206.939 351.993 207.101 351.751 207.314C351.509 207.526 351.311 207.784 351.17 208.074C351.029 208.364 350.948 208.678 350.93 209Z" fill="#263238"/>
<path d="M350.47 206C350.79 206.33 352.7 204.91 355.42 204.92C358.14 204.93 360.13 206.29 360.42 205.92C360.57 205.78 360.25 205.18 359.42 204.55C358.245 203.738 356.849 203.305 355.42 203.31C354.006 203.308 352.627 203.753 351.48 204.58C350.61 205.27 350.32 205.86 350.47 206Z" fill="#263238"/>
<path d="M340.61 226.16C340.61 226.01 338.93 225.72 336.2 225.37C335.5 225.3 334.85 225.16 334.73 224.68C334.675 223.966 334.835 223.252 335.19 222.63C335.857 220.95 336.54 219.187 337.24 217.34C340.1 209.82 342.16 203.63 341.85 203.52C341.54 203.41 338.99 209.42 336.14 216.94C335.46 218.79 334.8 220.56 334.14 222.26C333.697 223.094 333.569 224.06 333.78 224.98C333.88 225.224 334.034 225.441 334.232 225.614C334.43 225.788 334.666 225.913 334.92 225.98C335.304 226.089 335.701 226.146 336.1 226.15C338.89 226.31 340.6 226.32 340.61 226.16Z" fill="#263238"/>
<path d="M349.77 195.36C350.04 196.1 352.77 195.75 355.94 196.13C359.11 196.51 361.71 197.38 362.13 196.72C362.32 196.4 361.87 195.72 360.83 194.99C359.439 194.123 357.87 193.583 356.24 193.41C354.61 193.237 352.962 193.435 351.42 193.99C350.25 194.43 349.66 195 349.77 195.36Z" fill="#263238"/>
<path d="M324.76 197.64C325.24 198.25 327.11 197.64 329.36 197.58C331.61 197.52 333.52 198 333.96 197.35C334.15 197.04 333.85 196.42 333.02 195.84C331.903 195.136 330.601 194.78 329.281 194.82C327.962 194.859 326.683 195.291 325.61 196.06C324.81 196.7 324.55 197.33 324.76 197.64Z" fill="#263238"/>
<path d="M311.8 169.46C311.675 168.362 311.83 167.251 312.252 166.229C312.673 165.208 313.347 164.31 314.21 163.62C315.101 162.972 316.194 162.661 317.293 162.744C318.391 162.826 319.425 163.296 320.21 164.07C320.044 163.332 320.034 162.567 320.183 161.824C320.331 161.082 320.634 160.379 321.072 159.762C321.509 159.144 322.072 158.626 322.723 158.239C323.373 157.853 324.098 157.608 324.85 157.52C327.74 157.34 330.2 159.52 332.98 160.28C335.76 161.04 338.62 160.38 341.24 159.33C343.86 158.28 346.3 156.82 348.95 155.85C354.549 153.805 360.729 154.053 366.146 156.54C371.564 159.027 375.78 163.551 377.88 169.13C381.75 167.92 386.14 169.89 388.53 173.13C390.92 176.37 391.53 180.71 391.05 184.73C390.678 187.442 390.007 190.105 389.05 192.67C389.05 192.9 389.05 193.12 389.05 193.35C388.86 203.07 387.76 214.49 383.61 214.56C376.38 214.67 378.11 201.04 378.11 201.04C369.23 197.62 372.54 184.32 370.32 182.3C368.1 180.28 363.46 175.6 344.88 185.09C337.66 188.78 328.07 188.67 322.83 187.48L322.37 187.38H322.26C322.209 187.363 322.159 187.343 322.11 187.32C320.426 186.906 318.816 186.231 317.34 185.32C315.602 184.318 314.228 182.787 313.42 180.95C313.031 180.031 312.918 179.018 313.095 178.036C313.273 177.054 313.733 176.145 314.42 175.42C312.983 173.732 312.073 171.66 311.8 169.46Z" fill="#263238"/>
<path d="M412.67 397.89L414 423L417 459H303.37L308.31 405.74L298.63 321.59C299.47 291.85 310.89 279.49 334.25 276.65L332.41 276.88C335.63 276.5 332.41 276.88 334.25 276.65C349.001 281.31 364.829 281.31 379.58 276.65C386.58 276.95 392.39 279.1 398.35 280.25C417.12 283.84 432.57 298.34 436.35 310.97C439.44 321.36 461.79 411.48 461.79 411.48H417.3L412.67 397.89Z" fill="#FF8927"/>
<path d="M338.3 234.52C338.679 235.619 339.211 236.659 339.88 237.61C340.219 238.084 340.654 238.481 341.157 238.774C341.661 239.067 342.221 239.25 342.8 239.31C343.419 239.308 344.027 239.151 344.571 238.854C345.114 238.557 345.574 238.13 345.91 237.61C346.57 236.553 346.874 235.313 346.78 234.07C346.78 232.95 346.22 231.62 345.11 231.49C344.643 231.472 344.179 231.572 343.76 231.78L337.93 234.15" fill="#AA6550"/>
<path d="M340.63 239.32C341.685 239.391 342.743 239.262 343.75 238.94C344.769 238.539 345.605 237.777 346.1 236.8C346.379 236.206 346.529 235.559 346.541 234.902C346.553 234.246 346.427 233.594 346.17 232.99C346.04 232.678 345.872 232.382 345.67 232.11C345.43 231.87 345.48 231.88 345.23 231.92C344.91 232.025 344.596 232.148 344.29 232.29L343.29 232.68C342.04 233.18 340.91 233.62 339.96 233.98C338.05 234.69 336.84 235.07 336.78 234.98C336.72 234.89 337.83 234.23 339.67 233.34C340.59 232.9 341.67 232.34 342.92 231.83L343.86 231.41C344.209 231.245 344.566 231.098 344.93 230.97C345.209 230.876 345.511 230.876 345.79 230.97C346.047 231.076 346.269 231.253 346.43 231.48C346.699 231.815 346.921 232.185 347.09 232.58C347.408 233.323 347.556 234.128 347.525 234.935C347.494 235.743 347.284 236.533 346.91 237.25C346.595 237.828 346.167 238.338 345.651 238.748C345.136 239.158 344.544 239.462 343.91 239.64C343.092 239.908 342.216 239.942 341.38 239.74C340.88 239.58 340.61 239.38 340.63 239.32Z" fill="#263238"/>
<path d="M298.44 392.87L271.68 310.71L269.26 296.92C269.26 296.92 261.98 266.16 261.65 263.12C261.28 259.6 259.49 258.94 258.21 259.12C256.21 259.48 255.04 262.12 255.27 265.12C255.35 266.12 257.27 282.62 257.27 282.62C256.144 281.169 254.918 279.799 253.6 278.52C250.83 275.7 244.92 274.52 239.07 275.37C233.22 276.22 231.65 276.94 231.87 279.23C231.93 279.66 232.087 280.071 232.327 280.433C232.568 280.795 232.887 281.098 233.26 281.32C234.434 282.11 235.859 282.438 237.26 282.24C246.65 281.05 249.72 285.81 249.72 285.81L250.04 287.61C250.04 287.61 243.88 284.15 239.52 286.36C238.874 286.687 238.296 287.135 237.82 287.68C236.538 287.824 235.316 288.301 234.276 289.063C233.235 289.825 232.412 290.846 231.887 292.024C231.363 293.203 231.155 294.498 231.286 295.781C231.416 297.064 231.879 298.291 232.63 299.34C233.35 300.34 234.63 301.24 235.78 300.87C236.391 300.609 236.927 300.2 237.34 299.68C237.574 299.42 237.832 299.183 238.11 298.97L239.7 303.9C239.7 303.9 243.88 314.79 245.16 319.73L258.16 402.46C258.59 405.185 259.558 407.796 261.008 410.143C262.457 412.49 264.36 414.524 266.604 416.128C268.848 417.732 271.389 418.873 274.079 419.484C276.768 420.096 279.553 420.166 282.27 419.69C285.193 419.176 287.971 418.041 290.418 416.362C292.865 414.683 294.924 412.5 296.456 409.959C297.989 407.417 298.958 404.577 299.301 401.629C299.643 398.682 299.349 395.695 298.44 392.87Z" fill="#B78876"/>
<path d="M268.85 309.87C267.18 310.53 265.27 309.45 264.17 308.03C263.07 306.61 262.5 304.84 261.51 303.34C258.51 298.84 252.37 297.21 249.63 292.58C249.24 291.93 248.97 291.02 249.52 290.51C250.07 290 250.85 290.28 251.52 290.51L267.96 297.42" fill="#B78876"/>
<path d="M267.93 297.46C267.405 297.08 266.833 296.767 266.23 296.53C265.11 295.99 263.47 295.25 261.44 294.34L254.3 291.22L252.22 290.33C251.437 289.84 250.492 289.678 249.59 289.88C249.315 290.003 249.084 290.206 248.926 290.463C248.769 290.72 248.694 291.019 248.71 291.32C248.736 291.812 248.877 292.291 249.12 292.72C249.568 293.476 250.098 294.18 250.7 294.82C253.15 297.38 256.11 298.82 258.33 300.65C259.404 301.466 260.348 302.441 261.13 303.54C261.84 304.54 262.33 305.69 262.89 306.67C263.264 307.506 263.815 308.25 264.506 308.851C265.197 309.452 266.01 309.895 266.89 310.15C268.21 310.4 268.89 309.89 268.83 309.87C268.216 309.951 267.592 309.917 266.99 309.77C266.203 309.469 265.487 309.008 264.888 308.416C264.289 307.824 263.82 307.113 263.51 306.33C263 305.33 262.51 304.22 261.81 303.07C261.009 301.879 260.027 300.819 258.9 299.93C256.62 298 253.68 296.5 251.43 294.12C250.881 293.546 250.398 292.912 249.99 292.23C249.62 291.59 249.59 290.9 249.99 290.79C250.39 290.68 251.15 290.92 251.85 291.22L253.93 292.08L261.16 295.01C263.23 295.82 264.91 296.47 266.07 296.9C266.661 297.172 267.287 297.361 267.93 297.46Z" fill="#AA6550"/>
<path d="M250.26 287.75C250.035 286.632 249.549 285.583 248.84 284.69C248.028 283.782 246.944 283.161 245.75 282.92C244.261 282.632 242.736 282.578 241.23 282.76C239.674 282.948 238.102 282.979 236.54 282.85C235.227 282.725 233.969 282.26 232.89 281.5C232.527 281.226 232.232 280.872 232.026 280.467C231.819 280.062 231.708 279.615 231.7 279.16C231.678 278.835 231.755 278.511 231.92 278.23C231.98 278.23 231.92 278.57 231.92 279.15C231.965 279.552 232.097 279.94 232.308 280.285C232.519 280.631 232.803 280.926 233.14 281.15C234.172 281.804 235.351 282.189 236.57 282.27C238.095 282.361 239.625 282.311 241.14 282.12C242.716 281.935 244.311 282.016 245.86 282.36C247.16 282.657 248.322 283.382 249.16 284.42C249.706 285.116 250.071 285.938 250.22 286.81C250.313 287.115 250.327 287.438 250.26 287.75Z" fill="#AA6550"/>
<path d="M255.2 264C255.426 265.077 255.56 266.171 255.6 267.27C255.81 269.52 256.07 272.2 256.36 275.16C256.65 278.12 256.99 280.79 257.24 283.04C257.433 284.123 257.53 285.22 257.53 286.32C257.159 285.282 256.908 284.205 256.78 283.11C256.43 281.11 256.03 278.32 255.71 275.23C255.39 272.14 255.2 269.33 255.13 267.3C255.03 266.201 255.054 265.094 255.2 264Z" fill="#AA6550"/>
<path d="M246.94 291.86C246.597 291.809 246.262 291.719 245.94 291.59C245.53 291.426 245.089 291.354 244.648 291.38C244.207 291.406 243.778 291.529 243.39 291.74C243.155 291.901 242.967 292.12 242.844 292.376C242.722 292.633 242.668 292.917 242.69 293.2C242.725 293.917 242.853 294.626 243.07 295.31C243.357 296.167 243.318 297.1 242.96 297.93C242.717 298.362 242.376 298.73 241.964 299.004C241.553 299.279 241.082 299.452 240.59 299.51C240.107 299.559 239.618 299.511 239.154 299.366C238.69 299.222 238.26 298.985 237.89 298.67C237.203 298.108 236.695 297.357 236.43 296.51C236.094 295.13 235.963 293.708 236.04 292.29C236.057 291.332 236.243 290.384 236.59 289.49C236.701 289.15 236.901 288.846 237.17 288.61C237.17 288.61 237.01 288.95 236.83 289.61C236.596 290.5 236.488 291.419 236.51 292.34C236.498 293.69 236.666 295.035 237.01 296.34C237.234 297.088 237.698 297.741 238.331 298.198C238.964 298.656 239.73 298.892 240.51 298.87C240.897 298.823 241.267 298.687 241.593 298.474C241.919 298.261 242.192 297.975 242.39 297.64C242.68 296.948 242.712 296.174 242.48 295.46C242.272 294.721 242.161 293.958 242.15 293.19C242.143 292.824 242.231 292.463 242.407 292.142C242.582 291.821 242.838 291.552 243.15 291.36C243.594 291.133 244.086 291.014 244.585 291.014C245.084 291.014 245.576 291.133 246.02 291.36C246.65 291.62 247 291.82 246.94 291.86Z" fill="#AA6550"/>
<path d="M238.12 298.14C238.12 298.14 238.28 298.47 238.12 299.08C237.997 299.508 237.777 299.903 237.477 300.232C237.177 300.562 236.805 300.818 236.39 300.98C235.758 301.192 235.082 301.237 234.428 301.109C233.774 300.981 233.165 300.685 232.66 300.25C231.461 299.181 230.72 297.691 230.59 296.09C230.418 294.514 230.744 292.923 231.52 291.54C232.159 290.424 233.089 289.501 234.21 288.87C234.947 288.442 235.758 288.153 236.6 288.02C236.906 287.947 237.224 287.947 237.53 288.02C236.451 288.293 235.415 288.714 234.45 289.27C233.33 289.978 232.434 290.988 231.866 292.185C231.298 293.382 231.081 294.715 231.24 296.03C231.354 297.468 231.999 298.812 233.05 299.8C233.474 300.183 233.988 300.452 234.544 300.583C235.1 300.715 235.68 300.703 236.23 300.55C236.599 300.425 236.936 300.223 237.221 299.958C237.505 299.692 237.73 299.369 237.88 299.01C238.09 298.48 238.06 298.14 238.12 298.14Z" fill="#AA6550"/>
<path d="M250.65 307.93C251.145 307.719 251.694 307.666 252.22 307.78C253.594 307.923 254.88 308.525 255.87 309.49L255.34 309.71C255.331 308.961 255.374 308.213 255.47 307.47C255.96 303.13 258 300.12 258.12 300.23C258.24 300.34 256.59 303.37 256.12 307.55C256.033 308.267 255.983 308.988 255.97 309.71V310.46L255.45 309.93C254.554 309.038 253.418 308.427 252.18 308.17C251.23 308 250.65 308 250.65 307.93Z" fill="#AA6550"/>
<path d="M247.32 279.93C247.48 279.99 246.97 281.24 245.59 282.01C244.21 282.78 242.89 282.6 242.92 282.43C242.95 282.26 244.08 282.13 245.27 281.43C246.46 280.73 247.15 279.83 247.32 279.93Z" fill="#AA6550"/>
<path d="M319.64 279.92C319.64 279.92 319.27 280.32 318.64 281.09C317.642 282.175 316.855 283.436 316.32 284.81C316.161 285.277 316.073 285.766 316.06 286.26C316.061 286.787 316.192 287.305 316.44 287.77C317.122 288.796 318.14 289.553 319.32 289.91C322.279 290.838 325.37 291.274 328.47 291.2C330.19 291.2 332.05 291.3 333.95 291.41L336.86 291.75C337.86 291.86 338.86 292.13 339.86 292.31C344.201 293.196 348.296 295.019 351.86 297.65C353.802 299.099 355.492 300.86 356.86 302.86C357.204 303.384 357.521 303.924 357.81 304.48C358.1 305.07 358.3 305.64 358.54 306.22C358.986 307.403 359.321 308.625 359.54 309.87C360.546 315.111 359.716 320.539 357.19 325.24C354.58 329.906 350.387 333.484 345.37 335.33C343.013 336.215 340.526 336.708 338.01 336.79C335.61 336.803 333.218 336.515 330.89 335.93C328.742 335.377 326.556 334.986 324.35 334.76C322.311 334.563 320.258 334.926 318.41 335.81C316.712 336.722 315.202 337.947 313.96 339.42C312.71 340.82 311.65 342.29 310.6 343.68C308.53 346.47 306.33 348.93 303.77 350.22C302.596 350.849 301.291 351.191 299.96 351.22C298.848 351.233 297.744 351.029 296.71 350.62C295.886 350.292 295.13 349.814 294.48 349.21C294.013 348.756 293.634 348.221 293.36 347.63C293.126 347.151 293.006 346.623 293.01 346.09C293.08 346.09 293.1 346.64 293.55 347.54C293.847 348.081 294.232 348.567 294.69 348.98C295.328 349.526 296.06 349.953 296.85 350.24C297.931 350.639 299.085 350.799 300.233 350.707C301.382 350.616 302.496 350.275 303.5 349.71C305.9 348.44 307.99 346.05 310.01 343.25C311.01 341.85 312.09 340.35 313.36 338.89C314.644 337.309 316.219 335.988 318 335C319.981 334.027 322.191 333.612 324.39 333.8C326.645 334.019 328.881 334.403 331.08 334.95C333.33 335.506 335.642 335.779 337.96 335.76C340.354 335.662 342.717 335.183 344.96 334.34C349.741 332.565 353.736 329.148 356.23 324.7C358.64 320.209 359.438 315.028 358.49 310.02C358.259 308.83 357.925 307.662 357.49 306.53C357.25 305.97 357.05 305.39 356.8 304.89C356.538 304.366 356.244 303.858 355.92 303.37C354.629 301.458 353.035 299.769 351.2 298.37C347.751 295.799 343.787 294.005 339.58 293.11C338.58 292.92 337.58 292.65 336.65 292.54L333.79 292.17C331.91 292.04 330.11 291.96 328.36 291.9C325.185 291.927 322.029 291.424 319.02 290.41C317.767 289.975 316.702 289.125 316 288C315.724 287.459 315.59 286.857 315.61 286.25C315.637 285.713 315.749 285.183 315.94 284.68C316.525 283.275 317.393 282.005 318.49 280.95C318.823 280.555 319.21 280.208 319.64 279.92Z" fill="#FAFAFA"/>
<path d="M395.71 346.6C395.436 345.879 395.274 345.12 395.23 344.35C395.007 342.252 395.146 340.131 395.64 338.08C396.373 335.024 397.695 332.141 399.53 329.59C401.764 326.46 404.62 323.825 407.92 321.85C411.239 319.945 414.846 318.594 418.6 317.85C421.643 317.222 424.743 316.903 427.85 316.9C429.934 316.877 432.018 316.981 434.09 317.21C434.855 317.241 435.612 317.376 436.34 317.61C436.34 317.79 433.09 317.43 427.86 317.61C424.811 317.723 421.779 318.111 418.8 318.77C415.164 319.56 411.673 320.91 408.45 322.77C405.268 324.674 402.497 327.193 400.3 330.18C398.497 332.613 397.161 335.359 396.36 338.28C395.82 340.253 395.574 342.295 395.63 344.34C395.713 345.09 395.74 345.846 395.71 346.6Z" fill="#FAFAFA"/>
<path d="M450.35 364C450.045 364.641 449.648 365.234 449.17 365.76C447.98 367.268 446.639 368.652 445.17 369.89C442.98 371.746 440.556 373.306 437.96 374.53C431.556 377.61 424.313 378.485 417.36 377.02C414.545 376.448 411.818 375.506 409.25 374.22C407.521 373.371 405.883 372.349 404.36 371.17C403.77 370.776 403.244 370.294 402.8 369.74C402.92 369.58 405.2 371.57 409.57 373.56C415.24 376.192 421.532 377.19 427.739 376.441C433.945 375.692 439.819 373.226 444.7 369.32C448.45 366.33 450.19 363.85 450.35 364Z" fill="#FAFAFA"/>
<path d="M400.12 360.78C399.832 360.94 399.526 361.067 399.21 361.16C398.353 361.508 397.574 362.025 396.92 362.68C395.917 363.746 395.135 365 394.62 366.37C393.922 368.198 393.381 370.081 393 372C392.589 374.361 392.048 376.698 391.38 379C390.959 380.31 390.378 381.563 389.65 382.73C388.844 383.956 387.86 385.055 386.73 385.99C384.291 387.931 381.48 389.35 378.47 390.16C375.39 391.08 372.13 391.58 368.85 392.22C362.678 393.236 356.828 395.674 351.76 399.34C349.591 400.966 347.671 402.9 346.06 405.08C344.688 407.004 343.594 409.111 342.81 411.34C341.655 414.581 341.292 418.05 341.75 421.46C342.11 423.87 342.66 425.13 342.55 425.17C342.373 424.889 342.232 424.586 342.13 424.27C341.975 423.899 341.845 423.518 341.74 423.13C341.579 422.605 341.448 422.071 341.35 421.53C340.724 418.048 340.985 414.464 342.11 411.11C342.871 408.789 343.962 406.59 345.35 404.58C346.986 402.306 348.947 400.284 351.17 398.58C356.331 394.773 362.322 392.244 368.65 391.2C371.96 390.55 375.19 390.06 378.18 389.2C381.066 388.442 383.767 387.105 386.12 385.27C387.184 384.412 388.114 383.401 388.88 382.27C389.58 381.176 390.144 380 390.56 378.77C391.253 376.491 391.828 374.178 392.28 371.84C392.704 369.883 393.303 367.969 394.07 366.12C394.656 364.705 395.532 363.427 396.64 362.37C397.348 361.706 398.2 361.217 399.13 360.94C399.449 360.831 399.783 360.777 400.12 360.78Z" fill="#FAFAFA"/>
<path d="M373.33 356.61C373.675 357.238 373.854 357.943 373.85 358.66C373.949 360.63 373.386 362.577 372.25 364.19C371.484 365.328 370.455 366.265 369.25 366.92C368.571 367.291 367.839 367.557 367.08 367.71C366.275 367.859 365.454 367.893 364.64 367.81C362.891 367.62 361.23 366.948 359.84 365.87C358.313 364.717 357.221 363.082 356.74 361.23C356.434 360.024 356.417 358.763 356.69 357.55C356.985 356.398 357.532 355.326 358.29 354.41C358.938 353.542 359.672 352.741 360.48 352.02C360.87 351.661 361.295 351.343 361.75 351.07C362.219 350.758 362.759 350.568 363.32 350.52L363.45 351.41L362.96 351.53L362.71 350.67C364.529 350.154 366.468 350.259 368.22 350.97C369.557 351.482 370.75 352.309 371.7 353.38C372.308 354.055 372.789 354.834 373.12 355.68C373.33 356.27 373.38 356.6 373.34 356.61C372.797 355.573 372.125 354.608 371.34 353.74C370.393 352.805 369.248 352.094 367.99 351.66C366.381 351.076 364.627 351.03 362.99 351.53L362.74 350.67L363.23 350.53L363.37 351.43C362.512 351.636 361.734 352.087 361.13 352.73C360.393 353.429 359.723 354.196 359.13 355.02C358.436 355.836 357.951 356.809 357.717 357.854C357.484 358.9 357.509 359.986 357.79 361.02C358.22 362.644 359.173 364.081 360.5 365.11C361.741 366.079 363.219 366.697 364.78 366.9C365.502 366.984 366.232 366.967 366.95 366.85C367.624 366.726 368.277 366.507 368.89 366.2C370.001 365.63 370.963 364.808 371.7 363.8C372.813 362.331 373.438 360.552 373.49 358.71C373.46 357.36 373.23 356.64 373.33 356.61Z" fill="#FAFAFA"/>
<path d="M308.8 324C308.818 324.089 308.818 324.181 308.8 324.27C308.8 324.47 308.8 324.73 308.8 325.05C308.8 325.78 308.71 326.79 308.65 328.05C308.49 330.67 308.34 334.46 308.13 339.14C307.74 348.51 307.35 361.45 307.05 375.76C306.75 390.07 306.56 403.02 306.42 412.39C306.35 417.05 306.29 420.83 306.25 423.5C306.25 424.77 306.2 425.78 306.19 426.5C306.19 426.82 306.19 427.08 306.19 427.29C306.203 427.38 306.203 427.47 306.19 427.56C306.175 427.471 306.175 427.379 306.19 427.29C306.19 427.08 306.19 426.82 306.19 426.5C306.19 425.77 306.19 424.76 306.19 423.5V412.4C306.19 403.02 306.36 390.07 306.67 375.75C306.98 361.43 307.41 348.5 307.9 339.13C308.16 334.45 308.37 330.66 308.59 328.05C308.69 326.77 308.77 325.76 308.83 325.05C308.83 324.73 308.89 324.47 308.91 324.26C308.862 324.178 308.825 324.091 308.8 324Z" fill="#263238"/>
<g opacity="0.2">
<path d="M289.69 416.93C295.27 419.6 302.56 414.47 305.41 408.99C305.41 408.99 306.9 396.89 306.7 390.71C306.31 379.27 307.15 367.94 306.76 356.5C305.884 363.349 303.051 369.801 298.6 375.08C297.37 376.53 295.99 377.97 295.53 379.81C294.71 383.11 297.23 389.04 298.85 392.03C303.85 401.17 292.95 417.03 290.05 416.7" fill="black"/>
</g>
<g opacity="0.2">
<path d="M394.12 342.28C395.94 365.08 397.767 387.883 399.6 410.69C399.654 412.851 400.059 414.989 400.8 417.02C401.18 418.034 401.794 418.944 402.594 419.674C403.394 420.404 404.356 420.934 405.4 421.22C408.64 421.88 411.79 419.09 412.7 415.91C413.61 412.73 412.89 409.34 412.09 406.13C410.73 400.66 409.2 395.24 407.66 389.82C403.2 374.087 398.737 358.357 394.27 342.63" fill="black"/>
</g>
<path d="M331.44 459.07C332.131 457.944 332.646 456.72 332.97 455.44C333.53 452.97 333.18 449.15 331.26 445.02C330.32 442.95 328.99 440.8 327.65 438.44C326.118 435.935 324.978 433.21 324.27 430.36C323.673 427.126 323.914 423.794 324.97 420.68C325.97 417.46 327.42 414.33 328.59 411.05C330.938 404.918 331.114 398.166 329.09 391.92C328.219 389.216 326.941 386.66 325.3 384.34C323.852 382.325 322.155 380.5 320.25 378.91C317.461 376.612 314.28 374.837 310.86 373.67C308.43 372.86 307.01 372.67 307.03 372.55C307.366 372.53 307.703 372.561 308.03 372.64C309.015 372.783 309.988 373 310.94 373.29C314.476 374.312 317.78 376.01 320.67 378.29C322.665 379.881 324.444 381.727 325.96 383.78C327.683 386.157 329.032 388.784 329.96 391.57C332.104 398.016 331.948 405.006 329.52 411.35C328.32 414.69 326.86 417.8 325.9 420.93C324.875 423.877 324.62 427.037 325.16 430.11C325.818 432.878 326.897 435.529 328.36 437.97C329.65 440.34 330.96 442.52 331.89 444.67C333.77 448.96 334.03 452.95 333.31 455.49C333.043 456.461 332.628 457.385 332.08 458.23C331.71 458.83 331.47 459.09 331.44 459.07Z" fill="#FAFAFA"/>
<path d="M425.32 294.56C425.126 295.288 424.786 295.968 424.32 296.56C423.183 298.253 421.705 299.691 419.98 300.78C417.409 302.402 414.481 303.37 411.45 303.6C407.764 303.85 404.065 303.378 400.56 302.21C396.988 301.171 393.724 299.276 391.05 296.69C389.902 295.527 388.964 294.174 388.28 292.69C387.701 291.391 387.336 290.006 387.2 288.59C386.972 286.539 387.362 284.467 388.32 282.64C388.466 282.358 388.633 282.087 388.82 281.83C388.947 281.632 389.095 281.448 389.26 281.28C389.51 281.01 389.66 280.87 389.69 280.9C389.72 280.93 389.24 281.56 388.69 282.82C387.929 284.614 387.674 286.581 387.95 288.51C388.12 289.834 388.498 291.124 389.07 292.33C389.751 293.701 390.657 294.948 391.75 296.02C394.338 298.453 397.467 300.236 400.88 301.22C404.263 302.352 407.828 302.837 411.39 302.65C414.285 302.48 417.098 301.626 419.6 300.16C421.287 299.165 422.778 297.871 424 296.34C424.409 295.724 424.85 295.13 425.32 294.56Z" fill="#FAFAFA"/>
<path d="M411.63 402.13C411.63 402.13 411.58 402.04 411.52 401.85C411.46 401.66 411.37 401.36 411.26 401.01C411.04 400.24 410.72 399.16 410.31 397.78L406.91 385.85C404.07 375.74 400.17 361.85 395.91 346.45C393.77 338.75 391.74 331.45 389.91 324.74C388.986 321.585 388.274 318.371 387.78 315.12C387.36 312.272 387.36 309.378 387.78 306.53C388.376 302.366 390.372 298.529 393.44 295.65C394.293 294.904 395.237 294.269 396.25 293.76L397.06 293.42C397.147 293.372 397.242 293.338 397.34 293.32C395.971 293.962 394.702 294.798 393.57 295.8C390.605 298.688 388.697 302.488 388.15 306.59C387.767 309.403 387.797 312.256 388.24 315.06C388.748 318.288 389.469 321.478 390.4 324.61C392.26 331.29 394.31 338.61 396.46 346.31C400.71 361.7 404.56 375.63 407.35 385.75C408.72 390.75 409.82 394.86 410.6 397.75C410.96 399.14 411.25 400.24 411.45 401.02C411.54 401.37 411.61 401.65 411.66 401.87C411.66 401.958 411.65 402.045 411.63 402.13Z" fill="#263238"/>
<path d="M370.9 180.68C370.982 179.969 370.982 179.251 370.9 178.54C370.596 176.601 369.619 174.83 368.14 173.54C365.915 171.66 363.047 170.717 360.14 170.91C356.87 170.91 353.39 172.01 349.79 173.22C347.99 173.81 346.2 174.38 344.44 174.77C342.741 175.145 341.01 175.356 339.27 175.4C336.322 175.477 333.379 175.092 330.55 174.26C328.654 173.689 326.826 172.911 325.1 171.94C324.628 171.686 324.17 171.406 323.73 171.1C323.567 171.005 323.416 170.891 323.28 170.76C323.28 170.76 323.96 171.14 325.2 171.76C326.944 172.651 328.773 173.364 330.66 173.89C333.455 174.66 336.352 174.997 339.25 174.89C340.959 174.833 342.66 174.618 344.33 174.25C346.06 173.86 347.82 173.25 349.63 172.7C353.22 171.49 356.77 170.4 360.13 170.4C363.136 170.235 366.087 171.255 368.35 173.24C369.857 174.591 370.823 176.442 371.07 178.45C371.189 179.196 371.13 179.96 370.9 180.68Z" fill="#455A64"/>
<path d="M384.66 210.57C384.66 210.57 384.56 210.45 384.42 210.2C384.28 209.95 384.1 209.57 383.87 209.07C383.255 207.658 382.786 206.187 382.47 204.68C381.99 202.434 381.835 200.13 382.01 197.84C382.345 195.067 382.873 192.32 383.59 189.62C384.286 186.958 384.286 184.162 383.59 181.5C383.258 180.36 382.681 179.305 381.9 178.41C381.203 177.655 380.331 177.085 379.36 176.75C377.945 176.213 376.376 176.253 374.99 176.86C374.508 177.128 374.055 177.446 373.64 177.81C373.955 177.331 374.389 176.941 374.9 176.68C375.606 176.329 376.375 176.124 377.162 176.076C377.948 176.028 378.737 176.138 379.48 176.4C380.522 176.736 381.464 177.327 382.22 178.12C383.056 179.052 383.68 180.154 384.05 181.35C384.777 184.096 384.777 186.984 384.05 189.73C383.337 192.409 382.799 195.131 382.44 197.88C382.251 200.125 382.365 202.385 382.78 204.6C383.062 206.096 383.473 207.565 384.01 208.99C384.44 210 384.7 210.55 384.66 210.57Z" fill="#455A64"/>
<path d="M372.6 179.25C372.578 179.014 372.578 178.776 372.6 178.54C372.6 178.03 372.6 177.36 372.68 176.54C372.791 174.062 372.514 171.582 371.86 169.19C371.369 167.565 370.568 166.05 369.5 164.73C368.292 163.211 366.632 162.115 364.76 161.6C362.665 161.114 360.478 161.204 358.43 161.86C356.213 162.559 354.087 163.523 352.1 164.73C350.083 165.947 347.985 167.023 345.82 167.95C343.755 168.756 341.566 169.196 339.35 169.25C337.352 169.301 335.358 169.058 333.43 168.53C331.76 168.045 330.15 167.374 328.63 166.53C326.438 165.292 324.506 163.642 322.94 161.67C322.509 161.142 322.121 160.58 321.78 159.99C321.646 159.795 321.532 159.588 321.44 159.37C321.603 159.54 321.748 159.728 321.87 159.93C322.239 160.494 322.646 161.032 323.09 161.54C324.695 163.427 326.629 165.006 328.8 166.2C330.305 167.003 331.895 167.637 333.54 168.09C335.432 168.586 337.385 168.809 339.34 168.75C341.495 168.685 343.623 168.249 345.63 167.46C347.77 166.531 349.845 165.459 351.84 164.25C353.867 163.03 356.032 162.056 358.29 161.35C360.425 160.679 362.702 160.596 364.88 161.11C366.844 161.661 368.579 162.828 369.83 164.44C370.925 165.809 371.734 167.383 372.21 169.07C372.852 171.498 373.079 174.017 372.88 176.52C372.83 177.41 372.76 178.09 372.7 178.52C372.698 178.767 372.664 179.012 372.6 179.25Z" fill="#455A64"/>
<path d="M346.19 429.3L421 418.15L419.8 411.49H460L461.17 421.73C462.027 426.18 461.896 430.765 460.786 435.159C459.676 439.553 457.613 443.65 454.744 447.159C451.876 450.668 448.271 453.503 444.185 455.465C440.099 457.426 435.632 458.466 431.1 458.51L343.88 457.51L346.19 429.3Z" fill="#B78876"/>
<path d="M351.59 430.59C351.19 430.72 346.15 428.46 341.64 426.37C336.852 424.144 331.594 423.115 326.32 423.37L305.53 424.43C305.53 424.43 306.81 427.86 309.02 429.08C311.23 430.3 324.15 430.56 324.15 430.56L323.48 431.24C320.759 434.045 317.047 435.671 313.14 435.77L311.14 435.82C309.666 435.703 308.21 435.418 306.8 434.97L301.67 432.9C300.12 432.2 298.48 432.31 297.8 433.9C297.19 435.31 297.64 437.26 301.88 439.39C304.24 440.58 313.02 443.62 313.02 443.62C313.077 444.866 313.248 446.105 313.53 447.32C313.91 448.6 317.36 449.87 317.36 449.87C318.255 451.77 319.277 453.608 320.42 455.37C320.82 455.82 323.95 456.79 327.27 457.73C332.632 459.238 338.312 459.193 343.65 457.6L351.58 455.24V431.11" fill="#B78876"/>
<path d="M323.14 446.35C319.477 446.254 315.886 445.309 312.65 443.59C312.71 443.45 314.98 444.33 317.87 445.08C320.76 445.83 323.16 446.2 323.14 446.35Z" fill="#AA6550"/>
<path d="M322.41 451.22C321.437 451.43 320.423 451.358 319.49 451.01C318.509 450.832 317.597 450.382 316.86 449.71C317.801 449.91 318.727 450.177 319.63 450.51C320.572 450.68 321.501 450.917 322.41 451.22Z" fill="#AA6550"/>
<path d="M440.73 435.59C440.63 435.59 440.14 434.14 438.94 431.95C438.237 430.669 437.434 429.446 436.54 428.29C435.445 426.878 434.231 425.563 432.91 424.36C431.569 423.177 430.131 422.11 428.61 421.17C427.366 420.406 426.065 419.737 424.72 419.17C422.41 418.22 420.88 417.88 420.91 417.78C421.281 417.81 421.647 417.884 422 418C422.42 418.083 422.834 418.193 423.24 418.33C423.72 418.48 424.24 418.63 424.86 418.87C426.247 419.393 427.585 420.035 428.86 420.79C430.422 421.723 431.895 422.797 433.26 424C434.599 425.222 435.827 426.561 436.93 428C437.815 429.19 438.594 430.455 439.26 431.78C439.57 432.33 439.77 432.87 439.98 433.33C440.156 433.72 440.306 434.121 440.43 434.53C440.574 434.87 440.674 435.226 440.73 435.59Z" fill="#AA6550"/>
<path d="M326.21 428.72C325.75 429.355 325.213 429.929 324.61 430.43C323.229 431.734 321.71 432.884 320.08 433.86C318.43 434.821 316.637 435.513 314.77 435.91C314.008 436.117 313.218 436.201 312.43 436.16C312.38 435.97 316.03 435.64 319.81 433.41C321.412 432.448 322.934 431.358 324.36 430.15C324.929 429.615 325.549 429.136 326.21 428.72Z" fill="#AA6550"/>
<path d="M111.08 405C112.86 405 97.4601 446.38 93.4901 456.95C93.0501 458.12 92.7501 459.15 92.7501 459.15L200.57 459.33L199.3 359C199.305 358.933 199.305 358.867 199.3 358.8L190.3 287.04C190.256 286.692 190.11 286.365 189.88 286.1C189.651 285.835 189.348 285.644 189.01 285.55C184.74 284.4 169.35 280.43 157.58 279.99C143.79 279.48 123.83 282.22 123.83 282.22C123.83 282.22 105.9 284 96.0001 287.6C95.6174 287.737 95.2938 288.002 95.0841 288.35C94.8745 288.698 94.7918 289.108 94.8501 289.51L111.08 405Z" fill="#FF8927"/>
<path d="M160.87 360.5C160.733 360.953 160.552 361.392 160.33 361.81C160.11 362.316 159.856 362.808 159.57 363.28C159.224 363.924 158.844 364.548 158.43 365.15C157.945 365.896 157.417 366.614 156.85 367.3C156.227 368.1 155.559 368.865 154.85 369.59C153.203 371.25 151.394 372.74 149.45 374.04C147.478 375.3 145.388 376.365 143.21 377.22C142.21 377.57 141.21 377.93 140.3 378.16C139.445 378.402 138.577 378.596 137.7 378.74C136.983 378.878 136.258 378.978 135.53 379.04C134.98 379.115 134.425 379.152 133.87 379.15C133.401 379.202 132.929 379.202 132.46 379.15C132.46 379.04 134.46 379.05 137.63 378.41C138.49 378.24 139.342 378.027 140.18 377.77C141.1 377.53 142.04 377.16 143.03 376.77C145.168 375.907 147.22 374.845 149.16 373.6C151.077 372.323 152.869 370.866 154.51 369.25C155.24 368.48 155.96 367.77 156.51 367.02C157.084 366.357 157.622 365.662 158.12 364.94C160 362.31 160.77 360.45 160.87 360.5Z" fill="#263238"/>
<g opacity="0.2">
<path d="M96.41 449.1C101.463 451.171 106.965 451.903 112.383 451.225C117.801 450.547 122.953 448.482 127.34 445.23C131.23 442.41 134.49 438.72 138.69 436.37C144.51 433.13 151.44 432.82 158.09 432.37C166.98 431.73 175.95 430.64 184.31 427.54C186.054 427.03 187.636 426.076 188.9 424.77C190.05 423.38 190.44 421.19 189.31 419.77C188.18 418.35 186.03 418.25 184.18 418.31C156.3 419.13 130.82 421.36 103.68 427.81" fill="black"/>
</g>
<path d="M126.46 176.76C135.08 167.98 148.68 162.76 159.94 167.76C167.52 171.08 172.66 178.19 179.31 183.1C184.15 186.68 190.13 189.45 192.67 194.91C194.91 199.72 193.83 205.33 193.29 210.61C192.75 215.89 193.13 221.98 197.22 225.37C199.36 227.14 202.22 227.85 204.61 229.23C209.48 232.02 212.37 237.45 213.41 242.96C214.45 248.47 213.89 254.15 213.33 259.74L190.12 264.16L186.31 257.75L185 267.8L155.38 270.47L126.46 176.76Z" fill="#263238"/>
<path d="M122.63 186.34V192.79L120.8 289.6C120.64 300.82 131.38 310.37 143.4 310.45C155.53 310.53 160.48 301.45 160.83 290.08C161.19 278.19 161.83 265.67 161.83 265.67C161.83 265.67 177.22 263.55 180.95 243.67C182.8 233.77 182.75 217.46 182.28 204.11C182.181 201.261 181.506 198.462 180.297 195.881C179.087 193.3 177.368 190.99 175.243 189.091C173.117 187.192 170.63 185.742 167.929 184.829C165.229 183.917 162.372 183.56 159.53 183.78L122.63 186.34Z" fill="#FFBE9D"/>
<path d="M176.92 216.94C176.91 217.608 176.638 218.245 176.163 218.714C175.688 219.183 175.048 219.448 174.38 219.45C174.053 219.468 173.726 219.419 173.419 219.309C173.111 219.198 172.828 219.026 172.588 218.804C172.347 218.583 172.154 218.315 172.019 218.017C171.883 217.719 171.809 217.397 171.8 217.07C171.813 216.402 172.085 215.766 172.559 215.296C173.034 214.825 173.672 214.558 174.34 214.55C174.668 214.533 174.995 214.581 175.304 214.693C175.612 214.804 175.895 214.976 176.136 215.199C176.376 215.422 176.57 215.691 176.704 215.99C176.839 216.289 176.912 216.612 176.92 216.94Z" fill="#263238"/>
<path d="M178.43 212.46C178.1 212.79 176.2 211.29 173.43 211.23C170.66 211.17 168.61 212.48 168.32 212.13C168.18 211.98 168.52 211.39 169.42 210.77C170.634 209.97 172.068 209.571 173.52 209.63C174.969 209.654 176.372 210.145 177.52 211.03C178.32 211.7 178.59 212.31 178.43 212.46Z" fill="#263238"/>
<path d="M149.74 216.94C149.727 217.607 149.454 218.242 148.98 218.711C148.506 219.18 147.867 219.445 147.2 219.45C146.873 219.468 146.547 219.419 146.239 219.309C145.931 219.198 145.648 219.026 145.408 218.804C145.168 218.583 144.974 218.315 144.839 218.017C144.703 217.719 144.629 217.397 144.62 217.07C144.633 216.402 144.905 215.766 145.38 215.296C145.854 214.825 146.492 214.558 147.16 214.55C147.488 214.533 147.815 214.581 148.124 214.693C148.432 214.804 148.715 214.976 148.956 215.199C149.196 215.422 149.39 215.691 149.524 215.99C149.659 216.289 149.733 216.612 149.74 216.94Z" fill="#263238"/>
<path d="M151.29 212.23C150.96 212.55 149.06 211.06 146.29 210.99C143.52 210.92 141.47 212.25 141.18 211.9C141.04 211.75 141.38 211.15 142.28 210.54C143.494 209.74 144.927 209.338 146.38 209.39C147.829 209.417 149.231 209.907 150.38 210.79C151.18 211.47 151.45 212.08 151.29 212.23Z" fill="#263238"/>
<path d="M160.74 233C160.74 232.84 162.46 232.59 165.24 232.31C165.95 232.26 166.62 232.14 166.75 231.66C166.832 230.935 166.689 230.201 166.34 229.56C165.73 227.83 165.08 226.03 164.4 224.13C161.72 216.42 159.8 210.13 160.11 209.97C160.42 209.81 162.85 216.04 165.53 223.76C166.18 225.66 166.8 227.47 167.38 229.21C167.805 230.069 167.908 231.052 167.67 231.98C167.562 232.227 167.398 232.445 167.191 232.619C166.985 232.792 166.742 232.916 166.48 232.98C166.088 233.077 165.684 233.121 165.28 233.11C162.48 233.16 160.75 233.12 160.74 233Z" fill="#263238"/>
<path d="M161.75 265.67C152.331 265.556 143.129 262.828 135.17 257.79C135.17 257.79 141.28 271.7 161.35 270.38L161.75 265.67Z" fill="#EB996E"/>
<path d="M159.39 239.58C158.885 238.9 158.215 238.36 157.443 238.011C156.672 237.661 155.824 237.513 154.98 237.58C154.37 237.619 153.774 237.781 153.227 238.056C152.681 238.331 152.195 238.713 151.8 239.18C151.42 239.63 151.187 240.185 151.132 240.772C151.077 241.358 151.202 241.947 151.49 242.46C151.924 242.964 152.497 243.329 153.138 243.507C153.779 243.685 154.458 243.668 155.09 243.46C156.402 243.033 157.618 242.353 158.67 241.46C158.99 241.249 159.265 240.977 159.48 240.66C159.578 240.512 159.63 240.338 159.63 240.16C159.63 239.982 159.578 239.809 159.48 239.66" fill="#EB996E"/>
<path d="M152.57 234.65C153.02 234.65 152.94 237.65 155.44 239.83C157.94 242.01 161.15 241.78 161.16 242.2C161.16 242.39 160.43 242.77 159.08 242.76C157.326 242.741 155.635 242.1 154.31 240.95C153.035 239.851 152.238 238.297 152.09 236.62C152 235.36 152.36 234.63 152.57 234.65Z" fill="#263238"/>
<path d="M152.17 204.2C151.87 204.94 149.17 204.51 145.88 204.81C142.59 205.11 139.99 205.92 139.58 205.24C139.4 204.91 139.87 204.24 140.95 203.52C142.384 202.67 143.993 202.158 145.654 202.021C147.315 201.884 148.986 202.126 150.54 202.73C151.71 203.24 152.29 203.85 152.17 204.2Z" fill="#263238"/>
<path d="M178.53 206.89C177.92 207.5 175.63 206.78 172.84 206.67C170.05 206.56 167.7 206.95 167.17 206.28C166.94 205.96 167.33 205.34 168.38 204.78C169.823 204.075 171.428 203.764 173.03 203.88C174.626 203.933 176.179 204.409 177.53 205.26C178.49 205.93 178.8 206.59 178.53 206.89Z" fill="#263238"/>
<path d="M102 285.77C102 285.77 69.8401 293.31 63.6001 323.77C60.7301 337.77 56.7201 418.24 75.4601 430.77C99.6501 446.91 130.46 432.23 130.46 432.23L126.46 393.31H106.46L103.77 350.67C104.55 354 102 285.77 102 285.77Z" fill="#FF8927"/>
<path d="M216.4 419.71C222.708 419.063 228.531 416.031 232.678 411.234C236.825 406.436 238.983 400.236 238.71 393.9L225.57 338.07C225.57 338.07 217.05 290.17 190.12 285.85L199.3 358.85L198.42 374.24C198.42 374.24 198.84 384.42 199.87 403.5L216.4 419.71Z" fill="#FF8927"/>
<path d="M219.88 384.78C218.256 384.84 216.639 385.017 215.04 385.31C211.181 386.094 207.646 388.016 204.89 390.829C202.134 393.642 200.285 397.216 199.58 401.09C199.319 402.697 199.175 404.322 199.15 405.95C199.045 405.518 198.995 405.075 199 404.63C198.946 403.422 199.02 402.212 199.22 401.02C199.859 397.041 201.723 393.36 204.551 390.489C207.379 387.618 211.031 385.699 215 385C216.191 384.781 217.4 384.68 218.61 384.7C219.035 384.675 219.462 384.702 219.88 384.78Z" fill="#263238"/>
<path d="M136.91 174.53C140.53 179.39 142.25 183.12 144.42 191.77C145.49 196 142.04 198.99 138.62 201.58C138.252 201.86 137.82 202.042 137.363 202.11C136.907 202.179 136.44 202.131 136.007 201.972C135.573 201.812 135.187 201.546 134.884 201.198C134.58 200.85 134.369 200.431 134.27 199.98C134.27 199.98 135.45 213.23 130.66 219.17C128.42 221.96 128.32 225.53 128.85 228.54C129.451 231.602 130.94 234.418 133.13 236.64C138.69 242.48 140.23 252.01 136.4 259.17C135.29 260.93 134.272 262.745 133.35 264.61C132.884 265.723 132.668 266.925 132.72 268.13C132.779 268.837 132.567 269.541 132.127 270.098C131.687 270.654 131.052 271.024 130.35 271.13C113.893 273.51 97.2196 274.01 80.65 272.62C80.0803 272.574 79.5393 272.351 79.1034 271.981C78.6674 271.612 78.3584 271.115 78.22 270.56C76.92 265 79.09 259 81.86 254C84.96 248.35 88.86 242.93 89.97 236.58C90.97 230.58 89.34 224.16 91.74 218.58C94.74 211.75 102.74 208.52 106.74 202.25C110.53 196.34 110.22 188.59 113.61 182.45C117.97 174.55 128.68 170.91 136.94 174.52" fill="#263238"/>
<path d="M137.83 181.86C144.12 185.1 147.03 192.79 153.14 196.35C158.7 199.59 165.64 198.74 172.01 197.78C171.78 196.37 171.54 194.95 171.3 193.54C171.873 194.816 172.673 195.979 173.66 196.97C174.161 197.459 174.786 197.803 175.468 197.965C176.149 198.127 176.862 198.101 177.53 197.89C179.67 197.03 179.95 194.09 179.41 191.89C178.432 188.309 176.512 185.057 173.85 182.47C169.094 177.643 162.758 174.689 156.003 174.149C149.247 173.609 142.523 175.519 137.06 179.53" fill="#263238"/>
<path d="M196.8 324.21C196.846 324.471 196.866 324.735 196.86 325C196.86 325.56 196.86 326.31 196.93 327.25C196.93 329.25 197.07 332.04 197.22 335.53C197.51 342.53 198.16 352.17 198.95 362.82C199.74 373.47 200.33 383.13 200.52 390.13C200.62 393.63 200.67 396.46 200.64 398.42C200.64 399.36 200.64 400.11 200.64 400.67C200.664 400.933 200.664 401.197 200.64 401.46C200.594 401.199 200.574 400.935 200.58 400.67C200.58 400.11 200.58 399.36 200.51 398.42C200.51 396.42 200.37 393.64 200.22 390.14C199.94 383.14 199.28 373.51 198.5 362.85C197.72 352.19 197.11 342.55 196.92 335.55C196.82 332.05 196.78 329.21 196.8 327.25C196.8 326.31 196.8 325.56 196.8 325C196.783 324.737 196.783 324.473 196.8 324.21Z" fill="#263238"/>
<path d="M106.49 393.32C106.445 393.137 106.421 392.949 106.42 392.76C106.42 392.33 106.36 391.76 106.31 391.15C106.23 389.68 106.12 387.69 105.99 385.25C105.7 380.25 105.26 373.38 104.74 365.77C104.22 358.16 103.74 351.35 103.39 346.3C103.23 343.87 103.1 341.87 103 340.4C103 339.75 102.94 339.22 102.92 338.8C102.896 338.611 102.896 338.419 102.92 338.23C102.969 338.413 102.999 338.601 103.01 338.79C103.01 339.21 103.12 339.74 103.19 340.39C103.33 341.85 103.52 343.84 103.75 346.28C104.19 351.28 104.75 358.13 105.25 365.74C105.75 373.35 106.15 380.24 106.34 385.23C106.43 387.73 106.5 389.75 106.51 391.14V392.75C106.529 392.94 106.522 393.132 106.49 393.32Z" fill="#263238"/>
<path d="M106.49 393.32C106.49 393.41 105.49 393.46 103.87 393.99C101.82 394.669 99.9991 395.903 98.6095 397.556C97.22 399.208 96.3166 401.214 96.0001 403.35C95.7501 404.99 95.8801 406.03 95.7901 406.04C95.7001 406.05 95.6901 405.79 95.6301 405.32C95.5558 404.655 95.5558 403.985 95.6301 403.32C95.864 401.078 96.7625 398.958 98.2101 397.23C99.6745 395.52 101.607 394.275 103.77 393.65C104.423 393.468 105.093 393.354 105.77 393.31C106.23 393.26 106.49 393.28 106.49 393.32Z" fill="#263238"/>
<path d="M130.41 432.24C130.347 432.039 130.307 431.831 130.29 431.62C130.23 431.16 130.16 430.57 130.06 429.84C129.88 428.23 129.63 426.02 129.32 423.3C128.73 417.72 127.93 410.11 127.05 401.71C126.76 398.79 126.47 395.96 126.21 393.34L126.46 393.57L110.46 393.47L105.81 393.4H104.57C104.427 393.417 104.283 393.417 104.14 393.4C104.28 393.363 104.425 393.346 104.57 393.35H105.81L110.46 393.28L126.46 393.19H126.68V393.42L127.54 401.78C128.36 410.19 129.1 417.78 129.65 423.4C129.89 426.12 130.09 428.34 130.23 429.95C130.29 430.68 130.33 431.28 130.37 431.74C130.397 431.905 130.411 432.073 130.41 432.24Z" fill="#263238"/>
<path d="M130.41 432.24C130.163 432.346 129.909 432.436 129.65 432.51L127.46 433.21C125.55 433.81 122.78 434.65 119.32 435.57C115.27 436.677 111.156 437.532 107 438.13C101.878 438.823 96.673 438.575 91.64 437.4C89.0318 436.837 86.4604 436.116 83.94 435.24C82.73 434.8 81.54 434.36 80.39 433.88C79.82 433.64 79.25 433.41 78.71 433.12L77.89 432.71L77.12 432.22C75.24 430.948 73.6068 429.346 72.3 427.49C71.1503 425.893 70.1463 424.196 69.3 422.42C68.1117 419.852 67.1091 417.202 66.3 414.49C66 413.49 65.78 412.79 65.65 412.28C65.5684 412.021 65.5049 411.757 65.46 411.49C65.5795 411.734 65.6766 411.988 65.75 412.25L66.49 414.43C67.3772 417.101 68.4326 419.713 69.65 422.25C70.5026 424.001 71.5065 425.674 72.65 427.25C73.9406 429.05 75.5465 430.602 77.39 431.83L78.13 432.3L78.92 432.7C79.44 432.98 80.01 433.2 80.58 433.44C81.72 433.91 82.9 434.35 84.11 434.77C86.6108 435.638 89.1622 436.352 91.75 436.91C96.7266 438.072 101.871 438.333 106.94 437.68C111.08 437.103 115.184 436.289 119.23 435.24C122.69 434.36 125.47 433.57 127.4 433.04L129.62 432.43C129.876 432.34 130.141 432.276 130.41 432.24Z" fill="#263238"/>
<path d="M113.44 198.22C114.401 195.86 114.635 193.267 114.113 190.773C113.591 188.278 112.337 185.997 110.51 184.22C108.633 182.504 106.334 181.317 103.848 180.779C101.363 180.242 98.7786 180.373 96.3601 181.16C94.1572 181.823 92.2211 183.168 90.8301 185C88.3801 188.38 88.8301 193.36 91.3901 196.69C92.7295 198.302 94.3972 199.609 96.2821 200.525C98.1669 201.44 100.225 201.943 102.32 202C106.518 202.084 110.68 201.223 114.5 199.48" fill="#263238"/>
<path d="M146.69 356.82C153.69 362.59 170.15 376.25 170.15 376.25L179.36 374.61L151.44 351.12C150.717 350.515 149.79 350.208 148.848 350.262C147.906 350.316 147.02 350.726 146.37 351.41C146.017 351.777 145.744 352.213 145.568 352.691C145.392 353.168 145.317 353.677 145.347 354.185C145.377 354.693 145.512 355.19 145.743 355.643C145.974 356.097 146.297 356.497 146.69 356.82Z" fill="#455A64"/>
<path d="M146 353.82L142.38 350.55C142.04 350.241 141.832 349.813 141.8 349.354C141.768 348.896 141.915 348.443 142.21 348.09C142.365 347.909 142.555 347.761 142.768 347.654C142.981 347.548 143.213 347.486 143.451 347.471C143.689 347.456 143.927 347.489 144.152 347.568C144.377 347.647 144.584 347.77 144.76 347.93L148.25 351.13L146 353.82Z" fill="#455A64"/>
<path d="M156.74 355.58C156.127 356.601 155.369 357.527 154.49 358.33C153.733 359.248 152.851 360.056 151.87 360.73C152.484 359.707 153.242 358.778 154.12 357.97C154.872 357.05 155.755 356.245 156.74 355.58Z" fill="#263238"/>
<path d="M157 367.08C156.015 366.562 155.081 365.953 154.21 365.26C152.55 364.06 150.3 362.32 147.93 360.26C146.716 359.356 145.713 358.199 144.99 356.87C144.478 355.706 144.446 354.388 144.9 353.2C145.204 352.412 145.715 351.721 146.38 351.2C146.85 350.85 147.16 350.74 147.17 350.77C147.18 350.8 146.92 350.97 146.51 351.36C145.929 351.91 145.496 352.598 145.25 353.36C144.879 354.459 144.944 355.658 145.43 356.71C146.152 357.957 147.122 359.043 148.28 359.9C150.63 361.95 152.83 363.73 154.44 365C155.336 365.64 156.191 366.334 157 367.08Z" fill="#263238"/>
<path d="M126.77 396.43C133.41 394.21 140.45 395.71 147.08 393.48C149.356 392.882 151.489 391.831 153.35 390.39C155.46 388.52 156.53 385.77 158.21 383.51C163.21 376.75 172.6 375.35 180.98 374.51C182.923 374.197 184.906 374.224 186.84 374.59C187.807 374.785 188.707 375.226 189.453 375.871C190.199 376.516 190.767 377.342 191.1 378.27C191.64 380.16 190.42 382.52 188.46 382.72C190.3 382.8 191.58 384.66 191.92 386.47C192.26 388.28 191.92 390.14 192.2 391.96C192.54 394.52 193.94 396.91 193.86 399.49C193.75 403.02 190.86 405.93 187.56 407.29C184.26 408.65 180.69 408.83 177.2 409.29C160 411.71 147 421.46 130.41 428.83" fill="#FFBE9D"/>
<path d="M192.08 388.82C192.249 389.096 192.473 389.334 192.738 389.52C193.003 389.705 193.303 389.834 193.62 389.899C193.937 389.964 194.264 389.963 194.581 389.896C194.897 389.829 195.196 389.698 195.46 389.51C195.974 389.101 196.366 388.561 196.595 387.946C196.824 387.331 196.881 386.665 196.76 386.02C196.498 384.73 195.929 383.523 195.1 382.5C193.639 380.609 192.034 378.834 190.3 377.19L185 381.65L192.08 388.82Z" fill="#FFBE9D"/>
<path d="M190.12 383C190.12 383.17 186.86 382.9 182.93 383.51C179 384.12 175.93 385.3 175.93 385.15C176.529 384.756 177.182 384.452 177.87 384.25C179.494 383.674 181.168 383.252 182.87 382.99C184.574 382.732 186.299 382.641 188.02 382.72C188.73 382.711 189.437 382.806 190.12 383Z" fill="#EB996E"/>
<path d="M192.46 393.42C192.46 393.58 189.73 393.02 186.36 393.12C182.99 393.22 180.31 393.88 180.28 393.72C184.205 392.329 188.471 392.224 192.46 393.42Z" fill="#EB996E"/>
<path d="M191.9 390.34C191.81 390.34 191.9 389.56 191.75 388.34C191.558 386.757 191.007 385.238 190.14 383.9C189.932 383.577 189.705 383.266 189.46 382.97L189.31 382.78L189.47 382.62C189.926 382.157 190.285 381.606 190.523 381.001C190.762 380.397 190.877 379.75 190.86 379.1C190.86 378.1 190.56 377.54 190.63 377.51C190.987 377.956 191.185 378.509 191.19 379.08C191.267 379.792 191.184 380.512 190.949 381.188C190.714 381.864 190.332 382.479 189.83 382.99V382.64C190.093 382.959 190.336 383.293 190.56 383.64C191.473 385.046 192.004 386.666 192.1 388.34C192.179 389.013 192.111 389.696 191.9 390.34Z" fill="#EB996E"/>
<path d="M192.09 388.25L200.81 396.43L201.92 401.29L193.86 399.47C192.7 395.37 191.85 391.46 192.09 388.25Z" fill="#455A64"/>
<path d="M180.28 398.67C180.1 398.99 133.2 422.11 133.2 422.11V427.11L181.06 402.21L240.43 400V396.48L180.28 398.67Z" fill="#F5F5F5"/>
<path d="M133.2 427.8C133.53 427.58 184.98 422.94 184.98 422.94L240.43 399.94L181.06 402.18L133.2 427.08V427.8Z" fill="#263238"/>
<path d="M182.46 415.49C182.05 412.79 184.63 410.49 187.26 409.76C189.89 409.03 192.7 409.33 195.36 408.76C197.048 408.296 198.699 407.708 200.3 407C208.5 403.86 217.5 403.69 226.3 403.57C226.811 404.762 226.891 406.095 226.526 407.34C226.161 408.584 225.374 409.663 224.3 410.39C225.027 412.541 224.931 414.886 224.03 416.97C223.123 419.035 221.883 420.937 220.36 422.6C219.21 424.123 217.73 425.364 216.03 426.23C214.252 426.882 212.362 427.174 210.47 427.09C204.57 427.21 198.25 427.22 193.38 423.91C189.59 421.33 186.97 416.91 182.58 415.61H183.58" fill="#FFBE9D"/>
<path d="M221.76 412.22C221.393 412.303 221.017 412.34 220.64 412.33L217.56 412.43C214.96 412.49 211.37 412.53 207.41 412.55H201.81C200.972 412.562 200.138 412.437 199.34 412.18C198.628 411.928 198.005 411.473 197.55 410.87C197.359 410.621 197.22 410.336 197.141 410.032C197.062 409.728 197.045 409.411 197.09 409.1C197.165 408.636 197.382 408.206 197.71 407.87C197.833 407.726 197.986 407.611 198.159 407.535C198.333 407.459 198.521 407.423 198.71 407.43C198.368 407.549 198.06 407.748 197.81 408.01C197.489 408.375 197.313 408.844 197.313 409.33C197.313 409.816 197.489 410.285 197.81 410.65C198.234 411.173 198.8 411.562 199.44 411.77C200.2 411.992 200.989 412.094 201.78 412.07H207.37C211.37 412.07 214.92 412.07 217.52 412.07L220.6 412.13C220.989 412.109 221.379 412.139 221.76 412.22Z" fill="#EB996E"/>
<path d="M218.74 417.16C218.279 417.291 217.807 417.382 217.33 417.43C216.41 417.58 215.08 417.77 213.43 417.93C211.486 418.125 209.531 418.169 207.58 418.06C205.198 417.866 202.836 417.471 200.52 416.88C196.339 415.86 192.054 415.333 187.75 415.31C186.1 415.31 184.75 415.37 183.84 415.42C183.358 415.462 182.873 415.462 182.39 415.42C182.858 415.293 183.337 415.213 183.82 415.18C185.121 415.019 186.43 414.926 187.74 414.9C192.081 414.81 196.415 415.291 200.63 416.33C202.929 416.916 205.269 417.324 207.63 417.55C209.558 417.682 211.492 417.682 213.42 417.55C215.07 417.44 216.42 417.3 217.32 417.22C217.79 417.153 218.266 417.132 218.74 417.16Z" fill="#EB996E"/>
<path d="M213.85 422.44C213.489 422.55 213.117 422.617 212.74 422.64C212.03 422.74 210.99 422.87 209.74 422.98C206.381 423.333 202.989 423.222 199.66 422.65C195.71 421.9 192.66 419.88 190.29 418.95C189.012 418.431 187.69 418.026 186.34 417.74C186.714 417.694 187.093 417.714 187.46 417.8C188.488 417.954 189.494 418.226 190.46 418.61C192.91 419.48 195.96 421.41 199.8 422.14C203.102 422.698 206.46 422.856 209.8 422.61L212.8 422.44C213.149 422.401 213.501 422.401 213.85 422.44Z" fill="#EB996E"/>
<g opacity="0.2">
<path d="M200.55 395.59C200.934 391.924 201.921 388.345 203.47 385C205.037 381.656 207.692 378.941 211 377.3C212.662 376.506 214.499 376.148 216.338 376.26C218.177 376.372 219.957 376.95 221.51 377.94C222.448 378.545 223.18 379.42 223.61 380.45C223.82 380.963 223.883 381.525 223.793 382.072C223.703 382.619 223.463 383.131 223.1 383.55C222 384.73 220.1 384.55 218.52 384.47C214.832 384.369 211.193 385.327 208.033 387.23C204.873 389.134 202.325 391.903 200.69 395.21" fill="black"/>
</g>
<g opacity="0.2">
<path d="M113.71 392.55C117.71 385.38 116.27 376.39 113.22 368.79C110.17 361.19 105.62 354.19 103.29 346.33C102.852 362.274 105.169 378.174 110.14 393.33" fill="black"/>
</g>
<path d="M120.75 282.88C120.75 282.88 125.6 294.31 143.1 293.58C160.6 292.85 161.16 279.28 161.16 279.28L172.87 291.73L161.75 314.64L146.81 325.79L126.46 317.43L109.69 304.43L120.75 282.88Z" fill="#FF8927"/>
<g opacity="0.5">
<path d="M79.7701 331.74C79.9501 331.96 77.6701 334.1 74.6601 336.51C71.6501 338.92 69.0801 340.69 68.9001 340.46C68.7201 340.23 71.0001 338.11 74.0001 335.7C77.0001 333.29 79.5901 331.51 79.7701 331.74Z" fill="#FAFAFA"/>
</g>
<path d="M88.0002 319.41C87.9102 319.67 85.1502 318.89 82.1602 317.04C79.1702 315.19 77.2202 313.1 77.4102 312.9C77.6002 312.7 79.8002 314.39 82.7002 316.16C85.6002 317.93 88.0802 319.13 88.0002 319.41Z" fill="#FAFAFA"/>
<path d="M103 320.75C103.24 320.93 101 324.14 98.51 328.22C96.02 332.3 94.09 335.7 93.83 335.57C93.57 335.44 95.06 331.8 97.63 327.67C100.2 323.54 102.79 320.57 103 320.75Z" fill="#FAFAFA"/>
<path d="M90.1601 355.5C89.9601 355.68 87.6501 353.32 85.6301 349.83C83.6101 346.34 82.6901 343.17 82.9501 343.08C83.2101 342.99 84.5401 345.91 86.5301 349.3C88.5201 352.69 90.3901 355.3 90.1601 355.5Z" fill="#FAFAFA"/>
<path d="M76.7401 372.31C76.4601 372.31 75.8702 369.81 75.4402 366.63C75.0102 363.45 74.8901 360.84 75.1701 360.8C75.4501 360.76 76.0402 363.31 76.4702 366.49C76.9002 369.67 77.0001 372.27 76.7401 372.31Z" fill="#FAFAFA"/>
<g opacity="0.5">
<path d="M89.38 376.89C89.13 376.75 90.38 374.07 92.25 370.89C94.12 367.71 95.77 365.28 96.02 365.42C96.27 365.56 95.02 368.25 93.15 371.42C91.28 374.59 89.63 377 89.38 376.89Z" fill="#FAFAFA"/>
</g>
<path d="M74.7001 394.3C74.4901 394.49 72.2601 392.3 70.0901 389.14C67.9201 385.98 66.6901 383.14 66.9301 382.99C67.1701 382.84 68.8201 385.45 70.9301 388.55C73.0401 391.65 74.9201 394.11 74.7001 394.3Z" fill="#FAFAFA"/>
<path d="M94.65 391.43C94.85 391.63 92.55 394.28 89.52 397.34C86.49 400.4 83.86 402.73 83.65 402.53C83.44 402.33 85.74 399.68 88.78 396.61C91.82 393.54 94.44 391.23 94.65 391.43Z" fill="#FAFAFA"/>
<g opacity="0.5">
<path d="M83.3101 427.36C83.1201 427.56 80.9001 425.72 78.8801 422.82C76.8601 419.92 75.8801 417.22 76.1201 417.11C76.3601 417 77.7701 419.43 79.7401 422.22C81.7101 425.01 83.5201 427.15 83.3101 427.36Z" fill="#FAFAFA"/>
</g>
<path d="M109.05 420.09C109.19 420.34 106.73 422.01 103.56 423.82C100.39 425.63 97.6901 426.9 97.5601 426.65C97.4301 426.4 99.8801 424.73 103.05 422.92C106.22 421.11 108.91 419.84 109.05 420.09Z" fill="#FAFAFA"/>
<path d="M119.08 411.81C118.9 412.02 116.57 410.24 114.45 407.33C112.33 404.42 111.34 401.66 111.6 401.56C111.86 401.46 113.24 403.92 115.29 406.72C117.34 409.52 119.29 411.59 119.08 411.81Z" fill="#FAFAFA"/>
<path d="M136.77 354.22C136.95 354.45 134.3 356.73 130.86 359.3C127.42 361.87 124.5 363.77 124.32 363.54C124.14 363.31 126.8 361.04 130.24 358.47C133.68 355.9 136.6 354 136.77 354.22Z" fill="#FAFAFA"/>
<path d="M118.13 353C117.84 353 117.89 350.23 118.23 346.88C118.57 343.53 119.08 340.88 119.37 340.88C119.66 340.88 119.61 343.65 119.27 347C118.93 350.35 118.41 353.05 118.13 353Z" fill="#FAFAFA"/>
<g opacity="0.5">
<path d="M135.32 329.59C135.16 329.82 132.06 327.91 128.66 325C125.26 322.09 122.88 319.34 123.08 319.15C123.28 318.96 125.97 321.34 129.34 324.21C132.71 327.08 135.49 329.35 135.32 329.59Z" fill="#FAFAFA"/>
</g>
<path d="M122.41 300.37C122.63 300.56 120.41 303.5 117.53 306.94C114.65 310.38 112.07 313.01 111.85 312.83C111.63 312.65 113.85 309.7 116.73 306.26C119.61 302.82 122.19 300.19 122.41 300.37Z" fill="#FAFAFA"/>
<g opacity="0.5">
<path d="M107.62 297.24C107.46 297.5 105.23 296.35 102.32 295.38C99.4101 294.41 97.0001 293.94 97.0001 293.64C97.0001 293.34 99.6401 293.36 102.68 294.39C105.72 295.42 107.77 297 107.62 297.24Z" fill="#FAFAFA"/>
</g>
<path d="M145.21 310.71C144.94 310.63 145.41 308.2 146.27 305.28C147.13 302.36 148.05 300.06 148.27 300.14C148.49 300.22 148.08 302.65 147.27 305.57C146.46 308.49 145.49 310.8 145.21 310.71Z" fill="#FAFAFA"/>
<path d="M154.2 333.73C153.91 333.73 153.81 331.33 153.98 328.41C154.15 325.49 154.52 323.14 154.8 323.15C155.08 323.16 155.19 325.55 155.02 328.47C154.85 331.39 154.48 333.75 154.2 333.73Z" fill="#FAFAFA"/>
<path d="M169 351C168.82 351.23 166.63 349.77 164.11 347.74C161.59 345.71 159.69 343.89 159.87 343.67C160.05 343.45 162.24 344.9 164.76 346.93C167.28 348.96 169.15 350.78 169 351Z" fill="#FAFAFA"/>
<path d="M184.71 326.89C184.9 327.1 182.95 329.14 180.35 331.43C177.75 333.72 175.49 335.43 175.35 335.19C175.21 334.95 177.11 332.94 179.71 330.65C182.31 328.36 184.52 326.67 184.71 326.89Z" fill="#FAFAFA"/>
<g opacity="0.5">
<path d="M177.48 315.5C177.32 315.74 174.85 314.38 172.19 312.17C169.53 309.96 167.73 307.78 167.93 307.59C168.13 307.4 170.23 309.2 172.85 311.36C175.47 313.52 177.64 315.26 177.48 315.5Z" fill="#FAFAFA"/>
</g>
<path d="M195.66 295.2C195.89 295.36 194.66 297.43 192.54 299.43C190.42 301.43 188.27 302.53 188.12 302.29C187.97 302.05 189.77 300.61 191.82 298.68C193.87 296.75 195.42 295 195.66 295.2Z" fill="#FAFAFA"/>
<g opacity="0.5">
<path d="M183.16 293.3C183.16 293.58 179.93 293.35 176.16 292.38C172.39 291.41 169.43 290.11 169.53 289.84C169.63 289.57 172.66 290.43 176.42 291.37C180.18 292.31 183.2 293 183.16 293.3Z" fill="#FAFAFA"/>
</g>
<g opacity="0.5">
<path d="M206.38 325.62C206.11 325.56 206.73 321.62 208.16 317C209.59 312.38 211.24 308.76 211.5 308.86C211.76 308.96 210.56 312.69 209.16 317.3C207.76 321.91 206.67 325.68 206.38 325.62Z" fill="#FAFAFA"/>
</g>
<path d="M211.53 347.68C211.32 347.87 208.85 345.6 206.01 342.59C203.17 339.58 201.01 336.99 201.26 336.79C201.51 336.59 203.93 338.87 206.77 341.88C209.61 344.89 211.74 347.48 211.53 347.68Z" fill="#FAFAFA"/>
<g opacity="0.5">
<path d="M219.5 360.17C219.21 360.17 219.03 356.89 219.1 352.85C219.17 348.81 219.46 345.55 219.75 345.55C220.04 345.55 220.21 348.83 220.14 352.87C220.07 356.91 219.78 360.18 219.5 360.17Z" fill="#FAFAFA"/>
</g>
<path d="M211.41 380.75C211.18 380.91 209.04 378.29 207.06 374.63C205.08 370.97 204.06 367.74 204.31 367.63C204.56 367.52 206.02 370.53 207.98 374.12C209.94 377.71 211.65 380.58 211.41 380.75Z" fill="#FAFAFA"/>
<path d="M232.06 384.51C232.27 384.71 230.88 386.39 228.97 388.26C227.06 390.13 225.34 391.47 225.14 391.26C224.94 391.05 226.33 389.37 228.24 387.5C230.15 385.63 231.86 384.3 232.06 384.51Z" fill="#FAFAFA"/>
<g opacity="0.5">
<path d="M181.78 361.06C181.52 360.98 182.44 357.7 184.78 354.28C187.12 350.86 189.87 348.83 190.04 349.05C190.21 349.27 187.9 351.57 185.64 354.88C183.38 358.19 182.06 361.17 181.78 361.06Z" fill="#FAFAFA"/>
</g>
<path d="M123.47 388.49C123.19 388.42 123.68 385.49 124.56 381.85C125.44 378.21 126.4 375.38 126.68 375.45C126.96 375.52 126.46 378.5 125.58 382.1C124.7 385.7 123.74 388.56 123.47 388.49Z" fill="#FAFAFA"/>
<path d="M148 390.94C147.84 391.18 145.35 389.83 142.44 387.94C139.53 386.05 137.29 384.31 137.44 384.07C137.59 383.83 140.08 385.17 143 387.07C145.92 388.97 148.19 390.7 148 390.94Z" fill="#FAFAFA"/>
<path d="M146.8 373.22C146.56 373.38 145.39 372.05 144.18 370.22C142.97 368.39 142.18 366.83 142.43 366.67C142.68 366.51 143.84 367.84 145.05 369.67C146.26 371.5 147 373.06 146.8 373.22Z" fill="#FAFAFA"/>
<path d="M157.63 377.26C157.79 377.49 156.74 378.51 155.28 379.54C153.82 380.57 152.5 381.21 152.33 380.98C152.16 380.75 153.22 379.72 154.68 378.69C156.14 377.66 157.46 377 157.63 377.26Z" fill="#FAFAFA"/>
<g opacity="0.5">
<path d="M129.35 449.15C129.06 449.06 129.53 446.79 129.94 443.99C130.35 441.19 130.58 438.88 130.88 438.88C131.18 438.88 131.4 441.25 130.97 444.14C130.54 447.03 129.61 449.24 129.35 449.15Z" fill="#FAFAFA"/>
</g>
<g opacity="0.5">
<path d="M154.27 441C154.02 441.14 152.12 438.27 150.03 434.6C147.94 430.93 146.44 427.82 146.69 427.68C146.94 427.54 148.84 430.4 150.93 434.08C153.02 437.76 154.52 440.89 154.27 441Z" fill="#FAFAFA"/>
</g>
<g opacity="0.5">
<path d="M180.7 429.89C180.93 430.06 178.43 433.72 175.11 438.06C171.79 442.4 168.91 445.77 168.68 445.6C168.45 445.43 170.96 441.77 174.28 437.43C177.6 433.09 180.48 429.71 180.7 429.89Z" fill="#FAFAFA"/>
</g>
<g opacity="0.5">
<path d="M188.15 451.12C188.15 451.4 184.88 452.12 180.76 452.71C176.64 453.3 173.26 453.56 173.22 453.28C173.18 453 176.48 452.28 180.61 451.68C184.74 451.08 188.11 450.83 188.15 451.12Z" fill="#FAFAFA"/>
</g>
<path d="M189.3 440.42C189.01 440.35 189.3 438.22 189.37 435.6C189.44 432.98 189.37 430.83 189.72 430.79C190.07 430.75 190.54 432.91 190.41 435.64C190.28 438.37 189.57 440.49 189.3 440.42Z" fill="#FAFAFA"/>
<path d="M153.61 452.88C153.51 453.13 150.8 452.24 147.98 450.2C145.16 448.16 143.44 445.9 143.65 445.73C143.86 445.56 145.86 447.41 148.59 449.35C151.32 451.29 153.73 452.6 153.61 452.88Z" fill="#FAFAFA"/>
<path d="M111.2 451.3C110.92 451.23 111.2 448.94 111.94 446.2C112.68 443.46 113.42 441.28 113.7 441.35C113.98 441.42 113.64 443.7 112.95 446.45C112.26 449.2 111.48 451.37 111.2 451.3Z" fill="#FAFAFA"/>
<path d="M106.59 198.36C106.65 198.28 107.79 199.26 109.88 200.36C111.108 201.022 112.389 201.581 113.71 202.03C115.338 202.556 117.012 202.927 118.71 203.14C120.408 203.321 122.119 203.337 123.82 203.19C125.214 203.063 126.593 202.808 127.94 202.43C130.24 201.79 131.56 201.1 131.61 201.19C131.329 201.402 131.023 201.58 130.7 201.72C130.338 201.914 129.964 202.085 129.58 202.23C129.077 202.444 128.563 202.631 128.04 202.79C126.682 203.22 125.286 203.515 123.87 203.67C122.135 203.85 120.385 203.85 118.65 203.67C116.92 203.456 115.217 203.06 113.57 202.49C112.228 202.017 110.935 201.414 109.71 200.69C109.18 200.4 108.71 200.07 108.34 199.8C107.99 199.569 107.656 199.315 107.34 199.04C106.84 198.64 106.56 198.39 106.59 198.36Z" fill="#455A64"/>
<path d="M132.42 209.87C132.07 210.02 131.705 210.131 131.33 210.2C130.62 210.38 129.59 210.62 128.33 210.84C124.951 211.501 121.477 211.521 118.09 210.9C114.675 210.24 111.568 208.484 109.24 205.9C108.558 205.104 107.992 204.215 107.56 203.26C107.384 202.921 107.263 202.557 107.2 202.18C107.833 203.428 108.612 204.596 109.52 205.66C111.851 208.109 114.883 209.776 118.2 210.43C121.531 211.028 124.939 211.059 128.28 210.52C129.57 210.34 130.61 210.16 131.28 210.04C131.652 209.939 132.035 209.882 132.42 209.87Z" fill="#455A64"/>
<path d="M96.8101 271.07C96.7624 271.028 96.7189 270.981 96.6801 270.93C96.6101 270.83 96.4801 270.69 96.3401 270.48C95.9525 269.869 95.6844 269.191 95.5501 268.48C95.3495 267.157 95.4417 265.806 95.8201 264.522C96.1985 263.238 96.8539 262.053 97.7401 261.05C98.9589 259.677 100.37 258.488 101.93 257.52C103.57 256.44 105.41 255.45 107.22 254.23C109.138 253.017 110.777 251.412 112.03 249.52C112.657 248.516 113.065 247.392 113.23 246.22C113.386 245.005 113.321 243.772 113.04 242.58C112.384 240.219 111.537 237.915 110.51 235.69C109.537 233.566 108.964 231.281 108.82 228.95C108.701 224.978 109.908 221.08 112.25 217.87C113.772 215.693 115.791 213.91 118.14 212.67L119.26 212.13L120.12 211.83C120.353 211.738 120.594 211.668 120.84 211.62C120.622 211.742 120.395 211.846 120.16 211.93L119.33 212.28L118.24 212.85C115.969 214.136 114.022 215.925 112.55 218.08C110.31 221.244 109.169 225.055 109.3 228.93C109.453 231.201 110.022 233.425 110.98 235.49C112.028 237.749 112.887 240.09 113.55 242.49C113.837 243.742 113.902 245.035 113.74 246.31C113.569 247.553 113.136 248.746 112.47 249.81C111.166 251.76 109.462 253.41 107.47 254.65C105.63 255.87 103.78 256.85 102.15 257.91C100.613 258.838 99.2187 259.983 98.0101 261.31C97.143 262.271 96.491 263.406 96.0978 264.639C95.7046 265.872 95.5792 267.175 95.7301 268.46C95.9119 269.393 96.2792 270.281 96.8101 271.07Z" fill="#455A64"/>
<path d="M123.45 271.43C123.245 271.343 123.05 271.232 122.87 271.1C122.349 270.726 121.911 270.25 121.58 269.7C121.065 268.821 120.757 267.836 120.68 266.82C120.574 265.471 120.723 264.114 121.12 262.82C121.93 259.89 124.38 257.22 126.22 253.82C127.222 252.089 127.743 250.121 127.73 248.12C127.628 245.974 127.08 243.873 126.12 241.95C124.22 237.95 121.3 234.73 119.28 231.39C118.288 229.829 117.495 228.149 116.92 226.39C116.436 224.832 116.269 223.193 116.43 221.57C116.585 219.194 117.627 216.963 119.35 215.32C119.832 214.911 120.371 214.574 120.95 214.32C121.148 214.224 121.356 214.15 121.57 214.1C120.815 214.474 120.113 214.944 119.48 215.5C117.875 217.152 116.922 219.33 116.8 221.63C116.667 223.204 116.851 224.788 117.34 226.29C117.91 228.02 118.7 229.671 119.69 231.2C120.69 232.83 121.93 234.46 123.16 236.2C124.473 237.961 125.621 239.839 126.59 241.81C127.59 243.798 128.153 245.977 128.24 248.2C128.244 250.283 127.695 252.329 126.65 254.13C124.73 257.54 122.28 260.13 121.47 262.97C121.073 264.213 120.904 265.517 120.97 266.82C121.025 267.799 121.291 268.754 121.75 269.62C122.183 270.336 122.762 270.953 123.45 271.43Z" fill="#455A64"/>
<path d="M162.91 196.36C162.91 196.36 162.77 196.36 162.53 196.2C162.183 196.012 161.849 195.802 161.53 195.57C160.386 194.684 159.413 193.596 158.66 192.36C157.566 190.534 156.639 188.613 155.89 186.62C155.43 185.52 154.89 184.37 154.33 183.24C153.703 182.073 152.967 180.967 152.13 179.94C149.145 176.316 145.104 173.712 140.57 172.49C138.684 172.036 136.758 171.761 134.82 171.67C135.339 171.583 135.865 171.553 136.39 171.58C137.828 171.617 139.259 171.801 140.66 172.13C145.321 173.275 149.486 175.899 152.53 179.61C153.394 180.665 154.154 181.8 154.8 183C155.41 184.16 155.89 185.33 156.34 186.44C157.066 188.417 157.949 190.333 158.98 192.17C159.696 193.388 160.605 194.482 161.67 195.41C162.44 196.06 162.94 196.32 162.91 196.36Z" fill="#455A64"/>
<path d="M176.86 196.28C176.678 196.287 176.496 196.267 176.32 196.22C175.808 196.141 175.306 196.01 174.82 195.83C173.022 195.165 171.393 194.109 170.05 192.74C168.077 190.714 166.413 188.41 165.11 185.9C163.54 183.15 162.02 179.99 159.67 177.24C157.431 174.67 154.474 172.828 151.18 171.95C148.488 171.235 145.716 170.862 142.93 170.84C140.54 170.79 138.61 170.84 137.27 170.94L135.73 171C135.551 171.024 135.369 171.024 135.19 171C135.362 170.945 135.54 170.915 135.72 170.91L137.26 170.75C138.59 170.64 140.53 170.48 142.93 170.49C145.755 170.452 148.573 170.788 151.31 171.49C154.709 172.368 157.76 174.259 160.06 176.91C162.48 179.74 163.99 182.91 165.52 185.68C166.788 188.161 168.401 190.451 170.31 192.48C171.597 193.847 173.158 194.927 174.89 195.65C176.13 196.13 176.87 196.22 176.86 196.28Z" fill="#455A64"/>
<path d="M200.47 261.18C200.42 261.18 200.73 260.47 201.06 259.18C201.54 257.34 201.742 255.439 201.66 253.54C201.565 250.722 200.841 247.962 199.54 245.46C198.765 243.993 197.804 242.631 196.68 241.41C195.52 240.12 194.19 238.9 192.86 237.62C191.517 236.389 190.277 235.051 189.15 233.62C188.115 232.278 187.221 230.834 186.48 229.31C185.234 226.723 184.436 223.944 184.12 221.09C183.9 219.172 183.92 217.233 184.18 215.32C184.237 214.801 184.327 214.287 184.45 213.78C184.476 213.597 184.527 213.419 184.6 213.25C184.65 213.25 184.49 214 184.38 215.35C184.198 217.244 184.232 219.153 184.48 221.04C184.854 223.839 185.675 226.56 186.91 229.1C187.649 230.587 188.533 231.997 189.55 233.31C190.669 234.705 191.892 236.012 193.21 237.22C194.55 238.5 195.88 239.73 197.06 241.05C198.206 242.306 199.181 243.708 199.96 245.22C201.273 247.79 201.981 250.625 202.03 253.51C202.078 255.442 201.818 257.37 201.26 259.22C201.114 259.723 200.931 260.215 200.71 260.69C200.655 260.865 200.574 261.03 200.47 261.18Z" fill="#455A64"/>
<path d="M90.9201 195.49C90.9178 195.152 90.9615 194.816 91.0501 194.49C91.2523 193.621 91.5719 192.783 92.0001 192C92.7149 190.671 93.7026 189.509 94.8984 188.589C96.0942 187.669 97.471 187.012 98.9385 186.662C100.406 186.311 101.931 186.275 103.413 186.556C104.896 186.837 106.302 187.427 107.54 188.29C108.289 188.788 108.963 189.39 109.54 190.08C109.771 190.32 109.96 190.597 110.1 190.9C109.255 190.044 108.327 189.274 107.33 188.6C106.121 187.813 104.763 187.281 103.341 187.035C101.919 186.79 100.462 186.836 99.0588 187.172C97.6554 187.508 96.335 188.126 95.1782 188.989C94.0214 189.851 93.0524 190.941 92.3301 192.19C91.7547 193.242 91.2825 194.347 90.9201 195.49Z" fill="#455A64"/>
<path d="M100.61 199.7C100.603 198.934 100.697 198.171 100.89 197.43C101.198 195.575 102.019 193.843 103.26 192.43C103.94 191.749 104.792 191.265 105.725 191.029C106.658 190.793 107.638 190.814 108.56 191.09C109.114 191.291 109.605 191.636 109.98 192.09C110.23 192.41 110.3 192.63 110.28 192.64C109.771 192.112 109.144 191.711 108.45 191.47C107.597 191.267 106.707 191.285 105.863 191.523C105.02 191.761 104.251 192.211 103.63 192.83C102.459 194.186 101.641 195.811 101.25 197.56C101.102 198.291 100.888 199.008 100.61 199.7Z" fill="#455A64"/>
<path d="M113.32 185.05C112.317 186.803 111.438 188.624 110.69 190.5C110.112 192.432 109.657 194.4 109.33 196.39C109.109 192.229 110.548 188.151 113.33 185.05H113.32Z" fill="#FF8927"/>
<path d="M273.3 209.43C273.3 210.045 273.482 210.646 273.824 211.158C274.166 211.669 274.652 212.068 275.22 212.303C275.788 212.539 276.414 212.6 277.017 212.48C277.62 212.36 278.174 212.064 278.609 211.629C279.044 211.194 279.34 210.64 279.46 210.037C279.58 209.434 279.519 208.808 279.283 208.24C279.048 207.672 278.649 207.186 278.138 206.844C277.626 206.502 277.025 206.32 276.41 206.32C276.002 206.32 275.597 206.401 275.22 206.557C274.843 206.713 274.5 206.942 274.211 207.231C273.922 207.52 273.693 207.863 273.537 208.24C273.381 208.617 273.3 209.022 273.3 209.43Z" fill="#455A64"/>
<path d="M263.95 212.54C265.668 212.54 267.06 211.148 267.06 209.43C267.06 207.712 265.668 206.32 263.95 206.32C262.232 206.32 260.84 207.712 260.84 209.43C260.84 211.148 262.232 212.54 263.95 212.54Z" fill="#455A64"/>
<path d="M248.42 207.87C248.113 208.403 247.971 209.015 248.011 209.628C248.052 210.242 248.274 210.83 248.648 211.318C249.023 211.805 249.534 212.171 250.116 212.368C250.698 212.566 251.326 212.586 251.92 212.427C252.514 212.268 253.048 211.936 253.453 211.473C253.858 211.011 254.118 210.439 254.198 209.829C254.278 209.219 254.176 208.599 253.904 208.048C253.632 207.496 253.203 207.038 252.67 206.73C252.316 206.526 251.925 206.393 251.52 206.34C251.115 206.286 250.703 206.313 250.309 206.419C249.914 206.525 249.544 206.708 249.22 206.957C248.896 207.206 248.624 207.516 248.42 207.87Z" fill="#455A64"/>
<path d="M263.76 173.08C263.551 173.056 263.339 173.056 263.13 173.08L261.28 173.13C260.88 173.13 260.42 173.13 259.92 173.19L258.29 173.42L256.39 173.69L254.26 174.22C250.619 175.145 247.153 176.658 244 178.7C239.313 181.683 235.371 185.698 232.475 190.438C229.578 195.179 227.805 200.519 227.29 206.05C227.145 207.713 227.112 209.383 227.19 211.05C227.25 211.9 227.19 212.75 227.35 213.6L227.74 216.17C228.392 219.704 229.558 223.124 231.2 226.32C232.962 229.659 235.194 232.727 237.83 235.43C240.64 238.196 243.861 240.511 247.38 242.29C251.014 244.148 254.948 245.349 259 245.84C260.03 245.995 261.069 246.085 262.11 246.11C263.153 246.165 264.197 246.165 265.24 246.11C267.355 246.026 269.46 245.761 271.53 245.32C275.973 244.369 280.201 242.603 284 240.11H283.62L296.36 245.23L297.12 245.53L296.9 244.75C295.62 240.07 294.36 235.52 293.16 231.12L293.09 231.46C296.551 226.878 298.881 221.543 299.89 215.89C300.379 213.253 300.547 210.567 300.39 207.89C300.364 206.606 300.24 205.325 300.02 204.06C299.93 203.43 299.83 202.81 299.74 202.19C299.65 201.57 299.43 200.99 299.29 200.39C297.157 192.013 292.118 184.666 285.07 179.66C282.469 177.791 279.622 176.29 276.61 175.2L274.71 174.52L272.9 174.06L271.24 173.65C270.71 173.54 270.24 173.49 269.72 173.42C268.72 173.29 267.91 173.13 267.17 173.09L265.29 173.03H264.15C263.89 173.03 263.76 173.03 263.76 173.03H264.15L265.29 173.12L267.15 173.24C267.88 173.3 268.72 173.49 269.68 173.63C276.598 174.821 283.021 177.995 288.169 182.766C293.317 187.538 296.969 193.702 298.68 200.51C298.82 201.1 299 201.68 299.11 202.28C299.22 202.88 299.29 203.5 299.39 204.11C299.591 205.357 299.702 206.617 299.72 207.88C299.866 210.494 299.695 213.117 299.21 215.69C298.197 221.252 295.888 226.497 292.47 231L292.36 231.15L292.41 231.34C293.61 235.74 294.847 240.283 296.12 244.97L296.66 244.49L283.93 239.36L283.73 239.28L283.54 239.4C279.817 241.856 275.67 243.599 271.31 244.54C269.289 244.973 267.235 245.234 265.17 245.32C264.146 245.36 263.121 245.34 262.1 245.26C261.096 245.24 260.094 245.157 259.1 245.01C255.133 244.523 251.281 243.345 247.72 241.53C240.9 238.156 235.342 232.685 231.86 225.92C230.228 222.8 229.062 219.458 228.4 216C228.27 215.15 228.14 214.32 228.02 213.48C227.9 212.64 227.91 211.81 227.84 210.98C227.761 209.35 227.788 207.717 227.92 206.09C228.407 200.649 230.126 195.391 232.947 190.713C235.768 186.035 239.616 182.06 244.2 179.09C247.312 177.031 250.736 175.488 254.34 174.52L256.44 173.96L258.33 173.65L259.94 173.38C260.44 173.38 260.89 173.32 261.29 173.28L263.13 173.15C263.342 173.144 263.552 173.121 263.76 173.08Z" fill="#455A64"/>
</svg>
